G04 #@! TF.GenerationSoftware,KiCad,Pcbnew,5.1.3-ffb9f22~84~ubuntu18.10.1*
G04 #@! TF.CreationDate,2020-02-01T18:16:24-05:00*
G04 #@! TF.ProjectId,FIFO_Clock,4649464f-5f43-46c6-9f63-6b2e6b696361,rev?*
G04 #@! TF.SameCoordinates,PX2faf080PY2faf080*
G04 #@! TF.FileFunction,Soldermask,Bot*
G04 #@! TF.FilePolarity,Negative*
%FSLAX46Y46*%
G04 Gerber Fmt 4.6, Leading zero omitted, Abs format (unit mm)*
G04 Created by KiCad (PCBNEW 5.1.3-ffb9f22~84~ubuntu18.10.1) date 2020-02-01 18:16:24*
%MOMM*%
%LPD*%
G04 APERTURE LIST*
%ADD10C,0.100000*%
G04 APERTURE END LIST*
D10*
G36*
X83651000Y-95801000D02*
G01*
X82349000Y-95801000D01*
X82349000Y-94799000D01*
X83651000Y-94799000D01*
X83651000Y-95801000D01*
X83651000Y-95801000D01*
G37*
G36*
X97808015Y-93776973D02*
G01*
X97911879Y-93808479D01*
X97939055Y-93823005D01*
X98007600Y-93859643D01*
X98091501Y-93928499D01*
X98160357Y-94012400D01*
X98187403Y-94063000D01*
X98211521Y-94108121D01*
X98243027Y-94211985D01*
X98253666Y-94320000D01*
X98243027Y-94428015D01*
X98211521Y-94531879D01*
X98211519Y-94531882D01*
X98160357Y-94627600D01*
X98091501Y-94711501D01*
X98007600Y-94780357D01*
X97939055Y-94816995D01*
X97911879Y-94831521D01*
X97808015Y-94863027D01*
X97727067Y-94871000D01*
X97072933Y-94871000D01*
X96991985Y-94863027D01*
X96888121Y-94831521D01*
X96860945Y-94816995D01*
X96792400Y-94780357D01*
X96708499Y-94711501D01*
X96639643Y-94627600D01*
X96588481Y-94531882D01*
X96588479Y-94531879D01*
X96556973Y-94428015D01*
X96546334Y-94320000D01*
X96556973Y-94211985D01*
X96588479Y-94108121D01*
X96612597Y-94063000D01*
X96639643Y-94012400D01*
X96708499Y-93928499D01*
X96792400Y-93859643D01*
X96860945Y-93823005D01*
X96888121Y-93808479D01*
X96991985Y-93776973D01*
X97072933Y-93769000D01*
X97727067Y-93769000D01*
X97808015Y-93776973D01*
X97808015Y-93776973D01*
G37*
G36*
X93878015Y-85136973D02*
G01*
X93981879Y-85168479D01*
X94009055Y-85183005D01*
X94077600Y-85219643D01*
X94161501Y-85288499D01*
X94230357Y-85372400D01*
X94266995Y-85440945D01*
X94281521Y-85468121D01*
X94313027Y-85571985D01*
X94323666Y-85680000D01*
X94313027Y-85788015D01*
X94281521Y-85891879D01*
X94281519Y-85891882D01*
X94230357Y-85987600D01*
X94161501Y-86071501D01*
X94077600Y-86140357D01*
X94009055Y-86176995D01*
X93981879Y-86191521D01*
X93878015Y-86223027D01*
X93797067Y-86231000D01*
X93395999Y-86231000D01*
X93371613Y-86233402D01*
X93348164Y-86240515D01*
X93326553Y-86252066D01*
X93307611Y-86267611D01*
X93292066Y-86286553D01*
X93280515Y-86308164D01*
X93273402Y-86331613D01*
X93271000Y-86355999D01*
X93271000Y-86725482D01*
X93273402Y-86749868D01*
X93280515Y-86773317D01*
X93292066Y-86794928D01*
X93307611Y-86813870D01*
X93326553Y-86829415D01*
X93348164Y-86840966D01*
X93371613Y-86848079D01*
X93395999Y-86850481D01*
X93420385Y-86848079D01*
X93443834Y-86840966D01*
X93465445Y-86829415D01*
X93475527Y-86821141D01*
X93480313Y-86817943D01*
X93480314Y-86817942D01*
X93541897Y-86776793D01*
X93610325Y-86748450D01*
X93610326Y-86748450D01*
X93610328Y-86748449D01*
X93682966Y-86734000D01*
X93757034Y-86734000D01*
X93829672Y-86748449D01*
X93829674Y-86748450D01*
X93829675Y-86748450D01*
X93898103Y-86776793D01*
X93959686Y-86817942D01*
X94012058Y-86870314D01*
X94053207Y-86931897D01*
X94081550Y-87000325D01*
X94096000Y-87072967D01*
X94096000Y-87147033D01*
X94081550Y-87219675D01*
X94053207Y-87288103D01*
X94012058Y-87349686D01*
X93959686Y-87402058D01*
X93898103Y-87443207D01*
X93829675Y-87471550D01*
X93829674Y-87471550D01*
X93829672Y-87471551D01*
X93757034Y-87486000D01*
X93682966Y-87486000D01*
X93610328Y-87471551D01*
X93610326Y-87471550D01*
X93610325Y-87471550D01*
X93541897Y-87443207D01*
X93480314Y-87402058D01*
X93480313Y-87402057D01*
X93475527Y-87398859D01*
X93465445Y-87390585D01*
X93443834Y-87379034D01*
X93420385Y-87371921D01*
X93395999Y-87369519D01*
X93371613Y-87371921D01*
X93348164Y-87379034D01*
X93326553Y-87390585D01*
X93307611Y-87406130D01*
X93292066Y-87425072D01*
X93280515Y-87446683D01*
X93273402Y-87470132D01*
X93271000Y-87494518D01*
X93271000Y-92490581D01*
X93273402Y-92514967D01*
X93280515Y-92538416D01*
X93292066Y-92560027D01*
X93307611Y-92578969D01*
X93326553Y-92594514D01*
X93348164Y-92606065D01*
X93371613Y-92613178D01*
X93395999Y-92615580D01*
X93420385Y-92613178D01*
X93443834Y-92606065D01*
X93465441Y-92594516D01*
X93521897Y-92556793D01*
X93590325Y-92528450D01*
X93590326Y-92528450D01*
X93590328Y-92528449D01*
X93662966Y-92514000D01*
X93737034Y-92514000D01*
X93809672Y-92528449D01*
X93809674Y-92528450D01*
X93809675Y-92528450D01*
X93878103Y-92556793D01*
X93939686Y-92597942D01*
X93992058Y-92650314D01*
X94033207Y-92711897D01*
X94061550Y-92780325D01*
X94076000Y-92852967D01*
X94076000Y-92927033D01*
X94061550Y-92999675D01*
X94033207Y-93068103D01*
X93992058Y-93129686D01*
X93939686Y-93182058D01*
X93878103Y-93223207D01*
X93809675Y-93251550D01*
X93809674Y-93251550D01*
X93809672Y-93251551D01*
X93737034Y-93266000D01*
X93662966Y-93266000D01*
X93590328Y-93251551D01*
X93590326Y-93251550D01*
X93590325Y-93251550D01*
X93521897Y-93223207D01*
X93465441Y-93185484D01*
X93443834Y-93173935D01*
X93420385Y-93166822D01*
X93395999Y-93164420D01*
X93371613Y-93166822D01*
X93348164Y-93173935D01*
X93326553Y-93185486D01*
X93307611Y-93201032D01*
X93292066Y-93219973D01*
X93280515Y-93241584D01*
X93273402Y-93265033D01*
X93271000Y-93289419D01*
X93271000Y-93644001D01*
X93273402Y-93668387D01*
X93280515Y-93691836D01*
X93292066Y-93713447D01*
X93307611Y-93732389D01*
X93326553Y-93747934D01*
X93348164Y-93759485D01*
X93371613Y-93766598D01*
X93395999Y-93769000D01*
X93797067Y-93769000D01*
X93878015Y-93776973D01*
X93981879Y-93808479D01*
X94009055Y-93823005D01*
X94077600Y-93859643D01*
X94161501Y-93928499D01*
X94230357Y-94012400D01*
X94257403Y-94063000D01*
X94281521Y-94108121D01*
X94313027Y-94211985D01*
X94323666Y-94320000D01*
X94313027Y-94428015D01*
X94281521Y-94531879D01*
X94281519Y-94531882D01*
X94230357Y-94627600D01*
X94161501Y-94711501D01*
X94077600Y-94780357D01*
X94009055Y-94816995D01*
X93981879Y-94831521D01*
X93878015Y-94863027D01*
X93797067Y-94871000D01*
X92642933Y-94871000D01*
X92561985Y-94863027D01*
X92458121Y-94831521D01*
X92430945Y-94816995D01*
X92362400Y-94780357D01*
X92278499Y-94711501D01*
X92209643Y-94627600D01*
X92158481Y-94531882D01*
X92158479Y-94531879D01*
X92126973Y-94428015D01*
X92116334Y-94320000D01*
X92126973Y-94211985D01*
X92158479Y-94108121D01*
X92182597Y-94063000D01*
X92209643Y-94012400D01*
X92278499Y-93928499D01*
X92362400Y-93859643D01*
X92430945Y-93823005D01*
X92458121Y-93808479D01*
X92500538Y-93795612D01*
X92523168Y-93786238D01*
X92543542Y-93772625D01*
X92560869Y-93755298D01*
X92574483Y-93734923D01*
X92583861Y-93712284D01*
X92588641Y-93688251D01*
X92588641Y-93663747D01*
X92583861Y-93639714D01*
X92574483Y-93617075D01*
X92560870Y-93596701D01*
X92543543Y-93579374D01*
X92523168Y-93565760D01*
X92500529Y-93556382D01*
X92476496Y-93551602D01*
X92464244Y-93551000D01*
X92019000Y-93551000D01*
X92019000Y-86449000D01*
X92464244Y-86449000D01*
X92488630Y-86446598D01*
X92512079Y-86439485D01*
X92533690Y-86427934D01*
X92552632Y-86412389D01*
X92568177Y-86393447D01*
X92579728Y-86371836D01*
X92586841Y-86348387D01*
X92589243Y-86324001D01*
X92586841Y-86299615D01*
X92579728Y-86276166D01*
X92568177Y-86254555D01*
X92552632Y-86235613D01*
X92533690Y-86220068D01*
X92512079Y-86208517D01*
X92500547Y-86204391D01*
X92458121Y-86191521D01*
X92430945Y-86176995D01*
X92362400Y-86140357D01*
X92278499Y-86071501D01*
X92209643Y-85987600D01*
X92158481Y-85891882D01*
X92158479Y-85891879D01*
X92126973Y-85788015D01*
X92116334Y-85680000D01*
X92126973Y-85571985D01*
X92158479Y-85468121D01*
X92173005Y-85440945D01*
X92209643Y-85372400D01*
X92278499Y-85288499D01*
X92362400Y-85219643D01*
X92430945Y-85183005D01*
X92458121Y-85168479D01*
X92561985Y-85136973D01*
X92642933Y-85129000D01*
X93797067Y-85129000D01*
X93878015Y-85136973D01*
X93878015Y-85136973D01*
G37*
G36*
X87364499Y-93178445D02*
G01*
X87401995Y-93189820D01*
X87436554Y-93208292D01*
X87466847Y-93233153D01*
X87491708Y-93263446D01*
X87510180Y-93298005D01*
X87521555Y-93335501D01*
X87526000Y-93380638D01*
X87526000Y-94119362D01*
X87521555Y-94164499D01*
X87510180Y-94201995D01*
X87491708Y-94236554D01*
X87466847Y-94266847D01*
X87436554Y-94291708D01*
X87401995Y-94310180D01*
X87364499Y-94321555D01*
X87319362Y-94326000D01*
X86680638Y-94326000D01*
X86635501Y-94321555D01*
X86598005Y-94310180D01*
X86563446Y-94291708D01*
X86533153Y-94266847D01*
X86508292Y-94236554D01*
X86489820Y-94201995D01*
X86478445Y-94164499D01*
X86474000Y-94119362D01*
X86474000Y-93380638D01*
X86478445Y-93335501D01*
X86489820Y-93298005D01*
X86508292Y-93263446D01*
X86533153Y-93233153D01*
X86563446Y-93208292D01*
X86598005Y-93189820D01*
X86635501Y-93178445D01*
X86680638Y-93174000D01*
X87319362Y-93174000D01*
X87364499Y-93178445D01*
X87364499Y-93178445D01*
G37*
G36*
X87364499Y-91428445D02*
G01*
X87401995Y-91439820D01*
X87436554Y-91458292D01*
X87466847Y-91483153D01*
X87491708Y-91513446D01*
X87510180Y-91548005D01*
X87521555Y-91585501D01*
X87526000Y-91630638D01*
X87526000Y-92369362D01*
X87521555Y-92414499D01*
X87510180Y-92451995D01*
X87491708Y-92486554D01*
X87466847Y-92516847D01*
X87436554Y-92541708D01*
X87401995Y-92560180D01*
X87364499Y-92571555D01*
X87319362Y-92576000D01*
X86680638Y-92576000D01*
X86635501Y-92571555D01*
X86598005Y-92560180D01*
X86563446Y-92541708D01*
X86533153Y-92516847D01*
X86508292Y-92486554D01*
X86489820Y-92451995D01*
X86478445Y-92414499D01*
X86474000Y-92369362D01*
X86474000Y-91630638D01*
X86478445Y-91585501D01*
X86489820Y-91548005D01*
X86508292Y-91513446D01*
X86533153Y-91483153D01*
X86563446Y-91458292D01*
X86598005Y-91439820D01*
X86635501Y-91428445D01*
X86680638Y-91424000D01*
X87319362Y-91424000D01*
X87364499Y-91428445D01*
X87364499Y-91428445D01*
G37*
G36*
X77664499Y-91478445D02*
G01*
X77701995Y-91489820D01*
X77736554Y-91508292D01*
X77766847Y-91533153D01*
X77791708Y-91563446D01*
X77810180Y-91598005D01*
X77821555Y-91635501D01*
X77826000Y-91680638D01*
X77826000Y-92319362D01*
X77821555Y-92364499D01*
X77810180Y-92401995D01*
X77791708Y-92436554D01*
X77766847Y-92466847D01*
X77736554Y-92491708D01*
X77701995Y-92510180D01*
X77664499Y-92521555D01*
X77619362Y-92526000D01*
X76880638Y-92526000D01*
X76835501Y-92521555D01*
X76798005Y-92510180D01*
X76763446Y-92491708D01*
X76733153Y-92466847D01*
X76708292Y-92436554D01*
X76689820Y-92401995D01*
X76678445Y-92364499D01*
X76674000Y-92319362D01*
X76674000Y-91680638D01*
X76678445Y-91635501D01*
X76689820Y-91598005D01*
X76708292Y-91563446D01*
X76733153Y-91533153D01*
X76763446Y-91508292D01*
X76798005Y-91489820D01*
X76835501Y-91478445D01*
X76880638Y-91474000D01*
X77619362Y-91474000D01*
X77664499Y-91478445D01*
X77664499Y-91478445D01*
G37*
G36*
X79414499Y-91478445D02*
G01*
X79451995Y-91489820D01*
X79486554Y-91508292D01*
X79516847Y-91533153D01*
X79541708Y-91563446D01*
X79560180Y-91598005D01*
X79571555Y-91635501D01*
X79576000Y-91680638D01*
X79576000Y-92319362D01*
X79571555Y-92364499D01*
X79560180Y-92401995D01*
X79541708Y-92436554D01*
X79516847Y-92466847D01*
X79486554Y-92491708D01*
X79451995Y-92510180D01*
X79414499Y-92521555D01*
X79369362Y-92526000D01*
X78630638Y-92526000D01*
X78585501Y-92521555D01*
X78548005Y-92510180D01*
X78513446Y-92491708D01*
X78483153Y-92466847D01*
X78458292Y-92436554D01*
X78439820Y-92401995D01*
X78428445Y-92364499D01*
X78424000Y-92319362D01*
X78424000Y-91680638D01*
X78428445Y-91635501D01*
X78439820Y-91598005D01*
X78458292Y-91563446D01*
X78483153Y-91533153D01*
X78513446Y-91508292D01*
X78548005Y-91489820D01*
X78585501Y-91478445D01*
X78630638Y-91474000D01*
X79369362Y-91474000D01*
X79414499Y-91478445D01*
X79414499Y-91478445D01*
G37*
G36*
X83651000Y-92501000D02*
G01*
X82349000Y-92501000D01*
X82349000Y-91499000D01*
X83651000Y-91499000D01*
X83651000Y-92501000D01*
X83651000Y-92501000D01*
G37*
G36*
X14539499Y-89478445D02*
G01*
X14576995Y-89489820D01*
X14611554Y-89508292D01*
X14641847Y-89533153D01*
X14666708Y-89563446D01*
X14685180Y-89598005D01*
X14696555Y-89635501D01*
X14701000Y-89680638D01*
X14701000Y-90319362D01*
X14696555Y-90364499D01*
X14685180Y-90401995D01*
X14666708Y-90436554D01*
X14641847Y-90466847D01*
X14611554Y-90491708D01*
X14576995Y-90510180D01*
X14539499Y-90521555D01*
X14494362Y-90526000D01*
X13755638Y-90526000D01*
X13710501Y-90521555D01*
X13673005Y-90510180D01*
X13638446Y-90491708D01*
X13608153Y-90466847D01*
X13583292Y-90436554D01*
X13564820Y-90401995D01*
X13553445Y-90364499D01*
X13549000Y-90319362D01*
X13549000Y-89680638D01*
X13553445Y-89635501D01*
X13564820Y-89598005D01*
X13583292Y-89563446D01*
X13608153Y-89533153D01*
X13638446Y-89508292D01*
X13673005Y-89489820D01*
X13710501Y-89478445D01*
X13755638Y-89474000D01*
X14494362Y-89474000D01*
X14539499Y-89478445D01*
X14539499Y-89478445D01*
G37*
G36*
X16289499Y-89478445D02*
G01*
X16326995Y-89489820D01*
X16361554Y-89508292D01*
X16391847Y-89533153D01*
X16416708Y-89563446D01*
X16435180Y-89598005D01*
X16446555Y-89635501D01*
X16451000Y-89680638D01*
X16451000Y-90319362D01*
X16446555Y-90364499D01*
X16435180Y-90401995D01*
X16416708Y-90436554D01*
X16391847Y-90466847D01*
X16361554Y-90491708D01*
X16326995Y-90510180D01*
X16289499Y-90521555D01*
X16244362Y-90526000D01*
X15505638Y-90526000D01*
X15460501Y-90521555D01*
X15423005Y-90510180D01*
X15388446Y-90491708D01*
X15358153Y-90466847D01*
X15333292Y-90436554D01*
X15314820Y-90401995D01*
X15303445Y-90364499D01*
X15299000Y-90319362D01*
X15299000Y-89680638D01*
X15303445Y-89635501D01*
X15314820Y-89598005D01*
X15333292Y-89563446D01*
X15358153Y-89533153D01*
X15388446Y-89508292D01*
X15423005Y-89489820D01*
X15460501Y-89478445D01*
X15505638Y-89474000D01*
X16244362Y-89474000D01*
X16289499Y-89478445D01*
X16289499Y-89478445D01*
G37*
G36*
X79414499Y-89478445D02*
G01*
X79451995Y-89489820D01*
X79486554Y-89508292D01*
X79516847Y-89533153D01*
X79541708Y-89563446D01*
X79560180Y-89598005D01*
X79571555Y-89635501D01*
X79576000Y-89680638D01*
X79576000Y-90319362D01*
X79571555Y-90364499D01*
X79560180Y-90401995D01*
X79541708Y-90436554D01*
X79516847Y-90466847D01*
X79486554Y-90491708D01*
X79451995Y-90510180D01*
X79414499Y-90521555D01*
X79369362Y-90526000D01*
X78630638Y-90526000D01*
X78585501Y-90521555D01*
X78548005Y-90510180D01*
X78513446Y-90491708D01*
X78483153Y-90466847D01*
X78458292Y-90436554D01*
X78439820Y-90401995D01*
X78428445Y-90364499D01*
X78424000Y-90319362D01*
X78424000Y-89680638D01*
X78428445Y-89635501D01*
X78439820Y-89598005D01*
X78458292Y-89563446D01*
X78483153Y-89533153D01*
X78513446Y-89508292D01*
X78548005Y-89489820D01*
X78585501Y-89478445D01*
X78630638Y-89474000D01*
X79369362Y-89474000D01*
X79414499Y-89478445D01*
X79414499Y-89478445D01*
G37*
G36*
X81164499Y-89478445D02*
G01*
X81201995Y-89489820D01*
X81236554Y-89508292D01*
X81266847Y-89533153D01*
X81291708Y-89563446D01*
X81310180Y-89598005D01*
X81321555Y-89635501D01*
X81326000Y-89680638D01*
X81326000Y-90319362D01*
X81321555Y-90364499D01*
X81310180Y-90401995D01*
X81291708Y-90436554D01*
X81266847Y-90466847D01*
X81236554Y-90491708D01*
X81201995Y-90510180D01*
X81164499Y-90521555D01*
X81119362Y-90526000D01*
X80380638Y-90526000D01*
X80335501Y-90521555D01*
X80298005Y-90510180D01*
X80263446Y-90491708D01*
X80233153Y-90466847D01*
X80208292Y-90436554D01*
X80189820Y-90401995D01*
X80178445Y-90364499D01*
X80174000Y-90319362D01*
X80174000Y-89680638D01*
X80178445Y-89635501D01*
X80189820Y-89598005D01*
X80208292Y-89563446D01*
X80233153Y-89533153D01*
X80263446Y-89508292D01*
X80298005Y-89489820D01*
X80335501Y-89478445D01*
X80380638Y-89474000D01*
X81119362Y-89474000D01*
X81164499Y-89478445D01*
X81164499Y-89478445D01*
G37*
G36*
X69060721Y-88870174D02*
G01*
X69160995Y-88911709D01*
X69160996Y-88911710D01*
X69251242Y-88972010D01*
X69327990Y-89048758D01*
X69358345Y-89094188D01*
X69388291Y-89139005D01*
X69429826Y-89239279D01*
X69451000Y-89345730D01*
X69451000Y-89454270D01*
X69429826Y-89560721D01*
X69388291Y-89660995D01*
X69358345Y-89705812D01*
X69327990Y-89751242D01*
X69251242Y-89827990D01*
X69205812Y-89858345D01*
X69160995Y-89888291D01*
X69060721Y-89929826D01*
X68954270Y-89951000D01*
X68845730Y-89951000D01*
X68739279Y-89929826D01*
X68639005Y-89888291D01*
X68594188Y-89858345D01*
X68548758Y-89827990D01*
X68472010Y-89751242D01*
X68441655Y-89705812D01*
X68411709Y-89660995D01*
X68370174Y-89560721D01*
X68349000Y-89454270D01*
X68349000Y-89345730D01*
X68370174Y-89239279D01*
X68411709Y-89139005D01*
X68441655Y-89094188D01*
X68472010Y-89048758D01*
X68548758Y-88972010D01*
X68639004Y-88911710D01*
X68639005Y-88911709D01*
X68739279Y-88870174D01*
X68845730Y-88849000D01*
X68954270Y-88849000D01*
X69060721Y-88870174D01*
X69060721Y-88870174D01*
G37*
G36*
X70960721Y-88870174D02*
G01*
X71060995Y-88911709D01*
X71060996Y-88911710D01*
X71151242Y-88972010D01*
X71227990Y-89048758D01*
X71258345Y-89094188D01*
X71288291Y-89139005D01*
X71329826Y-89239279D01*
X71351000Y-89345730D01*
X71351000Y-89454270D01*
X71329826Y-89560721D01*
X71288291Y-89660995D01*
X71258345Y-89705812D01*
X71227990Y-89751242D01*
X71151242Y-89827990D01*
X71105812Y-89858345D01*
X71060995Y-89888291D01*
X70960721Y-89929826D01*
X70854270Y-89951000D01*
X70745730Y-89951000D01*
X70639279Y-89929826D01*
X70539005Y-89888291D01*
X70494188Y-89858345D01*
X70448758Y-89827990D01*
X70372010Y-89751242D01*
X70341655Y-89705812D01*
X70311709Y-89660995D01*
X70270174Y-89560721D01*
X70249000Y-89454270D01*
X70249000Y-89345730D01*
X70270174Y-89239279D01*
X70311709Y-89139005D01*
X70341655Y-89094188D01*
X70372010Y-89048758D01*
X70448758Y-88972010D01*
X70539004Y-88911710D01*
X70539005Y-88911709D01*
X70639279Y-88870174D01*
X70745730Y-88849000D01*
X70854270Y-88849000D01*
X70960721Y-88870174D01*
X70960721Y-88870174D01*
G37*
G36*
X87364499Y-87428445D02*
G01*
X87401995Y-87439820D01*
X87436554Y-87458292D01*
X87466847Y-87483153D01*
X87491708Y-87513446D01*
X87510180Y-87548005D01*
X87521555Y-87585501D01*
X87526000Y-87630638D01*
X87526000Y-88369362D01*
X87521555Y-88414499D01*
X87510180Y-88451995D01*
X87491708Y-88486554D01*
X87466847Y-88516847D01*
X87436554Y-88541708D01*
X87401995Y-88560180D01*
X87364499Y-88571555D01*
X87319362Y-88576000D01*
X86680638Y-88576000D01*
X86635501Y-88571555D01*
X86598005Y-88560180D01*
X86563446Y-88541708D01*
X86533153Y-88516847D01*
X86508292Y-88486554D01*
X86489820Y-88451995D01*
X86478445Y-88414499D01*
X86474000Y-88369362D01*
X86474000Y-87630638D01*
X86478445Y-87585501D01*
X86489820Y-87548005D01*
X86508292Y-87513446D01*
X86533153Y-87483153D01*
X86563446Y-87458292D01*
X86598005Y-87439820D01*
X86635501Y-87428445D01*
X86680638Y-87424000D01*
X87319362Y-87424000D01*
X87364499Y-87428445D01*
X87364499Y-87428445D01*
G37*
G36*
X79414499Y-87478445D02*
G01*
X79451995Y-87489820D01*
X79486554Y-87508292D01*
X79516847Y-87533153D01*
X79541708Y-87563446D01*
X79560180Y-87598005D01*
X79571555Y-87635501D01*
X79576000Y-87680638D01*
X79576000Y-88319362D01*
X79571555Y-88364499D01*
X79560180Y-88401995D01*
X79541708Y-88436554D01*
X79516847Y-88466847D01*
X79486554Y-88491708D01*
X79451995Y-88510180D01*
X79414499Y-88521555D01*
X79369362Y-88526000D01*
X78630638Y-88526000D01*
X78585501Y-88521555D01*
X78548005Y-88510180D01*
X78513446Y-88491708D01*
X78483153Y-88466847D01*
X78458292Y-88436554D01*
X78439820Y-88401995D01*
X78428445Y-88364499D01*
X78424000Y-88319362D01*
X78424000Y-87680638D01*
X78428445Y-87635501D01*
X78439820Y-87598005D01*
X78458292Y-87563446D01*
X78483153Y-87533153D01*
X78513446Y-87508292D01*
X78548005Y-87489820D01*
X78585501Y-87478445D01*
X78630638Y-87474000D01*
X79369362Y-87474000D01*
X79414499Y-87478445D01*
X79414499Y-87478445D01*
G37*
G36*
X77664499Y-87478445D02*
G01*
X77701995Y-87489820D01*
X77736554Y-87508292D01*
X77766847Y-87533153D01*
X77791708Y-87563446D01*
X77810180Y-87598005D01*
X77821555Y-87635501D01*
X77826000Y-87680638D01*
X77826000Y-88319362D01*
X77821555Y-88364499D01*
X77810180Y-88401995D01*
X77791708Y-88436554D01*
X77766847Y-88466847D01*
X77736554Y-88491708D01*
X77701995Y-88510180D01*
X77664499Y-88521555D01*
X77619362Y-88526000D01*
X76880638Y-88526000D01*
X76835501Y-88521555D01*
X76798005Y-88510180D01*
X76763446Y-88491708D01*
X76733153Y-88466847D01*
X76708292Y-88436554D01*
X76689820Y-88401995D01*
X76678445Y-88364499D01*
X76674000Y-88319362D01*
X76674000Y-87680638D01*
X76678445Y-87635501D01*
X76689820Y-87598005D01*
X76708292Y-87563446D01*
X76733153Y-87533153D01*
X76763446Y-87508292D01*
X76798005Y-87489820D01*
X76835501Y-87478445D01*
X76880638Y-87474000D01*
X77619362Y-87474000D01*
X77664499Y-87478445D01*
X77664499Y-87478445D01*
G37*
G36*
X83651000Y-88501000D02*
G01*
X82349000Y-88501000D01*
X82349000Y-87499000D01*
X83651000Y-87499000D01*
X83651000Y-88501000D01*
X83651000Y-88501000D01*
G37*
G36*
X70764928Y-85451764D02*
G01*
X70786009Y-85458160D01*
X70805445Y-85468548D01*
X70822476Y-85482524D01*
X70836452Y-85499555D01*
X70846840Y-85518991D01*
X70853236Y-85540072D01*
X70856000Y-85568140D01*
X70856000Y-87381860D01*
X70853236Y-87409928D01*
X70846840Y-87431009D01*
X70836452Y-87450445D01*
X70822476Y-87467476D01*
X70805445Y-87481452D01*
X70786009Y-87491840D01*
X70764928Y-87498236D01*
X70736860Y-87501000D01*
X70273140Y-87501000D01*
X70245072Y-87498236D01*
X70223991Y-87491840D01*
X70204555Y-87481452D01*
X70187524Y-87467476D01*
X70173548Y-87450445D01*
X70163160Y-87431009D01*
X70156764Y-87409928D01*
X70154000Y-87381860D01*
X70154000Y-85568140D01*
X70156764Y-85540072D01*
X70163160Y-85518991D01*
X70173548Y-85499555D01*
X70187524Y-85482524D01*
X70204555Y-85468548D01*
X70223991Y-85458160D01*
X70245072Y-85451764D01*
X70273140Y-85449000D01*
X70736860Y-85449000D01*
X70764928Y-85451764D01*
X70764928Y-85451764D01*
G37*
G36*
X66954928Y-85451764D02*
G01*
X66976009Y-85458160D01*
X66995445Y-85468548D01*
X67012476Y-85482524D01*
X67026452Y-85499555D01*
X67036840Y-85518991D01*
X67043236Y-85540072D01*
X67046000Y-85568140D01*
X67046000Y-87381860D01*
X67043236Y-87409928D01*
X67036840Y-87431009D01*
X67026452Y-87450445D01*
X67012476Y-87467476D01*
X66995445Y-87481452D01*
X66976009Y-87491840D01*
X66954928Y-87498236D01*
X66926860Y-87501000D01*
X66463140Y-87501000D01*
X66435072Y-87498236D01*
X66413991Y-87491840D01*
X66394555Y-87481452D01*
X66377524Y-87467476D01*
X66363548Y-87450445D01*
X66353160Y-87431009D01*
X66346764Y-87409928D01*
X66344000Y-87381860D01*
X66344000Y-85568140D01*
X66346764Y-85540072D01*
X66353160Y-85518991D01*
X66363548Y-85499555D01*
X66377524Y-85482524D01*
X66394555Y-85468548D01*
X66413991Y-85458160D01*
X66435072Y-85451764D01*
X66463140Y-85449000D01*
X66926860Y-85449000D01*
X66954928Y-85451764D01*
X66954928Y-85451764D01*
G37*
G36*
X68224928Y-85451764D02*
G01*
X68246009Y-85458160D01*
X68265445Y-85468548D01*
X68282476Y-85482524D01*
X68296452Y-85499555D01*
X68306840Y-85518991D01*
X68313236Y-85540072D01*
X68316000Y-85568140D01*
X68316000Y-87381860D01*
X68313236Y-87409928D01*
X68306840Y-87431009D01*
X68296452Y-87450445D01*
X68282476Y-87467476D01*
X68265445Y-87481452D01*
X68246009Y-87491840D01*
X68224928Y-87498236D01*
X68196860Y-87501000D01*
X67733140Y-87501000D01*
X67705072Y-87498236D01*
X67683991Y-87491840D01*
X67664555Y-87481452D01*
X67647524Y-87467476D01*
X67633548Y-87450445D01*
X67623160Y-87431009D01*
X67616764Y-87409928D01*
X67614000Y-87381860D01*
X67614000Y-85568140D01*
X67616764Y-85540072D01*
X67623160Y-85518991D01*
X67633548Y-85499555D01*
X67647524Y-85482524D01*
X67664555Y-85468548D01*
X67683991Y-85458160D01*
X67705072Y-85451764D01*
X67733140Y-85449000D01*
X68196860Y-85449000D01*
X68224928Y-85451764D01*
X68224928Y-85451764D01*
G37*
G36*
X69494928Y-85451764D02*
G01*
X69516009Y-85458160D01*
X69535445Y-85468548D01*
X69552476Y-85482524D01*
X69566452Y-85499555D01*
X69576840Y-85518991D01*
X69583236Y-85540072D01*
X69586000Y-85568140D01*
X69586000Y-87381860D01*
X69583236Y-87409928D01*
X69576840Y-87431009D01*
X69566452Y-87450445D01*
X69552476Y-87467476D01*
X69535445Y-87481452D01*
X69516009Y-87491840D01*
X69494928Y-87498236D01*
X69466860Y-87501000D01*
X69003140Y-87501000D01*
X68975072Y-87498236D01*
X68953991Y-87491840D01*
X68934555Y-87481452D01*
X68917524Y-87467476D01*
X68903548Y-87450445D01*
X68893160Y-87431009D01*
X68886764Y-87409928D01*
X68884000Y-87381860D01*
X68884000Y-85568140D01*
X68886764Y-85540072D01*
X68893160Y-85518991D01*
X68903548Y-85499555D01*
X68917524Y-85482524D01*
X68934555Y-85468548D01*
X68953991Y-85458160D01*
X68975072Y-85451764D01*
X69003140Y-85449000D01*
X69466860Y-85449000D01*
X69494928Y-85451764D01*
X69494928Y-85451764D01*
G37*
G36*
X87364499Y-85678445D02*
G01*
X87401995Y-85689820D01*
X87436554Y-85708292D01*
X87466847Y-85733153D01*
X87491708Y-85763446D01*
X87510180Y-85798005D01*
X87521555Y-85835501D01*
X87526000Y-85880638D01*
X87526000Y-86619362D01*
X87521555Y-86664499D01*
X87510180Y-86701995D01*
X87491708Y-86736554D01*
X87466847Y-86766847D01*
X87436554Y-86791708D01*
X87401995Y-86810180D01*
X87364499Y-86821555D01*
X87319362Y-86826000D01*
X86680638Y-86826000D01*
X86635501Y-86821555D01*
X86598005Y-86810180D01*
X86563446Y-86791708D01*
X86533153Y-86766847D01*
X86508292Y-86736554D01*
X86489820Y-86701995D01*
X86478445Y-86664499D01*
X86474000Y-86619362D01*
X86474000Y-85880638D01*
X86478445Y-85835501D01*
X86489820Y-85798005D01*
X86508292Y-85763446D01*
X86533153Y-85733153D01*
X86563446Y-85708292D01*
X86598005Y-85689820D01*
X86635501Y-85678445D01*
X86680638Y-85674000D01*
X87319362Y-85674000D01*
X87364499Y-85678445D01*
X87364499Y-85678445D01*
G37*
G36*
X60394072Y-83700918D02*
G01*
X60639939Y-83802759D01*
X60751328Y-83877187D01*
X60861211Y-83950609D01*
X61049391Y-84138789D01*
X61197242Y-84360063D01*
X61299082Y-84605928D01*
X61351000Y-84866937D01*
X61351000Y-85133063D01*
X61299082Y-85394072D01*
X61255039Y-85500403D01*
X61197241Y-85639939D01*
X61049390Y-85861212D01*
X60861212Y-86049390D01*
X60639939Y-86197241D01*
X60639938Y-86197242D01*
X60639937Y-86197242D01*
X60394072Y-86299082D01*
X60133063Y-86351000D01*
X59866937Y-86351000D01*
X59605928Y-86299082D01*
X59360063Y-86197242D01*
X59360062Y-86197242D01*
X59360061Y-86197241D01*
X59138788Y-86049390D01*
X58950610Y-85861212D01*
X58802759Y-85639939D01*
X58744962Y-85500403D01*
X58700918Y-85394072D01*
X58649000Y-85133063D01*
X58649000Y-84866937D01*
X58700918Y-84605928D01*
X58802758Y-84360063D01*
X58950609Y-84138789D01*
X59138789Y-83950609D01*
X59248672Y-83877187D01*
X59360061Y-83802759D01*
X59605928Y-83700918D01*
X59866937Y-83649000D01*
X60133063Y-83649000D01*
X60394072Y-83700918D01*
X60394072Y-83700918D01*
G37*
G36*
X40394072Y-83700918D02*
G01*
X40639939Y-83802759D01*
X40751328Y-83877187D01*
X40861211Y-83950609D01*
X41049391Y-84138789D01*
X41197242Y-84360063D01*
X41299082Y-84605928D01*
X41351000Y-84866937D01*
X41351000Y-85133063D01*
X41299082Y-85394072D01*
X41255039Y-85500403D01*
X41197241Y-85639939D01*
X41049390Y-85861212D01*
X40861212Y-86049390D01*
X40639939Y-86197241D01*
X40639938Y-86197242D01*
X40639937Y-86197242D01*
X40394072Y-86299082D01*
X40133063Y-86351000D01*
X39866937Y-86351000D01*
X39605928Y-86299082D01*
X39360063Y-86197242D01*
X39360062Y-86197242D01*
X39360061Y-86197241D01*
X39138788Y-86049390D01*
X38950610Y-85861212D01*
X38802759Y-85639939D01*
X38744962Y-85500403D01*
X38700918Y-85394072D01*
X38649000Y-85133063D01*
X38649000Y-84866937D01*
X38700918Y-84605928D01*
X38802758Y-84360063D01*
X38950609Y-84138789D01*
X39138789Y-83950609D01*
X39248672Y-83877187D01*
X39360061Y-83802759D01*
X39605928Y-83700918D01*
X39866937Y-83649000D01*
X40133063Y-83649000D01*
X40394072Y-83700918D01*
X40394072Y-83700918D01*
G37*
G36*
X97808015Y-85136973D02*
G01*
X97911879Y-85168479D01*
X97939055Y-85183005D01*
X98007600Y-85219643D01*
X98091501Y-85288499D01*
X98160357Y-85372400D01*
X98196995Y-85440945D01*
X98211521Y-85468121D01*
X98243027Y-85571985D01*
X98253666Y-85680000D01*
X98243027Y-85788015D01*
X98211521Y-85891879D01*
X98211519Y-85891882D01*
X98160357Y-85987600D01*
X98091501Y-86071501D01*
X98007600Y-86140357D01*
X97939055Y-86176995D01*
X97911879Y-86191521D01*
X97808015Y-86223027D01*
X97727067Y-86231000D01*
X97072933Y-86231000D01*
X96991985Y-86223027D01*
X96888121Y-86191521D01*
X96860945Y-86176995D01*
X96792400Y-86140357D01*
X96708499Y-86071501D01*
X96639643Y-85987600D01*
X96588481Y-85891882D01*
X96588479Y-85891879D01*
X96556973Y-85788015D01*
X96546334Y-85680000D01*
X96556973Y-85571985D01*
X96588479Y-85468121D01*
X96603005Y-85440945D01*
X96639643Y-85372400D01*
X96708499Y-85288499D01*
X96792400Y-85219643D01*
X96860945Y-85183005D01*
X96888121Y-85168479D01*
X96991985Y-85136973D01*
X97072933Y-85129000D01*
X97727067Y-85129000D01*
X97808015Y-85136973D01*
X97808015Y-85136973D01*
G37*
G36*
X83651000Y-85201000D02*
G01*
X82349000Y-85201000D01*
X82349000Y-84199000D01*
X83651000Y-84199000D01*
X83651000Y-85201000D01*
X83651000Y-85201000D01*
G37*
G36*
X90364499Y-82428445D02*
G01*
X90401995Y-82439820D01*
X90436554Y-82458292D01*
X90466847Y-82483153D01*
X90491708Y-82513446D01*
X90510180Y-82548005D01*
X90521555Y-82585501D01*
X90526000Y-82630638D01*
X90526000Y-83369362D01*
X90521555Y-83414499D01*
X90510180Y-83451995D01*
X90491708Y-83486554D01*
X90466847Y-83516847D01*
X90436554Y-83541708D01*
X90401995Y-83560180D01*
X90364499Y-83571555D01*
X90319362Y-83576000D01*
X89680638Y-83576000D01*
X89635501Y-83571555D01*
X89598005Y-83560180D01*
X89563446Y-83541708D01*
X89533153Y-83516847D01*
X89508292Y-83486554D01*
X89489820Y-83451995D01*
X89478445Y-83414499D01*
X89474000Y-83369362D01*
X89474000Y-82630638D01*
X89478445Y-82585501D01*
X89489820Y-82548005D01*
X89508292Y-82513446D01*
X89533153Y-82483153D01*
X89563446Y-82458292D01*
X89598005Y-82439820D01*
X89635501Y-82428445D01*
X89680638Y-82424000D01*
X90319362Y-82424000D01*
X90364499Y-82428445D01*
X90364499Y-82428445D01*
G37*
G36*
X93496968Y-81853565D02*
G01*
X93535638Y-81865296D01*
X93571277Y-81884346D01*
X93602517Y-81909983D01*
X93628154Y-81941223D01*
X93647204Y-81976862D01*
X93658935Y-82015532D01*
X93663500Y-82061888D01*
X93663500Y-83138112D01*
X93658935Y-83184468D01*
X93647204Y-83223138D01*
X93628154Y-83258777D01*
X93602517Y-83290017D01*
X93571277Y-83315654D01*
X93535638Y-83334704D01*
X93496968Y-83346435D01*
X93450612Y-83351000D01*
X92799388Y-83351000D01*
X92753032Y-83346435D01*
X92714362Y-83334704D01*
X92678723Y-83315654D01*
X92647483Y-83290017D01*
X92621846Y-83258777D01*
X92602796Y-83223138D01*
X92591065Y-83184468D01*
X92586500Y-83138112D01*
X92586500Y-82061888D01*
X92591065Y-82015532D01*
X92602796Y-81976862D01*
X92621846Y-81941223D01*
X92647483Y-81909983D01*
X92678723Y-81884346D01*
X92714362Y-81865296D01*
X92753032Y-81853565D01*
X92799388Y-81849000D01*
X93450612Y-81849000D01*
X93496968Y-81853565D01*
X93496968Y-81853565D01*
G37*
G36*
X95371968Y-81853565D02*
G01*
X95410638Y-81865296D01*
X95446277Y-81884346D01*
X95477517Y-81909983D01*
X95503154Y-81941223D01*
X95522204Y-81976862D01*
X95533935Y-82015532D01*
X95538500Y-82061888D01*
X95538500Y-83138112D01*
X95533935Y-83184468D01*
X95522204Y-83223138D01*
X95503154Y-83258777D01*
X95477517Y-83290017D01*
X95446277Y-83315654D01*
X95410638Y-83334704D01*
X95371968Y-83346435D01*
X95325612Y-83351000D01*
X94674388Y-83351000D01*
X94628032Y-83346435D01*
X94589362Y-83334704D01*
X94553723Y-83315654D01*
X94522483Y-83290017D01*
X94496846Y-83258777D01*
X94477796Y-83223138D01*
X94466065Y-83184468D01*
X94461500Y-83138112D01*
X94461500Y-82061888D01*
X94466065Y-82015532D01*
X94477796Y-81976862D01*
X94496846Y-81941223D01*
X94522483Y-81909983D01*
X94553723Y-81884346D01*
X94589362Y-81865296D01*
X94628032Y-81853565D01*
X94674388Y-81849000D01*
X95325612Y-81849000D01*
X95371968Y-81853565D01*
X95371968Y-81853565D01*
G37*
G36*
X70764928Y-80501764D02*
G01*
X70786009Y-80508160D01*
X70805445Y-80518548D01*
X70822476Y-80532524D01*
X70836452Y-80549555D01*
X70846840Y-80568991D01*
X70853236Y-80590072D01*
X70856000Y-80618140D01*
X70856000Y-82431860D01*
X70853236Y-82459928D01*
X70846840Y-82481009D01*
X70836452Y-82500445D01*
X70822476Y-82517476D01*
X70805445Y-82531452D01*
X70786009Y-82541840D01*
X70764928Y-82548236D01*
X70736860Y-82551000D01*
X70273140Y-82551000D01*
X70245072Y-82548236D01*
X70223991Y-82541840D01*
X70204555Y-82531452D01*
X70187524Y-82517476D01*
X70173548Y-82500445D01*
X70163160Y-82481009D01*
X70156764Y-82459928D01*
X70154000Y-82431860D01*
X70154000Y-80618140D01*
X70156764Y-80590072D01*
X70163160Y-80568991D01*
X70173548Y-80549555D01*
X70187524Y-80532524D01*
X70204555Y-80518548D01*
X70223991Y-80508160D01*
X70245072Y-80501764D01*
X70273140Y-80499000D01*
X70736860Y-80499000D01*
X70764928Y-80501764D01*
X70764928Y-80501764D01*
G37*
G36*
X66954928Y-80501764D02*
G01*
X66976009Y-80508160D01*
X66995445Y-80518548D01*
X67012476Y-80532524D01*
X67026452Y-80549555D01*
X67036840Y-80568991D01*
X67043236Y-80590072D01*
X67046000Y-80618140D01*
X67046000Y-82431860D01*
X67043236Y-82459928D01*
X67036840Y-82481009D01*
X67026452Y-82500445D01*
X67012476Y-82517476D01*
X66995445Y-82531452D01*
X66976009Y-82541840D01*
X66954928Y-82548236D01*
X66926860Y-82551000D01*
X66463140Y-82551000D01*
X66435072Y-82548236D01*
X66413991Y-82541840D01*
X66394555Y-82531452D01*
X66377524Y-82517476D01*
X66363548Y-82500445D01*
X66353160Y-82481009D01*
X66346764Y-82459928D01*
X66344000Y-82431860D01*
X66344000Y-80618140D01*
X66346764Y-80590072D01*
X66353160Y-80568991D01*
X66363548Y-80549555D01*
X66377524Y-80532524D01*
X66394555Y-80518548D01*
X66413991Y-80508160D01*
X66435072Y-80501764D01*
X66463140Y-80499000D01*
X66926860Y-80499000D01*
X66954928Y-80501764D01*
X66954928Y-80501764D01*
G37*
G36*
X68224928Y-80501764D02*
G01*
X68246009Y-80508160D01*
X68265445Y-80518548D01*
X68282476Y-80532524D01*
X68296452Y-80549555D01*
X68306840Y-80568991D01*
X68313236Y-80590072D01*
X68316000Y-80618140D01*
X68316000Y-82431860D01*
X68313236Y-82459928D01*
X68306840Y-82481009D01*
X68296452Y-82500445D01*
X68282476Y-82517476D01*
X68265445Y-82531452D01*
X68246009Y-82541840D01*
X68224928Y-82548236D01*
X68196860Y-82551000D01*
X67733140Y-82551000D01*
X67705072Y-82548236D01*
X67683991Y-82541840D01*
X67664555Y-82531452D01*
X67647524Y-82517476D01*
X67633548Y-82500445D01*
X67623160Y-82481009D01*
X67616764Y-82459928D01*
X67614000Y-82431860D01*
X67614000Y-80618140D01*
X67616764Y-80590072D01*
X67623160Y-80568991D01*
X67633548Y-80549555D01*
X67647524Y-80532524D01*
X67664555Y-80518548D01*
X67683991Y-80508160D01*
X67705072Y-80501764D01*
X67733140Y-80499000D01*
X68196860Y-80499000D01*
X68224928Y-80501764D01*
X68224928Y-80501764D01*
G37*
G36*
X69494928Y-80501764D02*
G01*
X69516009Y-80508160D01*
X69535445Y-80518548D01*
X69552476Y-80532524D01*
X69566452Y-80549555D01*
X69576840Y-80568991D01*
X69583236Y-80590072D01*
X69586000Y-80618140D01*
X69586000Y-82431860D01*
X69583236Y-82459928D01*
X69576840Y-82481009D01*
X69566452Y-82500445D01*
X69552476Y-82517476D01*
X69535445Y-82531452D01*
X69516009Y-82541840D01*
X69494928Y-82548236D01*
X69466860Y-82551000D01*
X69003140Y-82551000D01*
X68975072Y-82548236D01*
X68953991Y-82541840D01*
X68934555Y-82531452D01*
X68917524Y-82517476D01*
X68903548Y-82500445D01*
X68893160Y-82481009D01*
X68886764Y-82459928D01*
X68884000Y-82431860D01*
X68884000Y-80618140D01*
X68886764Y-80590072D01*
X68893160Y-80568991D01*
X68903548Y-80549555D01*
X68917524Y-80532524D01*
X68934555Y-80518548D01*
X68953991Y-80508160D01*
X68975072Y-80501764D01*
X69003140Y-80499000D01*
X69466860Y-80499000D01*
X69494928Y-80501764D01*
X69494928Y-80501764D01*
G37*
G36*
X86289499Y-81478445D02*
G01*
X86326995Y-81489820D01*
X86361554Y-81508292D01*
X86391847Y-81533153D01*
X86416708Y-81563446D01*
X86435180Y-81598005D01*
X86446555Y-81635501D01*
X86451000Y-81680638D01*
X86451000Y-82319362D01*
X86446555Y-82364499D01*
X86435180Y-82401995D01*
X86416708Y-82436554D01*
X86391847Y-82466847D01*
X86361554Y-82491708D01*
X86326995Y-82510180D01*
X86289499Y-82521555D01*
X86244362Y-82526000D01*
X85505638Y-82526000D01*
X85460501Y-82521555D01*
X85423005Y-82510180D01*
X85388446Y-82491708D01*
X85358153Y-82466847D01*
X85333292Y-82436554D01*
X85314820Y-82401995D01*
X85303445Y-82364499D01*
X85299000Y-82319362D01*
X85299000Y-81680638D01*
X85303445Y-81635501D01*
X85314820Y-81598005D01*
X85333292Y-81563446D01*
X85358153Y-81533153D01*
X85388446Y-81508292D01*
X85423005Y-81489820D01*
X85460501Y-81478445D01*
X85505638Y-81474000D01*
X86244362Y-81474000D01*
X86289499Y-81478445D01*
X86289499Y-81478445D01*
G37*
G36*
X84539499Y-81478445D02*
G01*
X84576995Y-81489820D01*
X84611554Y-81508292D01*
X84641847Y-81533153D01*
X84666708Y-81563446D01*
X84685180Y-81598005D01*
X84696555Y-81635501D01*
X84701000Y-81680638D01*
X84701000Y-82319362D01*
X84696555Y-82364499D01*
X84685180Y-82401995D01*
X84666708Y-82436554D01*
X84641847Y-82466847D01*
X84611554Y-82491708D01*
X84576995Y-82510180D01*
X84539499Y-82521555D01*
X84494362Y-82526000D01*
X83755638Y-82526000D01*
X83710501Y-82521555D01*
X83673005Y-82510180D01*
X83638446Y-82491708D01*
X83608153Y-82466847D01*
X83583292Y-82436554D01*
X83564820Y-82401995D01*
X83553445Y-82364499D01*
X83549000Y-82319362D01*
X83549000Y-81680638D01*
X83553445Y-81635501D01*
X83564820Y-81598005D01*
X83583292Y-81563446D01*
X83608153Y-81533153D01*
X83638446Y-81508292D01*
X83673005Y-81489820D01*
X83710501Y-81478445D01*
X83755638Y-81474000D01*
X84494362Y-81474000D01*
X84539499Y-81478445D01*
X84539499Y-81478445D01*
G37*
G36*
X90364499Y-80678445D02*
G01*
X90401995Y-80689820D01*
X90436554Y-80708292D01*
X90466847Y-80733153D01*
X90491708Y-80763446D01*
X90510180Y-80798005D01*
X90521555Y-80835501D01*
X90526000Y-80880638D01*
X90526000Y-81619362D01*
X90521555Y-81664499D01*
X90510180Y-81701995D01*
X90491708Y-81736554D01*
X90466847Y-81766847D01*
X90436554Y-81791708D01*
X90401995Y-81810180D01*
X90364499Y-81821555D01*
X90319362Y-81826000D01*
X89680638Y-81826000D01*
X89635501Y-81821555D01*
X89598005Y-81810180D01*
X89563446Y-81791708D01*
X89533153Y-81766847D01*
X89508292Y-81736554D01*
X89489820Y-81701995D01*
X89478445Y-81664499D01*
X89474000Y-81619362D01*
X89474000Y-80880638D01*
X89478445Y-80835501D01*
X89489820Y-80798005D01*
X89508292Y-80763446D01*
X89533153Y-80733153D01*
X89563446Y-80708292D01*
X89598005Y-80689820D01*
X89635501Y-80678445D01*
X89680638Y-80674000D01*
X90319362Y-80674000D01*
X90364499Y-80678445D01*
X90364499Y-80678445D01*
G37*
G36*
X76164499Y-79178445D02*
G01*
X76201995Y-79189820D01*
X76236554Y-79208292D01*
X76266847Y-79233153D01*
X76291708Y-79263446D01*
X76310180Y-79298005D01*
X76321555Y-79335501D01*
X76326000Y-79380638D01*
X76326000Y-80119362D01*
X76321555Y-80164499D01*
X76310180Y-80201995D01*
X76291708Y-80236554D01*
X76266847Y-80266847D01*
X76236554Y-80291708D01*
X76201995Y-80310180D01*
X76164499Y-80321555D01*
X76119362Y-80326000D01*
X75480638Y-80326000D01*
X75435501Y-80321555D01*
X75398005Y-80310180D01*
X75363446Y-80291708D01*
X75333153Y-80266847D01*
X75308292Y-80236554D01*
X75289820Y-80201995D01*
X75278445Y-80164499D01*
X75274000Y-80119362D01*
X75274000Y-79380638D01*
X75278445Y-79335501D01*
X75289820Y-79298005D01*
X75308292Y-79263446D01*
X75333153Y-79233153D01*
X75363446Y-79208292D01*
X75398005Y-79189820D01*
X75435501Y-79178445D01*
X75480638Y-79174000D01*
X76119362Y-79174000D01*
X76164499Y-79178445D01*
X76164499Y-79178445D01*
G37*
G36*
X97110442Y-78185518D02*
G01*
X97176627Y-78192037D01*
X97346466Y-78243557D01*
X97502991Y-78327222D01*
X97538729Y-78356552D01*
X97640186Y-78439814D01*
X97703404Y-78516847D01*
X97752778Y-78577009D01*
X97836443Y-78733534D01*
X97887963Y-78903373D01*
X97905359Y-79080000D01*
X97887963Y-79256627D01*
X97836443Y-79426466D01*
X97752778Y-79582991D01*
X97723448Y-79618729D01*
X97640186Y-79720186D01*
X97538729Y-79803448D01*
X97502991Y-79832778D01*
X97346466Y-79916443D01*
X97176627Y-79967963D01*
X97110443Y-79974481D01*
X97044260Y-79981000D01*
X96955740Y-79981000D01*
X96889557Y-79974481D01*
X96823373Y-79967963D01*
X96653534Y-79916443D01*
X96497009Y-79832778D01*
X96461271Y-79803448D01*
X96359814Y-79720186D01*
X96276552Y-79618729D01*
X96247222Y-79582991D01*
X96163557Y-79426466D01*
X96112037Y-79256627D01*
X96094641Y-79080000D01*
X96112037Y-78903373D01*
X96163557Y-78733534D01*
X96247222Y-78577009D01*
X96296596Y-78516847D01*
X96359814Y-78439814D01*
X96461271Y-78356552D01*
X96497009Y-78327222D01*
X96653534Y-78243557D01*
X96823373Y-78192037D01*
X96889558Y-78185518D01*
X96955740Y-78179000D01*
X97044260Y-78179000D01*
X97110442Y-78185518D01*
X97110442Y-78185518D01*
G37*
G36*
X94570442Y-78185518D02*
G01*
X94636627Y-78192037D01*
X94806466Y-78243557D01*
X94962991Y-78327222D01*
X94998729Y-78356552D01*
X95100186Y-78439814D01*
X95163404Y-78516847D01*
X95212778Y-78577009D01*
X95296443Y-78733534D01*
X95347963Y-78903373D01*
X95365359Y-79080000D01*
X95347963Y-79256627D01*
X95296443Y-79426466D01*
X95212778Y-79582991D01*
X95183448Y-79618729D01*
X95100186Y-79720186D01*
X94998729Y-79803448D01*
X94962991Y-79832778D01*
X94806466Y-79916443D01*
X94636627Y-79967963D01*
X94570443Y-79974481D01*
X94504260Y-79981000D01*
X94415740Y-79981000D01*
X94349557Y-79974481D01*
X94283373Y-79967963D01*
X94113534Y-79916443D01*
X93957009Y-79832778D01*
X93921271Y-79803448D01*
X93819814Y-79720186D01*
X93736552Y-79618729D01*
X93707222Y-79582991D01*
X93623557Y-79426466D01*
X93572037Y-79256627D01*
X93554641Y-79080000D01*
X93572037Y-78903373D01*
X93623557Y-78733534D01*
X93707222Y-78577009D01*
X93756596Y-78516847D01*
X93819814Y-78439814D01*
X93921271Y-78356552D01*
X93957009Y-78327222D01*
X94113534Y-78243557D01*
X94283373Y-78192037D01*
X94349558Y-78185518D01*
X94415740Y-78179000D01*
X94504260Y-78179000D01*
X94570442Y-78185518D01*
X94570442Y-78185518D01*
G37*
G36*
X76164499Y-77428445D02*
G01*
X76201995Y-77439820D01*
X76236554Y-77458292D01*
X76266847Y-77483153D01*
X76291708Y-77513446D01*
X76310180Y-77548005D01*
X76321555Y-77585501D01*
X76326000Y-77630638D01*
X76326000Y-78369362D01*
X76321555Y-78414499D01*
X76310180Y-78451995D01*
X76291708Y-78486554D01*
X76266847Y-78516847D01*
X76236554Y-78541708D01*
X76201995Y-78560180D01*
X76164499Y-78571555D01*
X76119362Y-78576000D01*
X75480638Y-78576000D01*
X75435501Y-78571555D01*
X75398005Y-78560180D01*
X75363446Y-78541708D01*
X75333153Y-78516847D01*
X75308292Y-78486554D01*
X75289820Y-78451995D01*
X75278445Y-78414499D01*
X75274000Y-78369362D01*
X75274000Y-77630638D01*
X75278445Y-77585501D01*
X75289820Y-77548005D01*
X75308292Y-77513446D01*
X75333153Y-77483153D01*
X75363446Y-77458292D01*
X75398005Y-77439820D01*
X75435501Y-77428445D01*
X75480638Y-77424000D01*
X76119362Y-77424000D01*
X76164499Y-77428445D01*
X76164499Y-77428445D01*
G37*
G36*
X64414499Y-77478445D02*
G01*
X64451995Y-77489820D01*
X64486554Y-77508292D01*
X64516847Y-77533153D01*
X64541708Y-77563446D01*
X64560180Y-77598005D01*
X64571555Y-77635501D01*
X64576000Y-77680638D01*
X64576000Y-78319362D01*
X64571555Y-78364499D01*
X64560180Y-78401995D01*
X64541708Y-78436554D01*
X64516847Y-78466847D01*
X64486554Y-78491708D01*
X64451995Y-78510180D01*
X64414499Y-78521555D01*
X64369362Y-78526000D01*
X63630638Y-78526000D01*
X63585501Y-78521555D01*
X63548005Y-78510180D01*
X63513446Y-78491708D01*
X63483153Y-78466847D01*
X63458292Y-78436554D01*
X63439820Y-78401995D01*
X63428445Y-78364499D01*
X63424000Y-78319362D01*
X63424000Y-77680638D01*
X63428445Y-77635501D01*
X63439820Y-77598005D01*
X63458292Y-77563446D01*
X63483153Y-77533153D01*
X63513446Y-77508292D01*
X63548005Y-77489820D01*
X63585501Y-77478445D01*
X63630638Y-77474000D01*
X64369362Y-77474000D01*
X64414499Y-77478445D01*
X64414499Y-77478445D01*
G37*
G36*
X69164499Y-77478445D02*
G01*
X69201995Y-77489820D01*
X69236554Y-77508292D01*
X69266847Y-77533153D01*
X69291708Y-77563446D01*
X69310180Y-77598005D01*
X69321555Y-77635501D01*
X69326000Y-77680638D01*
X69326000Y-78319362D01*
X69321555Y-78364499D01*
X69310180Y-78401995D01*
X69291708Y-78436554D01*
X69266847Y-78466847D01*
X69236554Y-78491708D01*
X69201995Y-78510180D01*
X69164499Y-78521555D01*
X69119362Y-78526000D01*
X68380638Y-78526000D01*
X68335501Y-78521555D01*
X68298005Y-78510180D01*
X68263446Y-78491708D01*
X68233153Y-78466847D01*
X68208292Y-78436554D01*
X68189820Y-78401995D01*
X68178445Y-78364499D01*
X68174000Y-78319362D01*
X68174000Y-77680638D01*
X68178445Y-77635501D01*
X68189820Y-77598005D01*
X68208292Y-77563446D01*
X68233153Y-77533153D01*
X68263446Y-77508292D01*
X68298005Y-77489820D01*
X68335501Y-77478445D01*
X68380638Y-77474000D01*
X69119362Y-77474000D01*
X69164499Y-77478445D01*
X69164499Y-77478445D01*
G37*
G36*
X67414499Y-77478445D02*
G01*
X67451995Y-77489820D01*
X67486554Y-77508292D01*
X67516847Y-77533153D01*
X67541708Y-77563446D01*
X67560180Y-77598005D01*
X67571555Y-77635501D01*
X67576000Y-77680638D01*
X67576000Y-78319362D01*
X67571555Y-78364499D01*
X67560180Y-78401995D01*
X67541708Y-78436554D01*
X67516847Y-78466847D01*
X67486554Y-78491708D01*
X67451995Y-78510180D01*
X67414499Y-78521555D01*
X67369362Y-78526000D01*
X66630638Y-78526000D01*
X66585501Y-78521555D01*
X66548005Y-78510180D01*
X66513446Y-78491708D01*
X66483153Y-78466847D01*
X66458292Y-78436554D01*
X66439820Y-78401995D01*
X66428445Y-78364499D01*
X66424000Y-78319362D01*
X66424000Y-77680638D01*
X66428445Y-77635501D01*
X66439820Y-77598005D01*
X66458292Y-77563446D01*
X66483153Y-77533153D01*
X66513446Y-77508292D01*
X66548005Y-77489820D01*
X66585501Y-77478445D01*
X66630638Y-77474000D01*
X67369362Y-77474000D01*
X67414499Y-77478445D01*
X67414499Y-77478445D01*
G37*
G36*
X62664499Y-77478445D02*
G01*
X62701995Y-77489820D01*
X62736554Y-77508292D01*
X62766847Y-77533153D01*
X62791708Y-77563446D01*
X62810180Y-77598005D01*
X62821555Y-77635501D01*
X62826000Y-77680638D01*
X62826000Y-78319362D01*
X62821555Y-78364499D01*
X62810180Y-78401995D01*
X62791708Y-78436554D01*
X62766847Y-78466847D01*
X62736554Y-78491708D01*
X62701995Y-78510180D01*
X62664499Y-78521555D01*
X62619362Y-78526000D01*
X61880638Y-78526000D01*
X61835501Y-78521555D01*
X61798005Y-78510180D01*
X61763446Y-78491708D01*
X61733153Y-78466847D01*
X61708292Y-78436554D01*
X61689820Y-78401995D01*
X61678445Y-78364499D01*
X61674000Y-78319362D01*
X61674000Y-77680638D01*
X61678445Y-77635501D01*
X61689820Y-77598005D01*
X61708292Y-77563446D01*
X61733153Y-77533153D01*
X61763446Y-77508292D01*
X61798005Y-77489820D01*
X61835501Y-77478445D01*
X61880638Y-77474000D01*
X62619362Y-77474000D01*
X62664499Y-77478445D01*
X62664499Y-77478445D01*
G37*
G36*
X94570442Y-75645518D02*
G01*
X94636627Y-75652037D01*
X94806466Y-75703557D01*
X94962991Y-75787222D01*
X94996762Y-75814937D01*
X95100186Y-75899814D01*
X95179470Y-75996423D01*
X95212778Y-76037009D01*
X95296443Y-76193534D01*
X95347963Y-76363373D01*
X95365359Y-76540000D01*
X95347963Y-76716627D01*
X95296443Y-76886466D01*
X95212778Y-77042991D01*
X95194829Y-77064862D01*
X95100186Y-77180186D01*
X94998729Y-77263448D01*
X94962991Y-77292778D01*
X94806466Y-77376443D01*
X94636627Y-77427963D01*
X94570442Y-77434482D01*
X94504260Y-77441000D01*
X94415740Y-77441000D01*
X94349558Y-77434482D01*
X94283373Y-77427963D01*
X94113534Y-77376443D01*
X93957009Y-77292778D01*
X93921271Y-77263448D01*
X93819814Y-77180186D01*
X93725171Y-77064862D01*
X93707222Y-77042991D01*
X93623557Y-76886466D01*
X93572037Y-76716627D01*
X93554641Y-76540000D01*
X93572037Y-76363373D01*
X93623557Y-76193534D01*
X93707222Y-76037009D01*
X93740530Y-75996423D01*
X93819814Y-75899814D01*
X93923238Y-75814937D01*
X93957009Y-75787222D01*
X94113534Y-75703557D01*
X94283373Y-75652037D01*
X94349558Y-75645518D01*
X94415740Y-75639000D01*
X94504260Y-75639000D01*
X94570442Y-75645518D01*
X94570442Y-75645518D01*
G37*
G36*
X97110442Y-75645518D02*
G01*
X97176627Y-75652037D01*
X97346466Y-75703557D01*
X97502991Y-75787222D01*
X97536762Y-75814937D01*
X97640186Y-75899814D01*
X97719470Y-75996423D01*
X97752778Y-76037009D01*
X97836443Y-76193534D01*
X97887963Y-76363373D01*
X97905359Y-76540000D01*
X97887963Y-76716627D01*
X97836443Y-76886466D01*
X97752778Y-77042991D01*
X97734829Y-77064862D01*
X97640186Y-77180186D01*
X97538729Y-77263448D01*
X97502991Y-77292778D01*
X97346466Y-77376443D01*
X97176627Y-77427963D01*
X97110442Y-77434482D01*
X97044260Y-77441000D01*
X96955740Y-77441000D01*
X96889558Y-77434482D01*
X96823373Y-77427963D01*
X96653534Y-77376443D01*
X96497009Y-77292778D01*
X96461271Y-77263448D01*
X96359814Y-77180186D01*
X96265171Y-77064862D01*
X96247222Y-77042991D01*
X96163557Y-76886466D01*
X96112037Y-76716627D01*
X96094641Y-76540000D01*
X96112037Y-76363373D01*
X96163557Y-76193534D01*
X96247222Y-76037009D01*
X96280530Y-75996423D01*
X96359814Y-75899814D01*
X96463238Y-75814937D01*
X96497009Y-75787222D01*
X96653534Y-75703557D01*
X96823373Y-75652037D01*
X96889558Y-75645518D01*
X96955740Y-75639000D01*
X97044260Y-75639000D01*
X97110442Y-75645518D01*
X97110442Y-75645518D01*
G37*
G36*
X89555997Y-75553051D02*
G01*
X89589652Y-75563261D01*
X89620665Y-75579838D01*
X89647851Y-75602149D01*
X89670162Y-75629335D01*
X89686739Y-75660348D01*
X89696949Y-75694003D01*
X89701000Y-75735138D01*
X89701000Y-77064862D01*
X89696949Y-77105997D01*
X89686739Y-77139652D01*
X89670162Y-77170665D01*
X89647851Y-77197851D01*
X89620665Y-77220162D01*
X89589652Y-77236739D01*
X89555997Y-77246949D01*
X89514862Y-77251000D01*
X86285138Y-77251000D01*
X86244003Y-77246949D01*
X86210348Y-77236739D01*
X86179335Y-77220162D01*
X86152149Y-77197851D01*
X86129838Y-77170665D01*
X86113261Y-77139652D01*
X86103051Y-77105997D01*
X86099000Y-77064862D01*
X86099000Y-75735138D01*
X86103051Y-75694003D01*
X86113261Y-75660348D01*
X86129838Y-75629335D01*
X86152149Y-75602149D01*
X86179335Y-75579838D01*
X86210348Y-75563261D01*
X86244003Y-75553051D01*
X86285138Y-75549000D01*
X89514862Y-75549000D01*
X89555997Y-75553051D01*
X89555997Y-75553051D01*
G37*
G36*
X84155997Y-75553051D02*
G01*
X84189652Y-75563261D01*
X84220665Y-75579838D01*
X84247851Y-75602149D01*
X84270162Y-75629335D01*
X84286739Y-75660348D01*
X84296949Y-75694003D01*
X84301000Y-75735138D01*
X84301000Y-77064862D01*
X84296949Y-77105997D01*
X84286739Y-77139652D01*
X84270162Y-77170665D01*
X84247851Y-77197851D01*
X84220665Y-77220162D01*
X84189652Y-77236739D01*
X84155997Y-77246949D01*
X84114862Y-77251000D01*
X80885138Y-77251000D01*
X80844003Y-77246949D01*
X80810348Y-77236739D01*
X80779335Y-77220162D01*
X80752149Y-77197851D01*
X80729838Y-77170665D01*
X80713261Y-77139652D01*
X80703051Y-77105997D01*
X80699000Y-77064862D01*
X80699000Y-75735138D01*
X80703051Y-75694003D01*
X80713261Y-75660348D01*
X80729838Y-75629335D01*
X80752149Y-75602149D01*
X80779335Y-75579838D01*
X80810348Y-75563261D01*
X80844003Y-75553051D01*
X80885138Y-75549000D01*
X84114862Y-75549000D01*
X84155997Y-75553051D01*
X84155997Y-75553051D01*
G37*
G36*
X76069928Y-73976764D02*
G01*
X76091009Y-73983160D01*
X76110445Y-73993548D01*
X76127476Y-74007524D01*
X76141452Y-74024555D01*
X76151840Y-74043991D01*
X76158236Y-74065072D01*
X76161000Y-74093140D01*
X76161000Y-75906860D01*
X76158236Y-75934928D01*
X76151840Y-75956009D01*
X76141452Y-75975445D01*
X76127476Y-75992476D01*
X76110445Y-76006452D01*
X76091009Y-76016840D01*
X76069928Y-76023236D01*
X76041860Y-76026000D01*
X75578140Y-76026000D01*
X75550072Y-76023236D01*
X75528991Y-76016840D01*
X75509555Y-76006452D01*
X75492524Y-75992476D01*
X75478548Y-75975445D01*
X75468160Y-75956009D01*
X75461764Y-75934928D01*
X75459000Y-75906860D01*
X75459000Y-74093140D01*
X75461764Y-74065072D01*
X75468160Y-74043991D01*
X75478548Y-74024555D01*
X75492524Y-74007524D01*
X75509555Y-73993548D01*
X75528991Y-73983160D01*
X75550072Y-73976764D01*
X75578140Y-73974000D01*
X76041860Y-73974000D01*
X76069928Y-73976764D01*
X76069928Y-73976764D01*
G37*
G36*
X74799928Y-73976764D02*
G01*
X74821009Y-73983160D01*
X74840445Y-73993548D01*
X74857476Y-74007524D01*
X74871452Y-74024555D01*
X74881840Y-74043991D01*
X74888236Y-74065072D01*
X74891000Y-74093140D01*
X74891000Y-75906860D01*
X74888236Y-75934928D01*
X74881840Y-75956009D01*
X74871452Y-75975445D01*
X74857476Y-75992476D01*
X74840445Y-76006452D01*
X74821009Y-76016840D01*
X74799928Y-76023236D01*
X74771860Y-76026000D01*
X74308140Y-76026000D01*
X74280072Y-76023236D01*
X74258991Y-76016840D01*
X74239555Y-76006452D01*
X74222524Y-75992476D01*
X74208548Y-75975445D01*
X74198160Y-75956009D01*
X74191764Y-75934928D01*
X74189000Y-75906860D01*
X74189000Y-74093140D01*
X74191764Y-74065072D01*
X74198160Y-74043991D01*
X74208548Y-74024555D01*
X74222524Y-74007524D01*
X74239555Y-73993548D01*
X74258991Y-73983160D01*
X74280072Y-73976764D01*
X74308140Y-73974000D01*
X74771860Y-73974000D01*
X74799928Y-73976764D01*
X74799928Y-73976764D01*
G37*
G36*
X69719928Y-73976764D02*
G01*
X69741009Y-73983160D01*
X69760445Y-73993548D01*
X69777476Y-74007524D01*
X69791452Y-74024555D01*
X69801840Y-74043991D01*
X69808236Y-74065072D01*
X69811000Y-74093140D01*
X69811000Y-75906860D01*
X69808236Y-75934928D01*
X69801840Y-75956009D01*
X69791452Y-75975445D01*
X69777476Y-75992476D01*
X69760445Y-76006452D01*
X69741009Y-76016840D01*
X69719928Y-76023236D01*
X69691860Y-76026000D01*
X69228140Y-76026000D01*
X69200072Y-76023236D01*
X69178991Y-76016840D01*
X69159555Y-76006452D01*
X69142524Y-75992476D01*
X69128548Y-75975445D01*
X69118160Y-75956009D01*
X69111764Y-75934928D01*
X69109000Y-75906860D01*
X69109000Y-74093140D01*
X69111764Y-74065072D01*
X69118160Y-74043991D01*
X69128548Y-74024555D01*
X69142524Y-74007524D01*
X69159555Y-73993548D01*
X69178991Y-73983160D01*
X69200072Y-73976764D01*
X69228140Y-73974000D01*
X69691860Y-73974000D01*
X69719928Y-73976764D01*
X69719928Y-73976764D01*
G37*
G36*
X73529928Y-73976764D02*
G01*
X73551009Y-73983160D01*
X73570445Y-73993548D01*
X73587476Y-74007524D01*
X73601452Y-74024555D01*
X73611840Y-74043991D01*
X73618236Y-74065072D01*
X73621000Y-74093140D01*
X73621000Y-75906860D01*
X73618236Y-75934928D01*
X73611840Y-75956009D01*
X73601452Y-75975445D01*
X73587476Y-75992476D01*
X73570445Y-76006452D01*
X73551009Y-76016840D01*
X73529928Y-76023236D01*
X73501860Y-76026000D01*
X73038140Y-76026000D01*
X73010072Y-76023236D01*
X72988991Y-76016840D01*
X72969555Y-76006452D01*
X72952524Y-75992476D01*
X72938548Y-75975445D01*
X72928160Y-75956009D01*
X72921764Y-75934928D01*
X72919000Y-75906860D01*
X72919000Y-74093140D01*
X72921764Y-74065072D01*
X72928160Y-74043991D01*
X72938548Y-74024555D01*
X72952524Y-74007524D01*
X72969555Y-73993548D01*
X72988991Y-73983160D01*
X73010072Y-73976764D01*
X73038140Y-73974000D01*
X73501860Y-73974000D01*
X73529928Y-73976764D01*
X73529928Y-73976764D01*
G37*
G36*
X70989928Y-73976764D02*
G01*
X71011009Y-73983160D01*
X71030445Y-73993548D01*
X71047476Y-74007524D01*
X71061452Y-74024555D01*
X71071840Y-74043991D01*
X71078236Y-74065072D01*
X71081000Y-74093140D01*
X71081000Y-75906860D01*
X71078236Y-75934928D01*
X71071840Y-75956009D01*
X71061452Y-75975445D01*
X71047476Y-75992476D01*
X71030445Y-76006452D01*
X71011009Y-76016840D01*
X70989928Y-76023236D01*
X70961860Y-76026000D01*
X70498140Y-76026000D01*
X70470072Y-76023236D01*
X70448991Y-76016840D01*
X70429555Y-76006452D01*
X70412524Y-75992476D01*
X70398548Y-75975445D01*
X70388160Y-75956009D01*
X70381764Y-75934928D01*
X70379000Y-75906860D01*
X70379000Y-74093140D01*
X70381764Y-74065072D01*
X70388160Y-74043991D01*
X70398548Y-74024555D01*
X70412524Y-74007524D01*
X70429555Y-73993548D01*
X70448991Y-73983160D01*
X70470072Y-73976764D01*
X70498140Y-73974000D01*
X70961860Y-73974000D01*
X70989928Y-73976764D01*
X70989928Y-73976764D01*
G37*
G36*
X68449928Y-73976764D02*
G01*
X68471009Y-73983160D01*
X68490445Y-73993548D01*
X68507476Y-74007524D01*
X68521452Y-74024555D01*
X68531840Y-74043991D01*
X68538236Y-74065072D01*
X68541000Y-74093140D01*
X68541000Y-75906860D01*
X68538236Y-75934928D01*
X68531840Y-75956009D01*
X68521452Y-75975445D01*
X68507476Y-75992476D01*
X68490445Y-76006452D01*
X68471009Y-76016840D01*
X68449928Y-76023236D01*
X68421860Y-76026000D01*
X67958140Y-76026000D01*
X67930072Y-76023236D01*
X67908991Y-76016840D01*
X67889555Y-76006452D01*
X67872524Y-75992476D01*
X67858548Y-75975445D01*
X67848160Y-75956009D01*
X67841764Y-75934928D01*
X67839000Y-75906860D01*
X67839000Y-74093140D01*
X67841764Y-74065072D01*
X67848160Y-74043991D01*
X67858548Y-74024555D01*
X67872524Y-74007524D01*
X67889555Y-73993548D01*
X67908991Y-73983160D01*
X67930072Y-73976764D01*
X67958140Y-73974000D01*
X68421860Y-73974000D01*
X68449928Y-73976764D01*
X68449928Y-73976764D01*
G37*
G36*
X72259928Y-73976764D02*
G01*
X72281009Y-73983160D01*
X72300445Y-73993548D01*
X72317476Y-74007524D01*
X72331452Y-74024555D01*
X72341840Y-74043991D01*
X72348236Y-74065072D01*
X72351000Y-74093140D01*
X72351000Y-75906860D01*
X72348236Y-75934928D01*
X72341840Y-75956009D01*
X72331452Y-75975445D01*
X72317476Y-75992476D01*
X72300445Y-76006452D01*
X72281009Y-76016840D01*
X72259928Y-76023236D01*
X72231860Y-76026000D01*
X71768140Y-76026000D01*
X71740072Y-76023236D01*
X71718991Y-76016840D01*
X71699555Y-76006452D01*
X71682524Y-75992476D01*
X71668548Y-75975445D01*
X71658160Y-75956009D01*
X71651764Y-75934928D01*
X71649000Y-75906860D01*
X71649000Y-74093140D01*
X71651764Y-74065072D01*
X71658160Y-74043991D01*
X71668548Y-74024555D01*
X71682524Y-74007524D01*
X71699555Y-73993548D01*
X71718991Y-73983160D01*
X71740072Y-73976764D01*
X71768140Y-73974000D01*
X72231860Y-73974000D01*
X72259928Y-73976764D01*
X72259928Y-73976764D01*
G37*
G36*
X97901000Y-74901000D02*
G01*
X96099000Y-74901000D01*
X96099000Y-73099000D01*
X97901000Y-73099000D01*
X97901000Y-74901000D01*
X97901000Y-74901000D01*
G37*
G36*
X94570443Y-73105519D02*
G01*
X94636627Y-73112037D01*
X94806466Y-73163557D01*
X94962991Y-73247222D01*
X94998729Y-73276552D01*
X95100186Y-73359814D01*
X95183448Y-73461271D01*
X95212778Y-73497009D01*
X95296443Y-73653534D01*
X95347963Y-73823373D01*
X95365359Y-74000000D01*
X95347963Y-74176627D01*
X95296443Y-74346466D01*
X95212778Y-74502991D01*
X95197543Y-74521555D01*
X95100186Y-74640186D01*
X94998729Y-74723448D01*
X94962991Y-74752778D01*
X94806466Y-74836443D01*
X94636627Y-74887963D01*
X94570442Y-74894482D01*
X94504260Y-74901000D01*
X94415740Y-74901000D01*
X94349558Y-74894482D01*
X94283373Y-74887963D01*
X94113534Y-74836443D01*
X93957009Y-74752778D01*
X93921271Y-74723448D01*
X93819814Y-74640186D01*
X93722457Y-74521555D01*
X93707222Y-74502991D01*
X93623557Y-74346466D01*
X93572037Y-74176627D01*
X93554641Y-74000000D01*
X93572037Y-73823373D01*
X93623557Y-73653534D01*
X93707222Y-73497009D01*
X93736552Y-73461271D01*
X93819814Y-73359814D01*
X93921271Y-73276552D01*
X93957009Y-73247222D01*
X94113534Y-73163557D01*
X94283373Y-73112037D01*
X94349557Y-73105519D01*
X94415740Y-73099000D01*
X94504260Y-73099000D01*
X94570443Y-73105519D01*
X94570443Y-73105519D01*
G37*
G36*
X16289499Y-73478445D02*
G01*
X16326995Y-73489820D01*
X16361554Y-73508292D01*
X16391847Y-73533153D01*
X16416708Y-73563446D01*
X16435180Y-73598005D01*
X16446555Y-73635501D01*
X16451000Y-73680638D01*
X16451000Y-74319362D01*
X16446555Y-74364499D01*
X16435180Y-74401995D01*
X16416708Y-74436554D01*
X16391847Y-74466847D01*
X16361554Y-74491708D01*
X16326995Y-74510180D01*
X16289499Y-74521555D01*
X16244362Y-74526000D01*
X15505638Y-74526000D01*
X15460501Y-74521555D01*
X15423005Y-74510180D01*
X15388446Y-74491708D01*
X15358153Y-74466847D01*
X15333292Y-74436554D01*
X15314820Y-74401995D01*
X15303445Y-74364499D01*
X15299000Y-74319362D01*
X15299000Y-73680638D01*
X15303445Y-73635501D01*
X15314820Y-73598005D01*
X15333292Y-73563446D01*
X15358153Y-73533153D01*
X15388446Y-73508292D01*
X15423005Y-73489820D01*
X15460501Y-73478445D01*
X15505638Y-73474000D01*
X16244362Y-73474000D01*
X16289499Y-73478445D01*
X16289499Y-73478445D01*
G37*
G36*
X14539499Y-73478445D02*
G01*
X14576995Y-73489820D01*
X14611554Y-73508292D01*
X14641847Y-73533153D01*
X14666708Y-73563446D01*
X14685180Y-73598005D01*
X14696555Y-73635501D01*
X14701000Y-73680638D01*
X14701000Y-74319362D01*
X14696555Y-74364499D01*
X14685180Y-74401995D01*
X14666708Y-74436554D01*
X14641847Y-74466847D01*
X14611554Y-74491708D01*
X14576995Y-74510180D01*
X14539499Y-74521555D01*
X14494362Y-74526000D01*
X13755638Y-74526000D01*
X13710501Y-74521555D01*
X13673005Y-74510180D01*
X13638446Y-74491708D01*
X13608153Y-74466847D01*
X13583292Y-74436554D01*
X13564820Y-74401995D01*
X13553445Y-74364499D01*
X13549000Y-74319362D01*
X13549000Y-73680638D01*
X13553445Y-73635501D01*
X13564820Y-73598005D01*
X13583292Y-73563446D01*
X13608153Y-73533153D01*
X13638446Y-73508292D01*
X13673005Y-73489820D01*
X13710501Y-73478445D01*
X13755638Y-73474000D01*
X14494362Y-73474000D01*
X14539499Y-73478445D01*
X14539499Y-73478445D01*
G37*
G36*
X68449928Y-69026764D02*
G01*
X68471009Y-69033160D01*
X68490445Y-69043548D01*
X68507476Y-69057524D01*
X68521452Y-69074555D01*
X68531840Y-69093991D01*
X68538236Y-69115072D01*
X68541000Y-69143140D01*
X68541000Y-70956860D01*
X68538236Y-70984928D01*
X68531840Y-71006009D01*
X68521452Y-71025445D01*
X68507476Y-71042476D01*
X68490445Y-71056452D01*
X68471009Y-71066840D01*
X68449928Y-71073236D01*
X68421860Y-71076000D01*
X67958140Y-71076000D01*
X67930072Y-71073236D01*
X67908991Y-71066840D01*
X67889555Y-71056452D01*
X67872524Y-71042476D01*
X67858548Y-71025445D01*
X67848160Y-71006009D01*
X67841764Y-70984928D01*
X67839000Y-70956860D01*
X67839000Y-69143140D01*
X67841764Y-69115072D01*
X67848160Y-69093991D01*
X67858548Y-69074555D01*
X67872524Y-69057524D01*
X67889555Y-69043548D01*
X67908991Y-69033160D01*
X67930072Y-69026764D01*
X67958140Y-69024000D01*
X68421860Y-69024000D01*
X68449928Y-69026764D01*
X68449928Y-69026764D01*
G37*
G36*
X76069928Y-69026764D02*
G01*
X76091009Y-69033160D01*
X76110445Y-69043548D01*
X76127476Y-69057524D01*
X76141452Y-69074555D01*
X76151840Y-69093991D01*
X76158236Y-69115072D01*
X76161000Y-69143140D01*
X76161000Y-70956860D01*
X76158236Y-70984928D01*
X76151840Y-71006009D01*
X76141452Y-71025445D01*
X76127476Y-71042476D01*
X76110445Y-71056452D01*
X76091009Y-71066840D01*
X76069928Y-71073236D01*
X76041860Y-71076000D01*
X75578140Y-71076000D01*
X75550072Y-71073236D01*
X75528991Y-71066840D01*
X75509555Y-71056452D01*
X75492524Y-71042476D01*
X75478548Y-71025445D01*
X75468160Y-71006009D01*
X75461764Y-70984928D01*
X75459000Y-70956860D01*
X75459000Y-69143140D01*
X75461764Y-69115072D01*
X75468160Y-69093991D01*
X75478548Y-69074555D01*
X75492524Y-69057524D01*
X75509555Y-69043548D01*
X75528991Y-69033160D01*
X75550072Y-69026764D01*
X75578140Y-69024000D01*
X76041860Y-69024000D01*
X76069928Y-69026764D01*
X76069928Y-69026764D01*
G37*
G36*
X74799928Y-69026764D02*
G01*
X74821009Y-69033160D01*
X74840445Y-69043548D01*
X74857476Y-69057524D01*
X74871452Y-69074555D01*
X74881840Y-69093991D01*
X74888236Y-69115072D01*
X74891000Y-69143140D01*
X74891000Y-70956860D01*
X74888236Y-70984928D01*
X74881840Y-71006009D01*
X74871452Y-71025445D01*
X74857476Y-71042476D01*
X74840445Y-71056452D01*
X74821009Y-71066840D01*
X74799928Y-71073236D01*
X74771860Y-71076000D01*
X74308140Y-71076000D01*
X74280072Y-71073236D01*
X74258991Y-71066840D01*
X74239555Y-71056452D01*
X74222524Y-71042476D01*
X74208548Y-71025445D01*
X74198160Y-71006009D01*
X74191764Y-70984928D01*
X74189000Y-70956860D01*
X74189000Y-69143140D01*
X74191764Y-69115072D01*
X74198160Y-69093991D01*
X74208548Y-69074555D01*
X74222524Y-69057524D01*
X74239555Y-69043548D01*
X74258991Y-69033160D01*
X74280072Y-69026764D01*
X74308140Y-69024000D01*
X74771860Y-69024000D01*
X74799928Y-69026764D01*
X74799928Y-69026764D01*
G37*
G36*
X73529928Y-69026764D02*
G01*
X73551009Y-69033160D01*
X73570445Y-69043548D01*
X73587476Y-69057524D01*
X73601452Y-69074555D01*
X73611840Y-69093991D01*
X73618236Y-69115072D01*
X73621000Y-69143140D01*
X73621000Y-70956860D01*
X73618236Y-70984928D01*
X73611840Y-71006009D01*
X73601452Y-71025445D01*
X73587476Y-71042476D01*
X73570445Y-71056452D01*
X73551009Y-71066840D01*
X73529928Y-71073236D01*
X73501860Y-71076000D01*
X73038140Y-71076000D01*
X73010072Y-71073236D01*
X72988991Y-71066840D01*
X72969555Y-71056452D01*
X72952524Y-71042476D01*
X72938548Y-71025445D01*
X72928160Y-71006009D01*
X72921764Y-70984928D01*
X72919000Y-70956860D01*
X72919000Y-69143140D01*
X72921764Y-69115072D01*
X72928160Y-69093991D01*
X72938548Y-69074555D01*
X72952524Y-69057524D01*
X72969555Y-69043548D01*
X72988991Y-69033160D01*
X73010072Y-69026764D01*
X73038140Y-69024000D01*
X73501860Y-69024000D01*
X73529928Y-69026764D01*
X73529928Y-69026764D01*
G37*
G36*
X72259928Y-69026764D02*
G01*
X72281009Y-69033160D01*
X72300445Y-69043548D01*
X72317476Y-69057524D01*
X72331452Y-69074555D01*
X72341840Y-69093991D01*
X72348236Y-69115072D01*
X72351000Y-69143140D01*
X72351000Y-70956860D01*
X72348236Y-70984928D01*
X72341840Y-71006009D01*
X72331452Y-71025445D01*
X72317476Y-71042476D01*
X72300445Y-71056452D01*
X72281009Y-71066840D01*
X72259928Y-71073236D01*
X72231860Y-71076000D01*
X71768140Y-71076000D01*
X71740072Y-71073236D01*
X71718991Y-71066840D01*
X71699555Y-71056452D01*
X71682524Y-71042476D01*
X71668548Y-71025445D01*
X71658160Y-71006009D01*
X71651764Y-70984928D01*
X71649000Y-70956860D01*
X71649000Y-69143140D01*
X71651764Y-69115072D01*
X71658160Y-69093991D01*
X71668548Y-69074555D01*
X71682524Y-69057524D01*
X71699555Y-69043548D01*
X71718991Y-69033160D01*
X71740072Y-69026764D01*
X71768140Y-69024000D01*
X72231860Y-69024000D01*
X72259928Y-69026764D01*
X72259928Y-69026764D01*
G37*
G36*
X70989928Y-69026764D02*
G01*
X71011009Y-69033160D01*
X71030445Y-69043548D01*
X71047476Y-69057524D01*
X71061452Y-69074555D01*
X71071840Y-69093991D01*
X71078236Y-69115072D01*
X71081000Y-69143140D01*
X71081000Y-70956860D01*
X71078236Y-70984928D01*
X71071840Y-71006009D01*
X71061452Y-71025445D01*
X71047476Y-71042476D01*
X71030445Y-71056452D01*
X71011009Y-71066840D01*
X70989928Y-71073236D01*
X70961860Y-71076000D01*
X70498140Y-71076000D01*
X70470072Y-71073236D01*
X70448991Y-71066840D01*
X70429555Y-71056452D01*
X70412524Y-71042476D01*
X70398548Y-71025445D01*
X70388160Y-71006009D01*
X70381764Y-70984928D01*
X70379000Y-70956860D01*
X70379000Y-69143140D01*
X70381764Y-69115072D01*
X70388160Y-69093991D01*
X70398548Y-69074555D01*
X70412524Y-69057524D01*
X70429555Y-69043548D01*
X70448991Y-69033160D01*
X70470072Y-69026764D01*
X70498140Y-69024000D01*
X70961860Y-69024000D01*
X70989928Y-69026764D01*
X70989928Y-69026764D01*
G37*
G36*
X69719928Y-69026764D02*
G01*
X69741009Y-69033160D01*
X69760445Y-69043548D01*
X69777476Y-69057524D01*
X69791452Y-69074555D01*
X69801840Y-69093991D01*
X69808236Y-69115072D01*
X69811000Y-69143140D01*
X69811000Y-70956860D01*
X69808236Y-70984928D01*
X69801840Y-71006009D01*
X69791452Y-71025445D01*
X69777476Y-71042476D01*
X69760445Y-71056452D01*
X69741009Y-71066840D01*
X69719928Y-71073236D01*
X69691860Y-71076000D01*
X69228140Y-71076000D01*
X69200072Y-71073236D01*
X69178991Y-71066840D01*
X69159555Y-71056452D01*
X69142524Y-71042476D01*
X69128548Y-71025445D01*
X69118160Y-71006009D01*
X69111764Y-70984928D01*
X69109000Y-70956860D01*
X69109000Y-69143140D01*
X69111764Y-69115072D01*
X69118160Y-69093991D01*
X69128548Y-69074555D01*
X69142524Y-69057524D01*
X69159555Y-69043548D01*
X69178991Y-69033160D01*
X69200072Y-69026764D01*
X69228140Y-69024000D01*
X69691860Y-69024000D01*
X69719928Y-69026764D01*
X69719928Y-69026764D01*
G37*
G36*
X95634239Y-62811467D02*
G01*
X95948282Y-62873934D01*
X96539926Y-63119001D01*
X97072392Y-63474784D01*
X97525216Y-63927608D01*
X97880999Y-64460074D01*
X98126066Y-65051718D01*
X98126066Y-65051719D01*
X98251000Y-65679803D01*
X98251000Y-66320197D01*
X98216884Y-66491708D01*
X98126066Y-66948282D01*
X97880999Y-67539926D01*
X97525216Y-68072392D01*
X97072392Y-68525216D01*
X96539926Y-68880999D01*
X95948282Y-69126066D01*
X95751230Y-69165262D01*
X95320197Y-69251000D01*
X94679803Y-69251000D01*
X94248770Y-69165262D01*
X94051718Y-69126066D01*
X93460074Y-68880999D01*
X92927608Y-68525216D01*
X92474784Y-68072392D01*
X92119001Y-67539926D01*
X91873934Y-66948282D01*
X91783116Y-66491708D01*
X91749000Y-66320197D01*
X91749000Y-65679803D01*
X91873934Y-65051719D01*
X91873934Y-65051718D01*
X92119001Y-64460074D01*
X92474784Y-63927608D01*
X92927608Y-63474784D01*
X93460074Y-63119001D01*
X94051718Y-62873934D01*
X94365761Y-62811467D01*
X94679803Y-62749000D01*
X95320197Y-62749000D01*
X95634239Y-62811467D01*
X95634239Y-62811467D01*
G37*
G36*
X5634239Y-62811467D02*
G01*
X5948282Y-62873934D01*
X6539926Y-63119001D01*
X7072392Y-63474784D01*
X7525216Y-63927608D01*
X7880999Y-64460074D01*
X8126066Y-65051718D01*
X8126066Y-65051719D01*
X8251000Y-65679803D01*
X8251000Y-66320197D01*
X8216884Y-66491708D01*
X8126066Y-66948282D01*
X7880999Y-67539926D01*
X7525216Y-68072392D01*
X7072392Y-68525216D01*
X6539926Y-68880999D01*
X5948282Y-69126066D01*
X5751230Y-69165262D01*
X5320197Y-69251000D01*
X4679803Y-69251000D01*
X4248770Y-69165262D01*
X4051718Y-69126066D01*
X3460074Y-68880999D01*
X2927608Y-68525216D01*
X2474784Y-68072392D01*
X2119001Y-67539926D01*
X1873934Y-66948282D01*
X1783116Y-66491708D01*
X1749000Y-66320197D01*
X1749000Y-65679803D01*
X1873934Y-65051719D01*
X1873934Y-65051718D01*
X2119001Y-64460074D01*
X2474784Y-63927608D01*
X2927608Y-63474784D01*
X3460074Y-63119001D01*
X4051718Y-62873934D01*
X4365761Y-62811467D01*
X4679803Y-62749000D01*
X5320197Y-62749000D01*
X5634239Y-62811467D01*
X5634239Y-62811467D01*
G37*
G36*
X84539499Y-65478445D02*
G01*
X84576995Y-65489820D01*
X84611554Y-65508292D01*
X84641847Y-65533153D01*
X84666708Y-65563446D01*
X84685180Y-65598005D01*
X84696555Y-65635501D01*
X84701000Y-65680638D01*
X84701000Y-66319362D01*
X84696555Y-66364499D01*
X84685180Y-66401995D01*
X84666708Y-66436554D01*
X84641847Y-66466847D01*
X84611554Y-66491708D01*
X84576995Y-66510180D01*
X84539499Y-66521555D01*
X84494362Y-66526000D01*
X83755638Y-66526000D01*
X83710501Y-66521555D01*
X83673005Y-66510180D01*
X83638446Y-66491708D01*
X83608153Y-66466847D01*
X83583292Y-66436554D01*
X83564820Y-66401995D01*
X83553445Y-66364499D01*
X83549000Y-66319362D01*
X83549000Y-65680638D01*
X83553445Y-65635501D01*
X83564820Y-65598005D01*
X83583292Y-65563446D01*
X83608153Y-65533153D01*
X83638446Y-65508292D01*
X83673005Y-65489820D01*
X83710501Y-65478445D01*
X83755638Y-65474000D01*
X84494362Y-65474000D01*
X84539499Y-65478445D01*
X84539499Y-65478445D01*
G37*
G36*
X86289499Y-65478445D02*
G01*
X86326995Y-65489820D01*
X86361554Y-65508292D01*
X86391847Y-65533153D01*
X86416708Y-65563446D01*
X86435180Y-65598005D01*
X86446555Y-65635501D01*
X86451000Y-65680638D01*
X86451000Y-66319362D01*
X86446555Y-66364499D01*
X86435180Y-66401995D01*
X86416708Y-66436554D01*
X86391847Y-66466847D01*
X86361554Y-66491708D01*
X86326995Y-66510180D01*
X86289499Y-66521555D01*
X86244362Y-66526000D01*
X85505638Y-66526000D01*
X85460501Y-66521555D01*
X85423005Y-66510180D01*
X85388446Y-66491708D01*
X85358153Y-66466847D01*
X85333292Y-66436554D01*
X85314820Y-66401995D01*
X85303445Y-66364499D01*
X85299000Y-66319362D01*
X85299000Y-65680638D01*
X85303445Y-65635501D01*
X85314820Y-65598005D01*
X85333292Y-65563446D01*
X85358153Y-65533153D01*
X85388446Y-65508292D01*
X85423005Y-65489820D01*
X85460501Y-65478445D01*
X85505638Y-65474000D01*
X86244362Y-65474000D01*
X86289499Y-65478445D01*
X86289499Y-65478445D01*
G37*
G36*
X51289499Y-65478445D02*
G01*
X51326995Y-65489820D01*
X51361554Y-65508292D01*
X51391847Y-65533153D01*
X51416708Y-65563446D01*
X51435180Y-65598005D01*
X51446555Y-65635501D01*
X51451000Y-65680638D01*
X51451000Y-66319362D01*
X51446555Y-66364499D01*
X51435180Y-66401995D01*
X51416708Y-66436554D01*
X51391847Y-66466847D01*
X51361554Y-66491708D01*
X51326995Y-66510180D01*
X51289499Y-66521555D01*
X51244362Y-66526000D01*
X50505638Y-66526000D01*
X50460501Y-66521555D01*
X50423005Y-66510180D01*
X50388446Y-66491708D01*
X50358153Y-66466847D01*
X50333292Y-66436554D01*
X50314820Y-66401995D01*
X50303445Y-66364499D01*
X50299000Y-66319362D01*
X50299000Y-65680638D01*
X50303445Y-65635501D01*
X50314820Y-65598005D01*
X50333292Y-65563446D01*
X50358153Y-65533153D01*
X50388446Y-65508292D01*
X50423005Y-65489820D01*
X50460501Y-65478445D01*
X50505638Y-65474000D01*
X51244362Y-65474000D01*
X51289499Y-65478445D01*
X51289499Y-65478445D01*
G37*
G36*
X49539499Y-65478445D02*
G01*
X49576995Y-65489820D01*
X49611554Y-65508292D01*
X49641847Y-65533153D01*
X49666708Y-65563446D01*
X49685180Y-65598005D01*
X49696555Y-65635501D01*
X49701000Y-65680638D01*
X49701000Y-66319362D01*
X49696555Y-66364499D01*
X49685180Y-66401995D01*
X49666708Y-66436554D01*
X49641847Y-66466847D01*
X49611554Y-66491708D01*
X49576995Y-66510180D01*
X49539499Y-66521555D01*
X49494362Y-66526000D01*
X48755638Y-66526000D01*
X48710501Y-66521555D01*
X48673005Y-66510180D01*
X48638446Y-66491708D01*
X48608153Y-66466847D01*
X48583292Y-66436554D01*
X48564820Y-66401995D01*
X48553445Y-66364499D01*
X48549000Y-66319362D01*
X48549000Y-65680638D01*
X48553445Y-65635501D01*
X48564820Y-65598005D01*
X48583292Y-65563446D01*
X48608153Y-65533153D01*
X48638446Y-65508292D01*
X48673005Y-65489820D01*
X48710501Y-65478445D01*
X48755638Y-65474000D01*
X49494362Y-65474000D01*
X49539499Y-65478445D01*
X49539499Y-65478445D01*
G37*
G36*
X14539499Y-57478445D02*
G01*
X14576995Y-57489820D01*
X14611554Y-57508292D01*
X14641847Y-57533153D01*
X14666708Y-57563446D01*
X14685180Y-57598005D01*
X14696555Y-57635501D01*
X14701000Y-57680638D01*
X14701000Y-58319362D01*
X14696555Y-58364499D01*
X14685180Y-58401995D01*
X14666708Y-58436554D01*
X14641847Y-58466847D01*
X14611554Y-58491708D01*
X14576995Y-58510180D01*
X14539499Y-58521555D01*
X14494362Y-58526000D01*
X13755638Y-58526000D01*
X13710501Y-58521555D01*
X13673005Y-58510180D01*
X13638446Y-58491708D01*
X13608153Y-58466847D01*
X13583292Y-58436554D01*
X13564820Y-58401995D01*
X13553445Y-58364499D01*
X13549000Y-58319362D01*
X13549000Y-57680638D01*
X13553445Y-57635501D01*
X13564820Y-57598005D01*
X13583292Y-57563446D01*
X13608153Y-57533153D01*
X13638446Y-57508292D01*
X13673005Y-57489820D01*
X13710501Y-57478445D01*
X13755638Y-57474000D01*
X14494362Y-57474000D01*
X14539499Y-57478445D01*
X14539499Y-57478445D01*
G37*
G36*
X16289499Y-57478445D02*
G01*
X16326995Y-57489820D01*
X16361554Y-57508292D01*
X16391847Y-57533153D01*
X16416708Y-57563446D01*
X16435180Y-57598005D01*
X16446555Y-57635501D01*
X16451000Y-57680638D01*
X16451000Y-58319362D01*
X16446555Y-58364499D01*
X16435180Y-58401995D01*
X16416708Y-58436554D01*
X16391847Y-58466847D01*
X16361554Y-58491708D01*
X16326995Y-58510180D01*
X16289499Y-58521555D01*
X16244362Y-58526000D01*
X15505638Y-58526000D01*
X15460501Y-58521555D01*
X15423005Y-58510180D01*
X15388446Y-58491708D01*
X15358153Y-58466847D01*
X15333292Y-58436554D01*
X15314820Y-58401995D01*
X15303445Y-58364499D01*
X15299000Y-58319362D01*
X15299000Y-57680638D01*
X15303445Y-57635501D01*
X15314820Y-57598005D01*
X15333292Y-57563446D01*
X15358153Y-57533153D01*
X15388446Y-57508292D01*
X15423005Y-57489820D01*
X15460501Y-57478445D01*
X15505638Y-57474000D01*
X16244362Y-57474000D01*
X16289499Y-57478445D01*
X16289499Y-57478445D01*
G37*
G36*
X93751000Y-55051000D02*
G01*
X92249000Y-55051000D01*
X92249000Y-53349000D01*
X93751000Y-53349000D01*
X93751000Y-55051000D01*
X93751000Y-55051000D01*
G37*
G36*
X96001000Y-55051000D02*
G01*
X94499000Y-55051000D01*
X94499000Y-53349000D01*
X96001000Y-53349000D01*
X96001000Y-55051000D01*
X96001000Y-55051000D01*
G37*
G36*
X98251000Y-55051000D02*
G01*
X96749000Y-55051000D01*
X96749000Y-53349000D01*
X98251000Y-53349000D01*
X98251000Y-55051000D01*
X98251000Y-55051000D01*
G37*
G36*
X86289499Y-49478445D02*
G01*
X86326995Y-49489820D01*
X86361554Y-49508292D01*
X86391847Y-49533153D01*
X86416708Y-49563446D01*
X86435180Y-49598005D01*
X86446555Y-49635501D01*
X86451000Y-49680638D01*
X86451000Y-50319362D01*
X86446555Y-50364499D01*
X86435180Y-50401995D01*
X86416708Y-50436554D01*
X86391847Y-50466847D01*
X86361554Y-50491708D01*
X86326995Y-50510180D01*
X86289499Y-50521555D01*
X86244362Y-50526000D01*
X85505638Y-50526000D01*
X85460501Y-50521555D01*
X85423005Y-50510180D01*
X85388446Y-50491708D01*
X85358153Y-50466847D01*
X85333292Y-50436554D01*
X85314820Y-50401995D01*
X85303445Y-50364499D01*
X85299000Y-50319362D01*
X85299000Y-49680638D01*
X85303445Y-49635501D01*
X85314820Y-49598005D01*
X85333292Y-49563446D01*
X85358153Y-49533153D01*
X85388446Y-49508292D01*
X85423005Y-49489820D01*
X85460501Y-49478445D01*
X85505638Y-49474000D01*
X86244362Y-49474000D01*
X86289499Y-49478445D01*
X86289499Y-49478445D01*
G37*
G36*
X84539499Y-49478445D02*
G01*
X84576995Y-49489820D01*
X84611554Y-49508292D01*
X84641847Y-49533153D01*
X84666708Y-49563446D01*
X84685180Y-49598005D01*
X84696555Y-49635501D01*
X84701000Y-49680638D01*
X84701000Y-50319362D01*
X84696555Y-50364499D01*
X84685180Y-50401995D01*
X84666708Y-50436554D01*
X84641847Y-50466847D01*
X84611554Y-50491708D01*
X84576995Y-50510180D01*
X84539499Y-50521555D01*
X84494362Y-50526000D01*
X83755638Y-50526000D01*
X83710501Y-50521555D01*
X83673005Y-50510180D01*
X83638446Y-50491708D01*
X83608153Y-50466847D01*
X83583292Y-50436554D01*
X83564820Y-50401995D01*
X83553445Y-50364499D01*
X83549000Y-50319362D01*
X83549000Y-49680638D01*
X83553445Y-49635501D01*
X83564820Y-49598005D01*
X83583292Y-49563446D01*
X83608153Y-49533153D01*
X83638446Y-49508292D01*
X83673005Y-49489820D01*
X83710501Y-49478445D01*
X83755638Y-49474000D01*
X84494362Y-49474000D01*
X84539499Y-49478445D01*
X84539499Y-49478445D01*
G37*
G36*
X51289499Y-49478445D02*
G01*
X51326995Y-49489820D01*
X51361554Y-49508292D01*
X51391847Y-49533153D01*
X51416708Y-49563446D01*
X51435180Y-49598005D01*
X51446555Y-49635501D01*
X51451000Y-49680638D01*
X51451000Y-50319362D01*
X51446555Y-50364499D01*
X51435180Y-50401995D01*
X51416708Y-50436554D01*
X51391847Y-50466847D01*
X51361554Y-50491708D01*
X51326995Y-50510180D01*
X51289499Y-50521555D01*
X51244362Y-50526000D01*
X50505638Y-50526000D01*
X50460501Y-50521555D01*
X50423005Y-50510180D01*
X50388446Y-50491708D01*
X50358153Y-50466847D01*
X50333292Y-50436554D01*
X50314820Y-50401995D01*
X50303445Y-50364499D01*
X50299000Y-50319362D01*
X50299000Y-49680638D01*
X50303445Y-49635501D01*
X50314820Y-49598005D01*
X50333292Y-49563446D01*
X50358153Y-49533153D01*
X50388446Y-49508292D01*
X50423005Y-49489820D01*
X50460501Y-49478445D01*
X50505638Y-49474000D01*
X51244362Y-49474000D01*
X51289499Y-49478445D01*
X51289499Y-49478445D01*
G37*
G36*
X49539499Y-49478445D02*
G01*
X49576995Y-49489820D01*
X49611554Y-49508292D01*
X49641847Y-49533153D01*
X49666708Y-49563446D01*
X49685180Y-49598005D01*
X49696555Y-49635501D01*
X49701000Y-49680638D01*
X49701000Y-50319362D01*
X49696555Y-50364499D01*
X49685180Y-50401995D01*
X49666708Y-50436554D01*
X49641847Y-50466847D01*
X49611554Y-50491708D01*
X49576995Y-50510180D01*
X49539499Y-50521555D01*
X49494362Y-50526000D01*
X48755638Y-50526000D01*
X48710501Y-50521555D01*
X48673005Y-50510180D01*
X48638446Y-50491708D01*
X48608153Y-50466847D01*
X48583292Y-50436554D01*
X48564820Y-50401995D01*
X48553445Y-50364499D01*
X48549000Y-50319362D01*
X48549000Y-49680638D01*
X48553445Y-49635501D01*
X48564820Y-49598005D01*
X48583292Y-49563446D01*
X48608153Y-49533153D01*
X48638446Y-49508292D01*
X48673005Y-49489820D01*
X48710501Y-49478445D01*
X48755638Y-49474000D01*
X49494362Y-49474000D01*
X49539499Y-49478445D01*
X49539499Y-49478445D01*
G37*
G36*
X93751000Y-46651000D02*
G01*
X92249000Y-46651000D01*
X92249000Y-44949000D01*
X93751000Y-44949000D01*
X93751000Y-46651000D01*
X93751000Y-46651000D01*
G37*
G36*
X98251000Y-46651000D02*
G01*
X96749000Y-46651000D01*
X96749000Y-44949000D01*
X98251000Y-44949000D01*
X98251000Y-46651000D01*
X98251000Y-46651000D01*
G37*
G36*
X14539499Y-41478445D02*
G01*
X14576995Y-41489820D01*
X14611554Y-41508292D01*
X14641847Y-41533153D01*
X14666708Y-41563446D01*
X14685180Y-41598005D01*
X14696555Y-41635501D01*
X14701000Y-41680638D01*
X14701000Y-42319362D01*
X14696555Y-42364499D01*
X14685180Y-42401995D01*
X14666708Y-42436554D01*
X14641847Y-42466847D01*
X14611554Y-42491708D01*
X14576995Y-42510180D01*
X14539499Y-42521555D01*
X14494362Y-42526000D01*
X13755638Y-42526000D01*
X13710501Y-42521555D01*
X13673005Y-42510180D01*
X13638446Y-42491708D01*
X13608153Y-42466847D01*
X13583292Y-42436554D01*
X13564820Y-42401995D01*
X13553445Y-42364499D01*
X13549000Y-42319362D01*
X13549000Y-41680638D01*
X13553445Y-41635501D01*
X13564820Y-41598005D01*
X13583292Y-41563446D01*
X13608153Y-41533153D01*
X13638446Y-41508292D01*
X13673005Y-41489820D01*
X13710501Y-41478445D01*
X13755638Y-41474000D01*
X14494362Y-41474000D01*
X14539499Y-41478445D01*
X14539499Y-41478445D01*
G37*
G36*
X93414499Y-41478445D02*
G01*
X93451995Y-41489820D01*
X93486554Y-41508292D01*
X93516847Y-41533153D01*
X93541708Y-41563446D01*
X93560180Y-41598005D01*
X93571555Y-41635501D01*
X93576000Y-41680638D01*
X93576000Y-42319362D01*
X93571555Y-42364499D01*
X93560180Y-42401995D01*
X93541708Y-42436554D01*
X93516847Y-42466847D01*
X93486554Y-42491708D01*
X93451995Y-42510180D01*
X93414499Y-42521555D01*
X93369362Y-42526000D01*
X92630638Y-42526000D01*
X92585501Y-42521555D01*
X92548005Y-42510180D01*
X92513446Y-42491708D01*
X92483153Y-42466847D01*
X92458292Y-42436554D01*
X92439820Y-42401995D01*
X92428445Y-42364499D01*
X92424000Y-42319362D01*
X92424000Y-41680638D01*
X92428445Y-41635501D01*
X92439820Y-41598005D01*
X92458292Y-41563446D01*
X92483153Y-41533153D01*
X92513446Y-41508292D01*
X92548005Y-41489820D01*
X92585501Y-41478445D01*
X92630638Y-41474000D01*
X93369362Y-41474000D01*
X93414499Y-41478445D01*
X93414499Y-41478445D01*
G37*
G36*
X95164499Y-41478445D02*
G01*
X95201995Y-41489820D01*
X95236554Y-41508292D01*
X95266847Y-41533153D01*
X95291708Y-41563446D01*
X95310180Y-41598005D01*
X95321555Y-41635501D01*
X95326000Y-41680638D01*
X95326000Y-42319362D01*
X95321555Y-42364499D01*
X95310180Y-42401995D01*
X95291708Y-42436554D01*
X95266847Y-42466847D01*
X95236554Y-42491708D01*
X95201995Y-42510180D01*
X95164499Y-42521555D01*
X95119362Y-42526000D01*
X94380638Y-42526000D01*
X94335501Y-42521555D01*
X94298005Y-42510180D01*
X94263446Y-42491708D01*
X94233153Y-42466847D01*
X94208292Y-42436554D01*
X94189820Y-42401995D01*
X94178445Y-42364499D01*
X94174000Y-42319362D01*
X94174000Y-41680638D01*
X94178445Y-41635501D01*
X94189820Y-41598005D01*
X94208292Y-41563446D01*
X94233153Y-41533153D01*
X94263446Y-41508292D01*
X94298005Y-41489820D01*
X94335501Y-41478445D01*
X94380638Y-41474000D01*
X95119362Y-41474000D01*
X95164499Y-41478445D01*
X95164499Y-41478445D01*
G37*
G36*
X16289499Y-41478445D02*
G01*
X16326995Y-41489820D01*
X16361554Y-41508292D01*
X16391847Y-41533153D01*
X16416708Y-41563446D01*
X16435180Y-41598005D01*
X16446555Y-41635501D01*
X16451000Y-41680638D01*
X16451000Y-42319362D01*
X16446555Y-42364499D01*
X16435180Y-42401995D01*
X16416708Y-42436554D01*
X16391847Y-42466847D01*
X16361554Y-42491708D01*
X16326995Y-42510180D01*
X16289499Y-42521555D01*
X16244362Y-42526000D01*
X15505638Y-42526000D01*
X15460501Y-42521555D01*
X15423005Y-42510180D01*
X15388446Y-42491708D01*
X15358153Y-42466847D01*
X15333292Y-42436554D01*
X15314820Y-42401995D01*
X15303445Y-42364499D01*
X15299000Y-42319362D01*
X15299000Y-41680638D01*
X15303445Y-41635501D01*
X15314820Y-41598005D01*
X15333292Y-41563446D01*
X15358153Y-41533153D01*
X15388446Y-41508292D01*
X15423005Y-41489820D01*
X15460501Y-41478445D01*
X15505638Y-41474000D01*
X16244362Y-41474000D01*
X16289499Y-41478445D01*
X16289499Y-41478445D01*
G37*
G36*
X51289499Y-33478445D02*
G01*
X51326995Y-33489820D01*
X51361554Y-33508292D01*
X51391847Y-33533153D01*
X51416708Y-33563446D01*
X51435180Y-33598005D01*
X51446555Y-33635501D01*
X51451000Y-33680638D01*
X51451000Y-34319362D01*
X51446555Y-34364499D01*
X51435180Y-34401995D01*
X51416708Y-34436554D01*
X51391847Y-34466847D01*
X51361554Y-34491708D01*
X51326995Y-34510180D01*
X51289499Y-34521555D01*
X51244362Y-34526000D01*
X50505638Y-34526000D01*
X50460501Y-34521555D01*
X50423005Y-34510180D01*
X50388446Y-34491708D01*
X50358153Y-34466847D01*
X50333292Y-34436554D01*
X50314820Y-34401995D01*
X50303445Y-34364499D01*
X50299000Y-34319362D01*
X50299000Y-33680638D01*
X50303445Y-33635501D01*
X50314820Y-33598005D01*
X50333292Y-33563446D01*
X50358153Y-33533153D01*
X50388446Y-33508292D01*
X50423005Y-33489820D01*
X50460501Y-33478445D01*
X50505638Y-33474000D01*
X51244362Y-33474000D01*
X51289499Y-33478445D01*
X51289499Y-33478445D01*
G37*
G36*
X49539499Y-33478445D02*
G01*
X49576995Y-33489820D01*
X49611554Y-33508292D01*
X49641847Y-33533153D01*
X49666708Y-33563446D01*
X49685180Y-33598005D01*
X49696555Y-33635501D01*
X49701000Y-33680638D01*
X49701000Y-34319362D01*
X49696555Y-34364499D01*
X49685180Y-34401995D01*
X49666708Y-34436554D01*
X49641847Y-34466847D01*
X49611554Y-34491708D01*
X49576995Y-34510180D01*
X49539499Y-34521555D01*
X49494362Y-34526000D01*
X48755638Y-34526000D01*
X48710501Y-34521555D01*
X48673005Y-34510180D01*
X48638446Y-34491708D01*
X48608153Y-34466847D01*
X48583292Y-34436554D01*
X48564820Y-34401995D01*
X48553445Y-34364499D01*
X48549000Y-34319362D01*
X48549000Y-33680638D01*
X48553445Y-33635501D01*
X48564820Y-33598005D01*
X48583292Y-33563446D01*
X48608153Y-33533153D01*
X48638446Y-33508292D01*
X48673005Y-33489820D01*
X48710501Y-33478445D01*
X48755638Y-33474000D01*
X49494362Y-33474000D01*
X49539499Y-33478445D01*
X49539499Y-33478445D01*
G37*
G36*
X84539499Y-33478445D02*
G01*
X84576995Y-33489820D01*
X84611554Y-33508292D01*
X84641847Y-33533153D01*
X84666708Y-33563446D01*
X84685180Y-33598005D01*
X84696555Y-33635501D01*
X84701000Y-33680638D01*
X84701000Y-34319362D01*
X84696555Y-34364499D01*
X84685180Y-34401995D01*
X84666708Y-34436554D01*
X84641847Y-34466847D01*
X84611554Y-34491708D01*
X84576995Y-34510180D01*
X84539499Y-34521555D01*
X84494362Y-34526000D01*
X83755638Y-34526000D01*
X83710501Y-34521555D01*
X83673005Y-34510180D01*
X83638446Y-34491708D01*
X83608153Y-34466847D01*
X83583292Y-34436554D01*
X83564820Y-34401995D01*
X83553445Y-34364499D01*
X83549000Y-34319362D01*
X83549000Y-33680638D01*
X83553445Y-33635501D01*
X83564820Y-33598005D01*
X83583292Y-33563446D01*
X83608153Y-33533153D01*
X83638446Y-33508292D01*
X83673005Y-33489820D01*
X83710501Y-33478445D01*
X83755638Y-33474000D01*
X84494362Y-33474000D01*
X84539499Y-33478445D01*
X84539499Y-33478445D01*
G37*
G36*
X86289499Y-33478445D02*
G01*
X86326995Y-33489820D01*
X86361554Y-33508292D01*
X86391847Y-33533153D01*
X86416708Y-33563446D01*
X86435180Y-33598005D01*
X86446555Y-33635501D01*
X86451000Y-33680638D01*
X86451000Y-34319362D01*
X86446555Y-34364499D01*
X86435180Y-34401995D01*
X86416708Y-34436554D01*
X86391847Y-34466847D01*
X86361554Y-34491708D01*
X86326995Y-34510180D01*
X86289499Y-34521555D01*
X86244362Y-34526000D01*
X85505638Y-34526000D01*
X85460501Y-34521555D01*
X85423005Y-34510180D01*
X85388446Y-34491708D01*
X85358153Y-34466847D01*
X85333292Y-34436554D01*
X85314820Y-34401995D01*
X85303445Y-34364499D01*
X85299000Y-34319362D01*
X85299000Y-33680638D01*
X85303445Y-33635501D01*
X85314820Y-33598005D01*
X85333292Y-33563446D01*
X85358153Y-33533153D01*
X85388446Y-33508292D01*
X85423005Y-33489820D01*
X85460501Y-33478445D01*
X85505638Y-33474000D01*
X86244362Y-33474000D01*
X86289499Y-33478445D01*
X86289499Y-33478445D01*
G37*
G36*
X14539499Y-25478445D02*
G01*
X14576995Y-25489820D01*
X14611554Y-25508292D01*
X14641847Y-25533153D01*
X14666708Y-25563446D01*
X14685180Y-25598005D01*
X14696555Y-25635501D01*
X14701000Y-25680638D01*
X14701000Y-26319362D01*
X14696555Y-26364499D01*
X14685180Y-26401995D01*
X14666708Y-26436554D01*
X14641847Y-26466847D01*
X14611554Y-26491708D01*
X14576995Y-26510180D01*
X14539499Y-26521555D01*
X14494362Y-26526000D01*
X13755638Y-26526000D01*
X13710501Y-26521555D01*
X13673005Y-26510180D01*
X13638446Y-26491708D01*
X13608153Y-26466847D01*
X13583292Y-26436554D01*
X13564820Y-26401995D01*
X13553445Y-26364499D01*
X13549000Y-26319362D01*
X13549000Y-25680638D01*
X13553445Y-25635501D01*
X13564820Y-25598005D01*
X13583292Y-25563446D01*
X13608153Y-25533153D01*
X13638446Y-25508292D01*
X13673005Y-25489820D01*
X13710501Y-25478445D01*
X13755638Y-25474000D01*
X14494362Y-25474000D01*
X14539499Y-25478445D01*
X14539499Y-25478445D01*
G37*
G36*
X16289499Y-25478445D02*
G01*
X16326995Y-25489820D01*
X16361554Y-25508292D01*
X16391847Y-25533153D01*
X16416708Y-25563446D01*
X16435180Y-25598005D01*
X16446555Y-25635501D01*
X16451000Y-25680638D01*
X16451000Y-26319362D01*
X16446555Y-26364499D01*
X16435180Y-26401995D01*
X16416708Y-26436554D01*
X16391847Y-26466847D01*
X16361554Y-26491708D01*
X16326995Y-26510180D01*
X16289499Y-26521555D01*
X16244362Y-26526000D01*
X15505638Y-26526000D01*
X15460501Y-26521555D01*
X15423005Y-26510180D01*
X15388446Y-26491708D01*
X15358153Y-26466847D01*
X15333292Y-26436554D01*
X15314820Y-26401995D01*
X15303445Y-26364499D01*
X15299000Y-26319362D01*
X15299000Y-25680638D01*
X15303445Y-25635501D01*
X15314820Y-25598005D01*
X15333292Y-25563446D01*
X15358153Y-25533153D01*
X15388446Y-25508292D01*
X15423005Y-25489820D01*
X15460501Y-25478445D01*
X15505638Y-25474000D01*
X16244362Y-25474000D01*
X16289499Y-25478445D01*
X16289499Y-25478445D01*
G37*
G36*
X55657228Y-22227387D02*
G01*
X54807286Y-23077329D01*
X54667278Y-23217336D01*
X53817336Y-24067278D01*
X53677329Y-24207286D01*
X52827387Y-25057228D01*
X50987495Y-23217336D01*
X51837437Y-22367394D01*
X51837438Y-22367395D01*
X51889058Y-22315775D01*
X51889067Y-22315764D01*
X51977445Y-22227387D01*
X51977444Y-22227386D01*
X52827386Y-21377444D01*
X52827387Y-21377445D01*
X52915764Y-21289067D01*
X52915775Y-21289058D01*
X52967395Y-21237438D01*
X52967394Y-21237437D01*
X53817336Y-20387495D01*
X55657228Y-22227387D01*
X55657228Y-22227387D01*
G37*
G36*
X49151845Y-22934493D02*
G01*
X47311953Y-24774385D01*
X45825615Y-23288047D01*
X47665507Y-21448155D01*
X49151845Y-22934493D01*
X49151845Y-22934493D01*
G37*
G36*
X50212505Y-16782664D02*
G01*
X49310943Y-17684226D01*
X49222556Y-17772614D01*
X48372614Y-18622556D01*
X48284226Y-18710943D01*
X47382664Y-19612505D01*
X45542772Y-17772613D01*
X46392714Y-16922671D01*
X46392715Y-16922672D01*
X46481092Y-16834294D01*
X46481103Y-16834285D01*
X46532723Y-16782665D01*
X46532722Y-16782664D01*
X47382664Y-15932722D01*
X47382665Y-15932723D01*
X47434285Y-15881103D01*
X47434294Y-15881092D01*
X47522672Y-15792715D01*
X47522671Y-15792714D01*
X48372613Y-14942772D01*
X50212505Y-16782664D01*
X50212505Y-16782664D01*
G37*
G36*
X55374385Y-16711953D02*
G01*
X53534493Y-18551845D01*
X52048155Y-17065507D01*
X53888047Y-15225615D01*
X55374385Y-16711953D01*
X55374385Y-16711953D01*
G37*
G36*
X86289499Y-17478445D02*
G01*
X86326995Y-17489820D01*
X86361554Y-17508292D01*
X86391847Y-17533153D01*
X86416708Y-17563446D01*
X86435180Y-17598005D01*
X86446555Y-17635501D01*
X86451000Y-17680638D01*
X86451000Y-18319362D01*
X86446555Y-18364499D01*
X86435180Y-18401995D01*
X86416708Y-18436554D01*
X86391847Y-18466847D01*
X86361554Y-18491708D01*
X86326995Y-18510180D01*
X86289499Y-18521555D01*
X86244362Y-18526000D01*
X85505638Y-18526000D01*
X85460501Y-18521555D01*
X85423005Y-18510180D01*
X85388446Y-18491708D01*
X85358153Y-18466847D01*
X85333292Y-18436554D01*
X85314820Y-18401995D01*
X85303445Y-18364499D01*
X85299000Y-18319362D01*
X85299000Y-17680638D01*
X85303445Y-17635501D01*
X85314820Y-17598005D01*
X85333292Y-17563446D01*
X85358153Y-17533153D01*
X85388446Y-17508292D01*
X85423005Y-17489820D01*
X85460501Y-17478445D01*
X85505638Y-17474000D01*
X86244362Y-17474000D01*
X86289499Y-17478445D01*
X86289499Y-17478445D01*
G37*
G36*
X84539499Y-17478445D02*
G01*
X84576995Y-17489820D01*
X84611554Y-17508292D01*
X84641847Y-17533153D01*
X84666708Y-17563446D01*
X84685180Y-17598005D01*
X84696555Y-17635501D01*
X84701000Y-17680638D01*
X84701000Y-18319362D01*
X84696555Y-18364499D01*
X84685180Y-18401995D01*
X84666708Y-18436554D01*
X84641847Y-18466847D01*
X84611554Y-18491708D01*
X84576995Y-18510180D01*
X84539499Y-18521555D01*
X84494362Y-18526000D01*
X83755638Y-18526000D01*
X83710501Y-18521555D01*
X83673005Y-18510180D01*
X83638446Y-18491708D01*
X83608153Y-18466847D01*
X83583292Y-18436554D01*
X83564820Y-18401995D01*
X83553445Y-18364499D01*
X83549000Y-18319362D01*
X83549000Y-17680638D01*
X83553445Y-17635501D01*
X83564820Y-17598005D01*
X83583292Y-17563446D01*
X83608153Y-17533153D01*
X83638446Y-17508292D01*
X83673005Y-17489820D01*
X83710501Y-17478445D01*
X83755638Y-17474000D01*
X84494362Y-17474000D01*
X84539499Y-17478445D01*
X84539499Y-17478445D01*
G37*
G36*
X16289499Y-9478445D02*
G01*
X16326995Y-9489820D01*
X16361554Y-9508292D01*
X16391847Y-9533153D01*
X16416708Y-9563446D01*
X16435180Y-9598005D01*
X16446555Y-9635501D01*
X16451000Y-9680638D01*
X16451000Y-10319362D01*
X16446555Y-10364499D01*
X16435180Y-10401995D01*
X16416708Y-10436554D01*
X16391847Y-10466847D01*
X16361554Y-10491708D01*
X16326995Y-10510180D01*
X16289499Y-10521555D01*
X16244362Y-10526000D01*
X15505638Y-10526000D01*
X15460501Y-10521555D01*
X15423005Y-10510180D01*
X15388446Y-10491708D01*
X15358153Y-10466847D01*
X15333292Y-10436554D01*
X15314820Y-10401995D01*
X15303445Y-10364499D01*
X15299000Y-10319362D01*
X15299000Y-9680638D01*
X15303445Y-9635501D01*
X15314820Y-9598005D01*
X15333292Y-9563446D01*
X15358153Y-9533153D01*
X15388446Y-9508292D01*
X15423005Y-9489820D01*
X15460501Y-9478445D01*
X15505638Y-9474000D01*
X16244362Y-9474000D01*
X16289499Y-9478445D01*
X16289499Y-9478445D01*
G37*
G36*
X14539499Y-9478445D02*
G01*
X14576995Y-9489820D01*
X14611554Y-9508292D01*
X14641847Y-9533153D01*
X14666708Y-9563446D01*
X14685180Y-9598005D01*
X14696555Y-9635501D01*
X14701000Y-9680638D01*
X14701000Y-10319362D01*
X14696555Y-10364499D01*
X14685180Y-10401995D01*
X14666708Y-10436554D01*
X14641847Y-10466847D01*
X14611554Y-10491708D01*
X14576995Y-10510180D01*
X14539499Y-10521555D01*
X14494362Y-10526000D01*
X13755638Y-10526000D01*
X13710501Y-10521555D01*
X13673005Y-10510180D01*
X13638446Y-10491708D01*
X13608153Y-10466847D01*
X13583292Y-10436554D01*
X13564820Y-10401995D01*
X13553445Y-10364499D01*
X13549000Y-10319362D01*
X13549000Y-9680638D01*
X13553445Y-9635501D01*
X13564820Y-9598005D01*
X13583292Y-9563446D01*
X13608153Y-9533153D01*
X13638446Y-9508292D01*
X13673005Y-9489820D01*
X13710501Y-9478445D01*
X13755638Y-9474000D01*
X14494362Y-9474000D01*
X14539499Y-9478445D01*
X14539499Y-9478445D01*
G37*
M02*
