G04 #@! TF.GenerationSoftware,KiCad,Pcbnew,5.1.3-ffb9f22~84~ubuntu18.10.1*
G04 #@! TF.CreationDate,2020-02-01T18:16:24-05:00*
G04 #@! TF.ProjectId,FIFO_Clock,4649464f-5f43-46c6-9f63-6b2e6b696361,rev?*
G04 #@! TF.SameCoordinates,PX2faf080PY2faf080*
G04 #@! TF.FileFunction,Paste,Bot*
G04 #@! TF.FilePolarity,Positive*
%FSLAX46Y46*%
G04 Gerber Fmt 4.6, Leading zero omitted, Abs format (unit mm)*
G04 Created by KiCad (PCBNEW 5.1.3-ffb9f22~84~ubuntu18.10.1) date 2020-02-01 18:16:24*
%MOMM*%
%LPD*%
G04 APERTURE LIST*
%ADD10R,1.150000X0.600000*%
%ADD11R,1.150000X0.300000*%
%ADD12C,1.100000*%
%ADD13C,0.100000*%
%ADD14C,2.000000*%
%ADD15C,0.950000*%
%ADD16R,1.200000X0.900000*%
%ADD17C,0.975000*%
%ADD18R,1.400000X1.600000*%
%ADD19C,0.600000*%
%ADD20C,1.600000*%
G04 APERTURE END LIST*
D10*
X92645000Y-93200000D03*
X92645000Y-92400000D03*
X92645000Y-86800000D03*
X92645000Y-87600000D03*
D11*
X92645000Y-88250000D03*
X92645000Y-88750000D03*
X92645000Y-89250000D03*
X92645000Y-89750000D03*
X92645000Y-90250000D03*
X92645000Y-90750000D03*
X92645000Y-91250000D03*
X92645000Y-91750000D03*
D12*
X54312311Y-21732412D03*
D13*
G36*
X53039519Y-21237437D02*
G01*
X53817336Y-20459620D01*
X55585103Y-22227387D01*
X54807286Y-23005204D01*
X53039519Y-21237437D01*
X53039519Y-21237437D01*
G37*
D12*
X52332412Y-23712311D03*
D13*
G36*
X51059620Y-23217336D02*
G01*
X51837437Y-22439519D01*
X53605204Y-24207286D01*
X52827387Y-24985103D01*
X51059620Y-23217336D01*
X51059620Y-23217336D01*
G37*
D12*
X53322361Y-22722361D03*
D13*
G36*
X52049569Y-22227386D02*
G01*
X52827386Y-21449569D01*
X54595153Y-23217336D01*
X53817336Y-23995153D01*
X52049569Y-22227386D01*
X52049569Y-22227386D01*
G37*
D14*
X47488730Y-23111270D03*
D13*
G36*
X45897740Y-23288047D02*
G01*
X47665507Y-21520280D01*
X49079720Y-22934493D01*
X47311953Y-24702260D01*
X45897740Y-23288047D01*
X45897740Y-23288047D01*
G37*
D14*
X53711270Y-16888730D03*
D13*
G36*
X52120280Y-17065507D02*
G01*
X53888047Y-15297740D01*
X55302260Y-16711953D01*
X53534493Y-18479720D01*
X52120280Y-17065507D01*
X52120280Y-17065507D01*
G37*
D12*
X47877639Y-17277639D03*
D13*
G36*
X49150431Y-17772614D02*
G01*
X48372614Y-18550431D01*
X46604847Y-16782664D01*
X47382664Y-16004847D01*
X49150431Y-17772614D01*
X49150431Y-17772614D01*
G37*
D12*
X48867588Y-16287689D03*
D13*
G36*
X50140380Y-16782664D02*
G01*
X49362563Y-17560481D01*
X47594796Y-15792714D01*
X48372613Y-15014897D01*
X50140380Y-16782664D01*
X50140380Y-16782664D01*
G37*
D12*
X46887689Y-18267588D03*
D13*
G36*
X48160481Y-18762563D02*
G01*
X47382664Y-19540380D01*
X45614897Y-17772613D01*
X46392714Y-16994796D01*
X48160481Y-18762563D01*
X48160481Y-18762563D01*
G37*
G36*
X76060779Y-79226144D02*
G01*
X76083834Y-79229563D01*
X76106443Y-79235227D01*
X76128387Y-79243079D01*
X76149457Y-79253044D01*
X76169448Y-79265026D01*
X76188168Y-79278910D01*
X76205438Y-79294562D01*
X76221090Y-79311832D01*
X76234974Y-79330552D01*
X76246956Y-79350543D01*
X76256921Y-79371613D01*
X76264773Y-79393557D01*
X76270437Y-79416166D01*
X76273856Y-79439221D01*
X76275000Y-79462500D01*
X76275000Y-80037500D01*
X76273856Y-80060779D01*
X76270437Y-80083834D01*
X76264773Y-80106443D01*
X76256921Y-80128387D01*
X76246956Y-80149457D01*
X76234974Y-80169448D01*
X76221090Y-80188168D01*
X76205438Y-80205438D01*
X76188168Y-80221090D01*
X76169448Y-80234974D01*
X76149457Y-80246956D01*
X76128387Y-80256921D01*
X76106443Y-80264773D01*
X76083834Y-80270437D01*
X76060779Y-80273856D01*
X76037500Y-80275000D01*
X75562500Y-80275000D01*
X75539221Y-80273856D01*
X75516166Y-80270437D01*
X75493557Y-80264773D01*
X75471613Y-80256921D01*
X75450543Y-80246956D01*
X75430552Y-80234974D01*
X75411832Y-80221090D01*
X75394562Y-80205438D01*
X75378910Y-80188168D01*
X75365026Y-80169448D01*
X75353044Y-80149457D01*
X75343079Y-80128387D01*
X75335227Y-80106443D01*
X75329563Y-80083834D01*
X75326144Y-80060779D01*
X75325000Y-80037500D01*
X75325000Y-79462500D01*
X75326144Y-79439221D01*
X75329563Y-79416166D01*
X75335227Y-79393557D01*
X75343079Y-79371613D01*
X75353044Y-79350543D01*
X75365026Y-79330552D01*
X75378910Y-79311832D01*
X75394562Y-79294562D01*
X75411832Y-79278910D01*
X75430552Y-79265026D01*
X75450543Y-79253044D01*
X75471613Y-79243079D01*
X75493557Y-79235227D01*
X75516166Y-79229563D01*
X75539221Y-79226144D01*
X75562500Y-79225000D01*
X76037500Y-79225000D01*
X76060779Y-79226144D01*
X76060779Y-79226144D01*
G37*
D15*
X75800000Y-79750000D03*
D13*
G36*
X76060779Y-77476144D02*
G01*
X76083834Y-77479563D01*
X76106443Y-77485227D01*
X76128387Y-77493079D01*
X76149457Y-77503044D01*
X76169448Y-77515026D01*
X76188168Y-77528910D01*
X76205438Y-77544562D01*
X76221090Y-77561832D01*
X76234974Y-77580552D01*
X76246956Y-77600543D01*
X76256921Y-77621613D01*
X76264773Y-77643557D01*
X76270437Y-77666166D01*
X76273856Y-77689221D01*
X76275000Y-77712500D01*
X76275000Y-78287500D01*
X76273856Y-78310779D01*
X76270437Y-78333834D01*
X76264773Y-78356443D01*
X76256921Y-78378387D01*
X76246956Y-78399457D01*
X76234974Y-78419448D01*
X76221090Y-78438168D01*
X76205438Y-78455438D01*
X76188168Y-78471090D01*
X76169448Y-78484974D01*
X76149457Y-78496956D01*
X76128387Y-78506921D01*
X76106443Y-78514773D01*
X76083834Y-78520437D01*
X76060779Y-78523856D01*
X76037500Y-78525000D01*
X75562500Y-78525000D01*
X75539221Y-78523856D01*
X75516166Y-78520437D01*
X75493557Y-78514773D01*
X75471613Y-78506921D01*
X75450543Y-78496956D01*
X75430552Y-78484974D01*
X75411832Y-78471090D01*
X75394562Y-78455438D01*
X75378910Y-78438168D01*
X75365026Y-78419448D01*
X75353044Y-78399457D01*
X75343079Y-78378387D01*
X75335227Y-78356443D01*
X75329563Y-78333834D01*
X75326144Y-78310779D01*
X75325000Y-78287500D01*
X75325000Y-77712500D01*
X75326144Y-77689221D01*
X75329563Y-77666166D01*
X75335227Y-77643557D01*
X75343079Y-77621613D01*
X75353044Y-77600543D01*
X75365026Y-77580552D01*
X75378910Y-77561832D01*
X75394562Y-77544562D01*
X75411832Y-77528910D01*
X75430552Y-77515026D01*
X75450543Y-77503044D01*
X75471613Y-77493079D01*
X75493557Y-77485227D01*
X75516166Y-77479563D01*
X75539221Y-77476144D01*
X75562500Y-77475000D01*
X76037500Y-77475000D01*
X76060779Y-77476144D01*
X76060779Y-77476144D01*
G37*
D15*
X75800000Y-78000000D03*
D13*
G36*
X14435779Y-9526144D02*
G01*
X14458834Y-9529563D01*
X14481443Y-9535227D01*
X14503387Y-9543079D01*
X14524457Y-9553044D01*
X14544448Y-9565026D01*
X14563168Y-9578910D01*
X14580438Y-9594562D01*
X14596090Y-9611832D01*
X14609974Y-9630552D01*
X14621956Y-9650543D01*
X14631921Y-9671613D01*
X14639773Y-9693557D01*
X14645437Y-9716166D01*
X14648856Y-9739221D01*
X14650000Y-9762500D01*
X14650000Y-10237500D01*
X14648856Y-10260779D01*
X14645437Y-10283834D01*
X14639773Y-10306443D01*
X14631921Y-10328387D01*
X14621956Y-10349457D01*
X14609974Y-10369448D01*
X14596090Y-10388168D01*
X14580438Y-10405438D01*
X14563168Y-10421090D01*
X14544448Y-10434974D01*
X14524457Y-10446956D01*
X14503387Y-10456921D01*
X14481443Y-10464773D01*
X14458834Y-10470437D01*
X14435779Y-10473856D01*
X14412500Y-10475000D01*
X13837500Y-10475000D01*
X13814221Y-10473856D01*
X13791166Y-10470437D01*
X13768557Y-10464773D01*
X13746613Y-10456921D01*
X13725543Y-10446956D01*
X13705552Y-10434974D01*
X13686832Y-10421090D01*
X13669562Y-10405438D01*
X13653910Y-10388168D01*
X13640026Y-10369448D01*
X13628044Y-10349457D01*
X13618079Y-10328387D01*
X13610227Y-10306443D01*
X13604563Y-10283834D01*
X13601144Y-10260779D01*
X13600000Y-10237500D01*
X13600000Y-9762500D01*
X13601144Y-9739221D01*
X13604563Y-9716166D01*
X13610227Y-9693557D01*
X13618079Y-9671613D01*
X13628044Y-9650543D01*
X13640026Y-9630552D01*
X13653910Y-9611832D01*
X13669562Y-9594562D01*
X13686832Y-9578910D01*
X13705552Y-9565026D01*
X13725543Y-9553044D01*
X13746613Y-9543079D01*
X13768557Y-9535227D01*
X13791166Y-9529563D01*
X13814221Y-9526144D01*
X13837500Y-9525000D01*
X14412500Y-9525000D01*
X14435779Y-9526144D01*
X14435779Y-9526144D01*
G37*
D15*
X14125000Y-10000000D03*
D13*
G36*
X16185779Y-9526144D02*
G01*
X16208834Y-9529563D01*
X16231443Y-9535227D01*
X16253387Y-9543079D01*
X16274457Y-9553044D01*
X16294448Y-9565026D01*
X16313168Y-9578910D01*
X16330438Y-9594562D01*
X16346090Y-9611832D01*
X16359974Y-9630552D01*
X16371956Y-9650543D01*
X16381921Y-9671613D01*
X16389773Y-9693557D01*
X16395437Y-9716166D01*
X16398856Y-9739221D01*
X16400000Y-9762500D01*
X16400000Y-10237500D01*
X16398856Y-10260779D01*
X16395437Y-10283834D01*
X16389773Y-10306443D01*
X16381921Y-10328387D01*
X16371956Y-10349457D01*
X16359974Y-10369448D01*
X16346090Y-10388168D01*
X16330438Y-10405438D01*
X16313168Y-10421090D01*
X16294448Y-10434974D01*
X16274457Y-10446956D01*
X16253387Y-10456921D01*
X16231443Y-10464773D01*
X16208834Y-10470437D01*
X16185779Y-10473856D01*
X16162500Y-10475000D01*
X15587500Y-10475000D01*
X15564221Y-10473856D01*
X15541166Y-10470437D01*
X15518557Y-10464773D01*
X15496613Y-10456921D01*
X15475543Y-10446956D01*
X15455552Y-10434974D01*
X15436832Y-10421090D01*
X15419562Y-10405438D01*
X15403910Y-10388168D01*
X15390026Y-10369448D01*
X15378044Y-10349457D01*
X15368079Y-10328387D01*
X15360227Y-10306443D01*
X15354563Y-10283834D01*
X15351144Y-10260779D01*
X15350000Y-10237500D01*
X15350000Y-9762500D01*
X15351144Y-9739221D01*
X15354563Y-9716166D01*
X15360227Y-9693557D01*
X15368079Y-9671613D01*
X15378044Y-9650543D01*
X15390026Y-9630552D01*
X15403910Y-9611832D01*
X15419562Y-9594562D01*
X15436832Y-9578910D01*
X15455552Y-9565026D01*
X15475543Y-9553044D01*
X15496613Y-9543079D01*
X15518557Y-9535227D01*
X15541166Y-9529563D01*
X15564221Y-9526144D01*
X15587500Y-9525000D01*
X16162500Y-9525000D01*
X16185779Y-9526144D01*
X16185779Y-9526144D01*
G37*
D15*
X15875000Y-10000000D03*
D13*
G36*
X16185779Y-25526144D02*
G01*
X16208834Y-25529563D01*
X16231443Y-25535227D01*
X16253387Y-25543079D01*
X16274457Y-25553044D01*
X16294448Y-25565026D01*
X16313168Y-25578910D01*
X16330438Y-25594562D01*
X16346090Y-25611832D01*
X16359974Y-25630552D01*
X16371956Y-25650543D01*
X16381921Y-25671613D01*
X16389773Y-25693557D01*
X16395437Y-25716166D01*
X16398856Y-25739221D01*
X16400000Y-25762500D01*
X16400000Y-26237500D01*
X16398856Y-26260779D01*
X16395437Y-26283834D01*
X16389773Y-26306443D01*
X16381921Y-26328387D01*
X16371956Y-26349457D01*
X16359974Y-26369448D01*
X16346090Y-26388168D01*
X16330438Y-26405438D01*
X16313168Y-26421090D01*
X16294448Y-26434974D01*
X16274457Y-26446956D01*
X16253387Y-26456921D01*
X16231443Y-26464773D01*
X16208834Y-26470437D01*
X16185779Y-26473856D01*
X16162500Y-26475000D01*
X15587500Y-26475000D01*
X15564221Y-26473856D01*
X15541166Y-26470437D01*
X15518557Y-26464773D01*
X15496613Y-26456921D01*
X15475543Y-26446956D01*
X15455552Y-26434974D01*
X15436832Y-26421090D01*
X15419562Y-26405438D01*
X15403910Y-26388168D01*
X15390026Y-26369448D01*
X15378044Y-26349457D01*
X15368079Y-26328387D01*
X15360227Y-26306443D01*
X15354563Y-26283834D01*
X15351144Y-26260779D01*
X15350000Y-26237500D01*
X15350000Y-25762500D01*
X15351144Y-25739221D01*
X15354563Y-25716166D01*
X15360227Y-25693557D01*
X15368079Y-25671613D01*
X15378044Y-25650543D01*
X15390026Y-25630552D01*
X15403910Y-25611832D01*
X15419562Y-25594562D01*
X15436832Y-25578910D01*
X15455552Y-25565026D01*
X15475543Y-25553044D01*
X15496613Y-25543079D01*
X15518557Y-25535227D01*
X15541166Y-25529563D01*
X15564221Y-25526144D01*
X15587500Y-25525000D01*
X16162500Y-25525000D01*
X16185779Y-25526144D01*
X16185779Y-25526144D01*
G37*
D15*
X15875000Y-26000000D03*
D13*
G36*
X14435779Y-25526144D02*
G01*
X14458834Y-25529563D01*
X14481443Y-25535227D01*
X14503387Y-25543079D01*
X14524457Y-25553044D01*
X14544448Y-25565026D01*
X14563168Y-25578910D01*
X14580438Y-25594562D01*
X14596090Y-25611832D01*
X14609974Y-25630552D01*
X14621956Y-25650543D01*
X14631921Y-25671613D01*
X14639773Y-25693557D01*
X14645437Y-25716166D01*
X14648856Y-25739221D01*
X14650000Y-25762500D01*
X14650000Y-26237500D01*
X14648856Y-26260779D01*
X14645437Y-26283834D01*
X14639773Y-26306443D01*
X14631921Y-26328387D01*
X14621956Y-26349457D01*
X14609974Y-26369448D01*
X14596090Y-26388168D01*
X14580438Y-26405438D01*
X14563168Y-26421090D01*
X14544448Y-26434974D01*
X14524457Y-26446956D01*
X14503387Y-26456921D01*
X14481443Y-26464773D01*
X14458834Y-26470437D01*
X14435779Y-26473856D01*
X14412500Y-26475000D01*
X13837500Y-26475000D01*
X13814221Y-26473856D01*
X13791166Y-26470437D01*
X13768557Y-26464773D01*
X13746613Y-26456921D01*
X13725543Y-26446956D01*
X13705552Y-26434974D01*
X13686832Y-26421090D01*
X13669562Y-26405438D01*
X13653910Y-26388168D01*
X13640026Y-26369448D01*
X13628044Y-26349457D01*
X13618079Y-26328387D01*
X13610227Y-26306443D01*
X13604563Y-26283834D01*
X13601144Y-26260779D01*
X13600000Y-26237500D01*
X13600000Y-25762500D01*
X13601144Y-25739221D01*
X13604563Y-25716166D01*
X13610227Y-25693557D01*
X13618079Y-25671613D01*
X13628044Y-25650543D01*
X13640026Y-25630552D01*
X13653910Y-25611832D01*
X13669562Y-25594562D01*
X13686832Y-25578910D01*
X13705552Y-25565026D01*
X13725543Y-25553044D01*
X13746613Y-25543079D01*
X13768557Y-25535227D01*
X13791166Y-25529563D01*
X13814221Y-25526144D01*
X13837500Y-25525000D01*
X14412500Y-25525000D01*
X14435779Y-25526144D01*
X14435779Y-25526144D01*
G37*
D15*
X14125000Y-26000000D03*
D13*
G36*
X14435779Y-41526144D02*
G01*
X14458834Y-41529563D01*
X14481443Y-41535227D01*
X14503387Y-41543079D01*
X14524457Y-41553044D01*
X14544448Y-41565026D01*
X14563168Y-41578910D01*
X14580438Y-41594562D01*
X14596090Y-41611832D01*
X14609974Y-41630552D01*
X14621956Y-41650543D01*
X14631921Y-41671613D01*
X14639773Y-41693557D01*
X14645437Y-41716166D01*
X14648856Y-41739221D01*
X14650000Y-41762500D01*
X14650000Y-42237500D01*
X14648856Y-42260779D01*
X14645437Y-42283834D01*
X14639773Y-42306443D01*
X14631921Y-42328387D01*
X14621956Y-42349457D01*
X14609974Y-42369448D01*
X14596090Y-42388168D01*
X14580438Y-42405438D01*
X14563168Y-42421090D01*
X14544448Y-42434974D01*
X14524457Y-42446956D01*
X14503387Y-42456921D01*
X14481443Y-42464773D01*
X14458834Y-42470437D01*
X14435779Y-42473856D01*
X14412500Y-42475000D01*
X13837500Y-42475000D01*
X13814221Y-42473856D01*
X13791166Y-42470437D01*
X13768557Y-42464773D01*
X13746613Y-42456921D01*
X13725543Y-42446956D01*
X13705552Y-42434974D01*
X13686832Y-42421090D01*
X13669562Y-42405438D01*
X13653910Y-42388168D01*
X13640026Y-42369448D01*
X13628044Y-42349457D01*
X13618079Y-42328387D01*
X13610227Y-42306443D01*
X13604563Y-42283834D01*
X13601144Y-42260779D01*
X13600000Y-42237500D01*
X13600000Y-41762500D01*
X13601144Y-41739221D01*
X13604563Y-41716166D01*
X13610227Y-41693557D01*
X13618079Y-41671613D01*
X13628044Y-41650543D01*
X13640026Y-41630552D01*
X13653910Y-41611832D01*
X13669562Y-41594562D01*
X13686832Y-41578910D01*
X13705552Y-41565026D01*
X13725543Y-41553044D01*
X13746613Y-41543079D01*
X13768557Y-41535227D01*
X13791166Y-41529563D01*
X13814221Y-41526144D01*
X13837500Y-41525000D01*
X14412500Y-41525000D01*
X14435779Y-41526144D01*
X14435779Y-41526144D01*
G37*
D15*
X14125000Y-42000000D03*
D13*
G36*
X16185779Y-41526144D02*
G01*
X16208834Y-41529563D01*
X16231443Y-41535227D01*
X16253387Y-41543079D01*
X16274457Y-41553044D01*
X16294448Y-41565026D01*
X16313168Y-41578910D01*
X16330438Y-41594562D01*
X16346090Y-41611832D01*
X16359974Y-41630552D01*
X16371956Y-41650543D01*
X16381921Y-41671613D01*
X16389773Y-41693557D01*
X16395437Y-41716166D01*
X16398856Y-41739221D01*
X16400000Y-41762500D01*
X16400000Y-42237500D01*
X16398856Y-42260779D01*
X16395437Y-42283834D01*
X16389773Y-42306443D01*
X16381921Y-42328387D01*
X16371956Y-42349457D01*
X16359974Y-42369448D01*
X16346090Y-42388168D01*
X16330438Y-42405438D01*
X16313168Y-42421090D01*
X16294448Y-42434974D01*
X16274457Y-42446956D01*
X16253387Y-42456921D01*
X16231443Y-42464773D01*
X16208834Y-42470437D01*
X16185779Y-42473856D01*
X16162500Y-42475000D01*
X15587500Y-42475000D01*
X15564221Y-42473856D01*
X15541166Y-42470437D01*
X15518557Y-42464773D01*
X15496613Y-42456921D01*
X15475543Y-42446956D01*
X15455552Y-42434974D01*
X15436832Y-42421090D01*
X15419562Y-42405438D01*
X15403910Y-42388168D01*
X15390026Y-42369448D01*
X15378044Y-42349457D01*
X15368079Y-42328387D01*
X15360227Y-42306443D01*
X15354563Y-42283834D01*
X15351144Y-42260779D01*
X15350000Y-42237500D01*
X15350000Y-41762500D01*
X15351144Y-41739221D01*
X15354563Y-41716166D01*
X15360227Y-41693557D01*
X15368079Y-41671613D01*
X15378044Y-41650543D01*
X15390026Y-41630552D01*
X15403910Y-41611832D01*
X15419562Y-41594562D01*
X15436832Y-41578910D01*
X15455552Y-41565026D01*
X15475543Y-41553044D01*
X15496613Y-41543079D01*
X15518557Y-41535227D01*
X15541166Y-41529563D01*
X15564221Y-41526144D01*
X15587500Y-41525000D01*
X16162500Y-41525000D01*
X16185779Y-41526144D01*
X16185779Y-41526144D01*
G37*
D15*
X15875000Y-42000000D03*
D13*
G36*
X16185779Y-57526144D02*
G01*
X16208834Y-57529563D01*
X16231443Y-57535227D01*
X16253387Y-57543079D01*
X16274457Y-57553044D01*
X16294448Y-57565026D01*
X16313168Y-57578910D01*
X16330438Y-57594562D01*
X16346090Y-57611832D01*
X16359974Y-57630552D01*
X16371956Y-57650543D01*
X16381921Y-57671613D01*
X16389773Y-57693557D01*
X16395437Y-57716166D01*
X16398856Y-57739221D01*
X16400000Y-57762500D01*
X16400000Y-58237500D01*
X16398856Y-58260779D01*
X16395437Y-58283834D01*
X16389773Y-58306443D01*
X16381921Y-58328387D01*
X16371956Y-58349457D01*
X16359974Y-58369448D01*
X16346090Y-58388168D01*
X16330438Y-58405438D01*
X16313168Y-58421090D01*
X16294448Y-58434974D01*
X16274457Y-58446956D01*
X16253387Y-58456921D01*
X16231443Y-58464773D01*
X16208834Y-58470437D01*
X16185779Y-58473856D01*
X16162500Y-58475000D01*
X15587500Y-58475000D01*
X15564221Y-58473856D01*
X15541166Y-58470437D01*
X15518557Y-58464773D01*
X15496613Y-58456921D01*
X15475543Y-58446956D01*
X15455552Y-58434974D01*
X15436832Y-58421090D01*
X15419562Y-58405438D01*
X15403910Y-58388168D01*
X15390026Y-58369448D01*
X15378044Y-58349457D01*
X15368079Y-58328387D01*
X15360227Y-58306443D01*
X15354563Y-58283834D01*
X15351144Y-58260779D01*
X15350000Y-58237500D01*
X15350000Y-57762500D01*
X15351144Y-57739221D01*
X15354563Y-57716166D01*
X15360227Y-57693557D01*
X15368079Y-57671613D01*
X15378044Y-57650543D01*
X15390026Y-57630552D01*
X15403910Y-57611832D01*
X15419562Y-57594562D01*
X15436832Y-57578910D01*
X15455552Y-57565026D01*
X15475543Y-57553044D01*
X15496613Y-57543079D01*
X15518557Y-57535227D01*
X15541166Y-57529563D01*
X15564221Y-57526144D01*
X15587500Y-57525000D01*
X16162500Y-57525000D01*
X16185779Y-57526144D01*
X16185779Y-57526144D01*
G37*
D15*
X15875000Y-58000000D03*
D13*
G36*
X14435779Y-57526144D02*
G01*
X14458834Y-57529563D01*
X14481443Y-57535227D01*
X14503387Y-57543079D01*
X14524457Y-57553044D01*
X14544448Y-57565026D01*
X14563168Y-57578910D01*
X14580438Y-57594562D01*
X14596090Y-57611832D01*
X14609974Y-57630552D01*
X14621956Y-57650543D01*
X14631921Y-57671613D01*
X14639773Y-57693557D01*
X14645437Y-57716166D01*
X14648856Y-57739221D01*
X14650000Y-57762500D01*
X14650000Y-58237500D01*
X14648856Y-58260779D01*
X14645437Y-58283834D01*
X14639773Y-58306443D01*
X14631921Y-58328387D01*
X14621956Y-58349457D01*
X14609974Y-58369448D01*
X14596090Y-58388168D01*
X14580438Y-58405438D01*
X14563168Y-58421090D01*
X14544448Y-58434974D01*
X14524457Y-58446956D01*
X14503387Y-58456921D01*
X14481443Y-58464773D01*
X14458834Y-58470437D01*
X14435779Y-58473856D01*
X14412500Y-58475000D01*
X13837500Y-58475000D01*
X13814221Y-58473856D01*
X13791166Y-58470437D01*
X13768557Y-58464773D01*
X13746613Y-58456921D01*
X13725543Y-58446956D01*
X13705552Y-58434974D01*
X13686832Y-58421090D01*
X13669562Y-58405438D01*
X13653910Y-58388168D01*
X13640026Y-58369448D01*
X13628044Y-58349457D01*
X13618079Y-58328387D01*
X13610227Y-58306443D01*
X13604563Y-58283834D01*
X13601144Y-58260779D01*
X13600000Y-58237500D01*
X13600000Y-57762500D01*
X13601144Y-57739221D01*
X13604563Y-57716166D01*
X13610227Y-57693557D01*
X13618079Y-57671613D01*
X13628044Y-57650543D01*
X13640026Y-57630552D01*
X13653910Y-57611832D01*
X13669562Y-57594562D01*
X13686832Y-57578910D01*
X13705552Y-57565026D01*
X13725543Y-57553044D01*
X13746613Y-57543079D01*
X13768557Y-57535227D01*
X13791166Y-57529563D01*
X13814221Y-57526144D01*
X13837500Y-57525000D01*
X14412500Y-57525000D01*
X14435779Y-57526144D01*
X14435779Y-57526144D01*
G37*
D15*
X14125000Y-58000000D03*
D13*
G36*
X14435779Y-73526144D02*
G01*
X14458834Y-73529563D01*
X14481443Y-73535227D01*
X14503387Y-73543079D01*
X14524457Y-73553044D01*
X14544448Y-73565026D01*
X14563168Y-73578910D01*
X14580438Y-73594562D01*
X14596090Y-73611832D01*
X14609974Y-73630552D01*
X14621956Y-73650543D01*
X14631921Y-73671613D01*
X14639773Y-73693557D01*
X14645437Y-73716166D01*
X14648856Y-73739221D01*
X14650000Y-73762500D01*
X14650000Y-74237500D01*
X14648856Y-74260779D01*
X14645437Y-74283834D01*
X14639773Y-74306443D01*
X14631921Y-74328387D01*
X14621956Y-74349457D01*
X14609974Y-74369448D01*
X14596090Y-74388168D01*
X14580438Y-74405438D01*
X14563168Y-74421090D01*
X14544448Y-74434974D01*
X14524457Y-74446956D01*
X14503387Y-74456921D01*
X14481443Y-74464773D01*
X14458834Y-74470437D01*
X14435779Y-74473856D01*
X14412500Y-74475000D01*
X13837500Y-74475000D01*
X13814221Y-74473856D01*
X13791166Y-74470437D01*
X13768557Y-74464773D01*
X13746613Y-74456921D01*
X13725543Y-74446956D01*
X13705552Y-74434974D01*
X13686832Y-74421090D01*
X13669562Y-74405438D01*
X13653910Y-74388168D01*
X13640026Y-74369448D01*
X13628044Y-74349457D01*
X13618079Y-74328387D01*
X13610227Y-74306443D01*
X13604563Y-74283834D01*
X13601144Y-74260779D01*
X13600000Y-74237500D01*
X13600000Y-73762500D01*
X13601144Y-73739221D01*
X13604563Y-73716166D01*
X13610227Y-73693557D01*
X13618079Y-73671613D01*
X13628044Y-73650543D01*
X13640026Y-73630552D01*
X13653910Y-73611832D01*
X13669562Y-73594562D01*
X13686832Y-73578910D01*
X13705552Y-73565026D01*
X13725543Y-73553044D01*
X13746613Y-73543079D01*
X13768557Y-73535227D01*
X13791166Y-73529563D01*
X13814221Y-73526144D01*
X13837500Y-73525000D01*
X14412500Y-73525000D01*
X14435779Y-73526144D01*
X14435779Y-73526144D01*
G37*
D15*
X14125000Y-74000000D03*
D13*
G36*
X16185779Y-73526144D02*
G01*
X16208834Y-73529563D01*
X16231443Y-73535227D01*
X16253387Y-73543079D01*
X16274457Y-73553044D01*
X16294448Y-73565026D01*
X16313168Y-73578910D01*
X16330438Y-73594562D01*
X16346090Y-73611832D01*
X16359974Y-73630552D01*
X16371956Y-73650543D01*
X16381921Y-73671613D01*
X16389773Y-73693557D01*
X16395437Y-73716166D01*
X16398856Y-73739221D01*
X16400000Y-73762500D01*
X16400000Y-74237500D01*
X16398856Y-74260779D01*
X16395437Y-74283834D01*
X16389773Y-74306443D01*
X16381921Y-74328387D01*
X16371956Y-74349457D01*
X16359974Y-74369448D01*
X16346090Y-74388168D01*
X16330438Y-74405438D01*
X16313168Y-74421090D01*
X16294448Y-74434974D01*
X16274457Y-74446956D01*
X16253387Y-74456921D01*
X16231443Y-74464773D01*
X16208834Y-74470437D01*
X16185779Y-74473856D01*
X16162500Y-74475000D01*
X15587500Y-74475000D01*
X15564221Y-74473856D01*
X15541166Y-74470437D01*
X15518557Y-74464773D01*
X15496613Y-74456921D01*
X15475543Y-74446956D01*
X15455552Y-74434974D01*
X15436832Y-74421090D01*
X15419562Y-74405438D01*
X15403910Y-74388168D01*
X15390026Y-74369448D01*
X15378044Y-74349457D01*
X15368079Y-74328387D01*
X15360227Y-74306443D01*
X15354563Y-74283834D01*
X15351144Y-74260779D01*
X15350000Y-74237500D01*
X15350000Y-73762500D01*
X15351144Y-73739221D01*
X15354563Y-73716166D01*
X15360227Y-73693557D01*
X15368079Y-73671613D01*
X15378044Y-73650543D01*
X15390026Y-73630552D01*
X15403910Y-73611832D01*
X15419562Y-73594562D01*
X15436832Y-73578910D01*
X15455552Y-73565026D01*
X15475543Y-73553044D01*
X15496613Y-73543079D01*
X15518557Y-73535227D01*
X15541166Y-73529563D01*
X15564221Y-73526144D01*
X15587500Y-73525000D01*
X16162500Y-73525000D01*
X16185779Y-73526144D01*
X16185779Y-73526144D01*
G37*
D15*
X15875000Y-74000000D03*
D13*
G36*
X16185779Y-89526144D02*
G01*
X16208834Y-89529563D01*
X16231443Y-89535227D01*
X16253387Y-89543079D01*
X16274457Y-89553044D01*
X16294448Y-89565026D01*
X16313168Y-89578910D01*
X16330438Y-89594562D01*
X16346090Y-89611832D01*
X16359974Y-89630552D01*
X16371956Y-89650543D01*
X16381921Y-89671613D01*
X16389773Y-89693557D01*
X16395437Y-89716166D01*
X16398856Y-89739221D01*
X16400000Y-89762500D01*
X16400000Y-90237500D01*
X16398856Y-90260779D01*
X16395437Y-90283834D01*
X16389773Y-90306443D01*
X16381921Y-90328387D01*
X16371956Y-90349457D01*
X16359974Y-90369448D01*
X16346090Y-90388168D01*
X16330438Y-90405438D01*
X16313168Y-90421090D01*
X16294448Y-90434974D01*
X16274457Y-90446956D01*
X16253387Y-90456921D01*
X16231443Y-90464773D01*
X16208834Y-90470437D01*
X16185779Y-90473856D01*
X16162500Y-90475000D01*
X15587500Y-90475000D01*
X15564221Y-90473856D01*
X15541166Y-90470437D01*
X15518557Y-90464773D01*
X15496613Y-90456921D01*
X15475543Y-90446956D01*
X15455552Y-90434974D01*
X15436832Y-90421090D01*
X15419562Y-90405438D01*
X15403910Y-90388168D01*
X15390026Y-90369448D01*
X15378044Y-90349457D01*
X15368079Y-90328387D01*
X15360227Y-90306443D01*
X15354563Y-90283834D01*
X15351144Y-90260779D01*
X15350000Y-90237500D01*
X15350000Y-89762500D01*
X15351144Y-89739221D01*
X15354563Y-89716166D01*
X15360227Y-89693557D01*
X15368079Y-89671613D01*
X15378044Y-89650543D01*
X15390026Y-89630552D01*
X15403910Y-89611832D01*
X15419562Y-89594562D01*
X15436832Y-89578910D01*
X15455552Y-89565026D01*
X15475543Y-89553044D01*
X15496613Y-89543079D01*
X15518557Y-89535227D01*
X15541166Y-89529563D01*
X15564221Y-89526144D01*
X15587500Y-89525000D01*
X16162500Y-89525000D01*
X16185779Y-89526144D01*
X16185779Y-89526144D01*
G37*
D15*
X15875000Y-90000000D03*
D13*
G36*
X14435779Y-89526144D02*
G01*
X14458834Y-89529563D01*
X14481443Y-89535227D01*
X14503387Y-89543079D01*
X14524457Y-89553044D01*
X14544448Y-89565026D01*
X14563168Y-89578910D01*
X14580438Y-89594562D01*
X14596090Y-89611832D01*
X14609974Y-89630552D01*
X14621956Y-89650543D01*
X14631921Y-89671613D01*
X14639773Y-89693557D01*
X14645437Y-89716166D01*
X14648856Y-89739221D01*
X14650000Y-89762500D01*
X14650000Y-90237500D01*
X14648856Y-90260779D01*
X14645437Y-90283834D01*
X14639773Y-90306443D01*
X14631921Y-90328387D01*
X14621956Y-90349457D01*
X14609974Y-90369448D01*
X14596090Y-90388168D01*
X14580438Y-90405438D01*
X14563168Y-90421090D01*
X14544448Y-90434974D01*
X14524457Y-90446956D01*
X14503387Y-90456921D01*
X14481443Y-90464773D01*
X14458834Y-90470437D01*
X14435779Y-90473856D01*
X14412500Y-90475000D01*
X13837500Y-90475000D01*
X13814221Y-90473856D01*
X13791166Y-90470437D01*
X13768557Y-90464773D01*
X13746613Y-90456921D01*
X13725543Y-90446956D01*
X13705552Y-90434974D01*
X13686832Y-90421090D01*
X13669562Y-90405438D01*
X13653910Y-90388168D01*
X13640026Y-90369448D01*
X13628044Y-90349457D01*
X13618079Y-90328387D01*
X13610227Y-90306443D01*
X13604563Y-90283834D01*
X13601144Y-90260779D01*
X13600000Y-90237500D01*
X13600000Y-89762500D01*
X13601144Y-89739221D01*
X13604563Y-89716166D01*
X13610227Y-89693557D01*
X13618079Y-89671613D01*
X13628044Y-89650543D01*
X13640026Y-89630552D01*
X13653910Y-89611832D01*
X13669562Y-89594562D01*
X13686832Y-89578910D01*
X13705552Y-89565026D01*
X13725543Y-89553044D01*
X13746613Y-89543079D01*
X13768557Y-89535227D01*
X13791166Y-89529563D01*
X13814221Y-89526144D01*
X13837500Y-89525000D01*
X14412500Y-89525000D01*
X14435779Y-89526144D01*
X14435779Y-89526144D01*
G37*
D15*
X14125000Y-90000000D03*
D13*
G36*
X51185779Y-33526144D02*
G01*
X51208834Y-33529563D01*
X51231443Y-33535227D01*
X51253387Y-33543079D01*
X51274457Y-33553044D01*
X51294448Y-33565026D01*
X51313168Y-33578910D01*
X51330438Y-33594562D01*
X51346090Y-33611832D01*
X51359974Y-33630552D01*
X51371956Y-33650543D01*
X51381921Y-33671613D01*
X51389773Y-33693557D01*
X51395437Y-33716166D01*
X51398856Y-33739221D01*
X51400000Y-33762500D01*
X51400000Y-34237500D01*
X51398856Y-34260779D01*
X51395437Y-34283834D01*
X51389773Y-34306443D01*
X51381921Y-34328387D01*
X51371956Y-34349457D01*
X51359974Y-34369448D01*
X51346090Y-34388168D01*
X51330438Y-34405438D01*
X51313168Y-34421090D01*
X51294448Y-34434974D01*
X51274457Y-34446956D01*
X51253387Y-34456921D01*
X51231443Y-34464773D01*
X51208834Y-34470437D01*
X51185779Y-34473856D01*
X51162500Y-34475000D01*
X50587500Y-34475000D01*
X50564221Y-34473856D01*
X50541166Y-34470437D01*
X50518557Y-34464773D01*
X50496613Y-34456921D01*
X50475543Y-34446956D01*
X50455552Y-34434974D01*
X50436832Y-34421090D01*
X50419562Y-34405438D01*
X50403910Y-34388168D01*
X50390026Y-34369448D01*
X50378044Y-34349457D01*
X50368079Y-34328387D01*
X50360227Y-34306443D01*
X50354563Y-34283834D01*
X50351144Y-34260779D01*
X50350000Y-34237500D01*
X50350000Y-33762500D01*
X50351144Y-33739221D01*
X50354563Y-33716166D01*
X50360227Y-33693557D01*
X50368079Y-33671613D01*
X50378044Y-33650543D01*
X50390026Y-33630552D01*
X50403910Y-33611832D01*
X50419562Y-33594562D01*
X50436832Y-33578910D01*
X50455552Y-33565026D01*
X50475543Y-33553044D01*
X50496613Y-33543079D01*
X50518557Y-33535227D01*
X50541166Y-33529563D01*
X50564221Y-33526144D01*
X50587500Y-33525000D01*
X51162500Y-33525000D01*
X51185779Y-33526144D01*
X51185779Y-33526144D01*
G37*
D15*
X50875000Y-34000000D03*
D13*
G36*
X49435779Y-33526144D02*
G01*
X49458834Y-33529563D01*
X49481443Y-33535227D01*
X49503387Y-33543079D01*
X49524457Y-33553044D01*
X49544448Y-33565026D01*
X49563168Y-33578910D01*
X49580438Y-33594562D01*
X49596090Y-33611832D01*
X49609974Y-33630552D01*
X49621956Y-33650543D01*
X49631921Y-33671613D01*
X49639773Y-33693557D01*
X49645437Y-33716166D01*
X49648856Y-33739221D01*
X49650000Y-33762500D01*
X49650000Y-34237500D01*
X49648856Y-34260779D01*
X49645437Y-34283834D01*
X49639773Y-34306443D01*
X49631921Y-34328387D01*
X49621956Y-34349457D01*
X49609974Y-34369448D01*
X49596090Y-34388168D01*
X49580438Y-34405438D01*
X49563168Y-34421090D01*
X49544448Y-34434974D01*
X49524457Y-34446956D01*
X49503387Y-34456921D01*
X49481443Y-34464773D01*
X49458834Y-34470437D01*
X49435779Y-34473856D01*
X49412500Y-34475000D01*
X48837500Y-34475000D01*
X48814221Y-34473856D01*
X48791166Y-34470437D01*
X48768557Y-34464773D01*
X48746613Y-34456921D01*
X48725543Y-34446956D01*
X48705552Y-34434974D01*
X48686832Y-34421090D01*
X48669562Y-34405438D01*
X48653910Y-34388168D01*
X48640026Y-34369448D01*
X48628044Y-34349457D01*
X48618079Y-34328387D01*
X48610227Y-34306443D01*
X48604563Y-34283834D01*
X48601144Y-34260779D01*
X48600000Y-34237500D01*
X48600000Y-33762500D01*
X48601144Y-33739221D01*
X48604563Y-33716166D01*
X48610227Y-33693557D01*
X48618079Y-33671613D01*
X48628044Y-33650543D01*
X48640026Y-33630552D01*
X48653910Y-33611832D01*
X48669562Y-33594562D01*
X48686832Y-33578910D01*
X48705552Y-33565026D01*
X48725543Y-33553044D01*
X48746613Y-33543079D01*
X48768557Y-33535227D01*
X48791166Y-33529563D01*
X48814221Y-33526144D01*
X48837500Y-33525000D01*
X49412500Y-33525000D01*
X49435779Y-33526144D01*
X49435779Y-33526144D01*
G37*
D15*
X49125000Y-34000000D03*
D13*
G36*
X49435779Y-49526144D02*
G01*
X49458834Y-49529563D01*
X49481443Y-49535227D01*
X49503387Y-49543079D01*
X49524457Y-49553044D01*
X49544448Y-49565026D01*
X49563168Y-49578910D01*
X49580438Y-49594562D01*
X49596090Y-49611832D01*
X49609974Y-49630552D01*
X49621956Y-49650543D01*
X49631921Y-49671613D01*
X49639773Y-49693557D01*
X49645437Y-49716166D01*
X49648856Y-49739221D01*
X49650000Y-49762500D01*
X49650000Y-50237500D01*
X49648856Y-50260779D01*
X49645437Y-50283834D01*
X49639773Y-50306443D01*
X49631921Y-50328387D01*
X49621956Y-50349457D01*
X49609974Y-50369448D01*
X49596090Y-50388168D01*
X49580438Y-50405438D01*
X49563168Y-50421090D01*
X49544448Y-50434974D01*
X49524457Y-50446956D01*
X49503387Y-50456921D01*
X49481443Y-50464773D01*
X49458834Y-50470437D01*
X49435779Y-50473856D01*
X49412500Y-50475000D01*
X48837500Y-50475000D01*
X48814221Y-50473856D01*
X48791166Y-50470437D01*
X48768557Y-50464773D01*
X48746613Y-50456921D01*
X48725543Y-50446956D01*
X48705552Y-50434974D01*
X48686832Y-50421090D01*
X48669562Y-50405438D01*
X48653910Y-50388168D01*
X48640026Y-50369448D01*
X48628044Y-50349457D01*
X48618079Y-50328387D01*
X48610227Y-50306443D01*
X48604563Y-50283834D01*
X48601144Y-50260779D01*
X48600000Y-50237500D01*
X48600000Y-49762500D01*
X48601144Y-49739221D01*
X48604563Y-49716166D01*
X48610227Y-49693557D01*
X48618079Y-49671613D01*
X48628044Y-49650543D01*
X48640026Y-49630552D01*
X48653910Y-49611832D01*
X48669562Y-49594562D01*
X48686832Y-49578910D01*
X48705552Y-49565026D01*
X48725543Y-49553044D01*
X48746613Y-49543079D01*
X48768557Y-49535227D01*
X48791166Y-49529563D01*
X48814221Y-49526144D01*
X48837500Y-49525000D01*
X49412500Y-49525000D01*
X49435779Y-49526144D01*
X49435779Y-49526144D01*
G37*
D15*
X49125000Y-50000000D03*
D13*
G36*
X51185779Y-49526144D02*
G01*
X51208834Y-49529563D01*
X51231443Y-49535227D01*
X51253387Y-49543079D01*
X51274457Y-49553044D01*
X51294448Y-49565026D01*
X51313168Y-49578910D01*
X51330438Y-49594562D01*
X51346090Y-49611832D01*
X51359974Y-49630552D01*
X51371956Y-49650543D01*
X51381921Y-49671613D01*
X51389773Y-49693557D01*
X51395437Y-49716166D01*
X51398856Y-49739221D01*
X51400000Y-49762500D01*
X51400000Y-50237500D01*
X51398856Y-50260779D01*
X51395437Y-50283834D01*
X51389773Y-50306443D01*
X51381921Y-50328387D01*
X51371956Y-50349457D01*
X51359974Y-50369448D01*
X51346090Y-50388168D01*
X51330438Y-50405438D01*
X51313168Y-50421090D01*
X51294448Y-50434974D01*
X51274457Y-50446956D01*
X51253387Y-50456921D01*
X51231443Y-50464773D01*
X51208834Y-50470437D01*
X51185779Y-50473856D01*
X51162500Y-50475000D01*
X50587500Y-50475000D01*
X50564221Y-50473856D01*
X50541166Y-50470437D01*
X50518557Y-50464773D01*
X50496613Y-50456921D01*
X50475543Y-50446956D01*
X50455552Y-50434974D01*
X50436832Y-50421090D01*
X50419562Y-50405438D01*
X50403910Y-50388168D01*
X50390026Y-50369448D01*
X50378044Y-50349457D01*
X50368079Y-50328387D01*
X50360227Y-50306443D01*
X50354563Y-50283834D01*
X50351144Y-50260779D01*
X50350000Y-50237500D01*
X50350000Y-49762500D01*
X50351144Y-49739221D01*
X50354563Y-49716166D01*
X50360227Y-49693557D01*
X50368079Y-49671613D01*
X50378044Y-49650543D01*
X50390026Y-49630552D01*
X50403910Y-49611832D01*
X50419562Y-49594562D01*
X50436832Y-49578910D01*
X50455552Y-49565026D01*
X50475543Y-49553044D01*
X50496613Y-49543079D01*
X50518557Y-49535227D01*
X50541166Y-49529563D01*
X50564221Y-49526144D01*
X50587500Y-49525000D01*
X51162500Y-49525000D01*
X51185779Y-49526144D01*
X51185779Y-49526144D01*
G37*
D15*
X50875000Y-50000000D03*
D13*
G36*
X49435779Y-65526144D02*
G01*
X49458834Y-65529563D01*
X49481443Y-65535227D01*
X49503387Y-65543079D01*
X49524457Y-65553044D01*
X49544448Y-65565026D01*
X49563168Y-65578910D01*
X49580438Y-65594562D01*
X49596090Y-65611832D01*
X49609974Y-65630552D01*
X49621956Y-65650543D01*
X49631921Y-65671613D01*
X49639773Y-65693557D01*
X49645437Y-65716166D01*
X49648856Y-65739221D01*
X49650000Y-65762500D01*
X49650000Y-66237500D01*
X49648856Y-66260779D01*
X49645437Y-66283834D01*
X49639773Y-66306443D01*
X49631921Y-66328387D01*
X49621956Y-66349457D01*
X49609974Y-66369448D01*
X49596090Y-66388168D01*
X49580438Y-66405438D01*
X49563168Y-66421090D01*
X49544448Y-66434974D01*
X49524457Y-66446956D01*
X49503387Y-66456921D01*
X49481443Y-66464773D01*
X49458834Y-66470437D01*
X49435779Y-66473856D01*
X49412500Y-66475000D01*
X48837500Y-66475000D01*
X48814221Y-66473856D01*
X48791166Y-66470437D01*
X48768557Y-66464773D01*
X48746613Y-66456921D01*
X48725543Y-66446956D01*
X48705552Y-66434974D01*
X48686832Y-66421090D01*
X48669562Y-66405438D01*
X48653910Y-66388168D01*
X48640026Y-66369448D01*
X48628044Y-66349457D01*
X48618079Y-66328387D01*
X48610227Y-66306443D01*
X48604563Y-66283834D01*
X48601144Y-66260779D01*
X48600000Y-66237500D01*
X48600000Y-65762500D01*
X48601144Y-65739221D01*
X48604563Y-65716166D01*
X48610227Y-65693557D01*
X48618079Y-65671613D01*
X48628044Y-65650543D01*
X48640026Y-65630552D01*
X48653910Y-65611832D01*
X48669562Y-65594562D01*
X48686832Y-65578910D01*
X48705552Y-65565026D01*
X48725543Y-65553044D01*
X48746613Y-65543079D01*
X48768557Y-65535227D01*
X48791166Y-65529563D01*
X48814221Y-65526144D01*
X48837500Y-65525000D01*
X49412500Y-65525000D01*
X49435779Y-65526144D01*
X49435779Y-65526144D01*
G37*
D15*
X49125000Y-66000000D03*
D13*
G36*
X51185779Y-65526144D02*
G01*
X51208834Y-65529563D01*
X51231443Y-65535227D01*
X51253387Y-65543079D01*
X51274457Y-65553044D01*
X51294448Y-65565026D01*
X51313168Y-65578910D01*
X51330438Y-65594562D01*
X51346090Y-65611832D01*
X51359974Y-65630552D01*
X51371956Y-65650543D01*
X51381921Y-65671613D01*
X51389773Y-65693557D01*
X51395437Y-65716166D01*
X51398856Y-65739221D01*
X51400000Y-65762500D01*
X51400000Y-66237500D01*
X51398856Y-66260779D01*
X51395437Y-66283834D01*
X51389773Y-66306443D01*
X51381921Y-66328387D01*
X51371956Y-66349457D01*
X51359974Y-66369448D01*
X51346090Y-66388168D01*
X51330438Y-66405438D01*
X51313168Y-66421090D01*
X51294448Y-66434974D01*
X51274457Y-66446956D01*
X51253387Y-66456921D01*
X51231443Y-66464773D01*
X51208834Y-66470437D01*
X51185779Y-66473856D01*
X51162500Y-66475000D01*
X50587500Y-66475000D01*
X50564221Y-66473856D01*
X50541166Y-66470437D01*
X50518557Y-66464773D01*
X50496613Y-66456921D01*
X50475543Y-66446956D01*
X50455552Y-66434974D01*
X50436832Y-66421090D01*
X50419562Y-66405438D01*
X50403910Y-66388168D01*
X50390026Y-66369448D01*
X50378044Y-66349457D01*
X50368079Y-66328387D01*
X50360227Y-66306443D01*
X50354563Y-66283834D01*
X50351144Y-66260779D01*
X50350000Y-66237500D01*
X50350000Y-65762500D01*
X50351144Y-65739221D01*
X50354563Y-65716166D01*
X50360227Y-65693557D01*
X50368079Y-65671613D01*
X50378044Y-65650543D01*
X50390026Y-65630552D01*
X50403910Y-65611832D01*
X50419562Y-65594562D01*
X50436832Y-65578910D01*
X50455552Y-65565026D01*
X50475543Y-65553044D01*
X50496613Y-65543079D01*
X50518557Y-65535227D01*
X50541166Y-65529563D01*
X50564221Y-65526144D01*
X50587500Y-65525000D01*
X51162500Y-65525000D01*
X51185779Y-65526144D01*
X51185779Y-65526144D01*
G37*
D15*
X50875000Y-66000000D03*
D13*
G36*
X86185779Y-17526144D02*
G01*
X86208834Y-17529563D01*
X86231443Y-17535227D01*
X86253387Y-17543079D01*
X86274457Y-17553044D01*
X86294448Y-17565026D01*
X86313168Y-17578910D01*
X86330438Y-17594562D01*
X86346090Y-17611832D01*
X86359974Y-17630552D01*
X86371956Y-17650543D01*
X86381921Y-17671613D01*
X86389773Y-17693557D01*
X86395437Y-17716166D01*
X86398856Y-17739221D01*
X86400000Y-17762500D01*
X86400000Y-18237500D01*
X86398856Y-18260779D01*
X86395437Y-18283834D01*
X86389773Y-18306443D01*
X86381921Y-18328387D01*
X86371956Y-18349457D01*
X86359974Y-18369448D01*
X86346090Y-18388168D01*
X86330438Y-18405438D01*
X86313168Y-18421090D01*
X86294448Y-18434974D01*
X86274457Y-18446956D01*
X86253387Y-18456921D01*
X86231443Y-18464773D01*
X86208834Y-18470437D01*
X86185779Y-18473856D01*
X86162500Y-18475000D01*
X85587500Y-18475000D01*
X85564221Y-18473856D01*
X85541166Y-18470437D01*
X85518557Y-18464773D01*
X85496613Y-18456921D01*
X85475543Y-18446956D01*
X85455552Y-18434974D01*
X85436832Y-18421090D01*
X85419562Y-18405438D01*
X85403910Y-18388168D01*
X85390026Y-18369448D01*
X85378044Y-18349457D01*
X85368079Y-18328387D01*
X85360227Y-18306443D01*
X85354563Y-18283834D01*
X85351144Y-18260779D01*
X85350000Y-18237500D01*
X85350000Y-17762500D01*
X85351144Y-17739221D01*
X85354563Y-17716166D01*
X85360227Y-17693557D01*
X85368079Y-17671613D01*
X85378044Y-17650543D01*
X85390026Y-17630552D01*
X85403910Y-17611832D01*
X85419562Y-17594562D01*
X85436832Y-17578910D01*
X85455552Y-17565026D01*
X85475543Y-17553044D01*
X85496613Y-17543079D01*
X85518557Y-17535227D01*
X85541166Y-17529563D01*
X85564221Y-17526144D01*
X85587500Y-17525000D01*
X86162500Y-17525000D01*
X86185779Y-17526144D01*
X86185779Y-17526144D01*
G37*
D15*
X85875000Y-18000000D03*
D13*
G36*
X84435779Y-17526144D02*
G01*
X84458834Y-17529563D01*
X84481443Y-17535227D01*
X84503387Y-17543079D01*
X84524457Y-17553044D01*
X84544448Y-17565026D01*
X84563168Y-17578910D01*
X84580438Y-17594562D01*
X84596090Y-17611832D01*
X84609974Y-17630552D01*
X84621956Y-17650543D01*
X84631921Y-17671613D01*
X84639773Y-17693557D01*
X84645437Y-17716166D01*
X84648856Y-17739221D01*
X84650000Y-17762500D01*
X84650000Y-18237500D01*
X84648856Y-18260779D01*
X84645437Y-18283834D01*
X84639773Y-18306443D01*
X84631921Y-18328387D01*
X84621956Y-18349457D01*
X84609974Y-18369448D01*
X84596090Y-18388168D01*
X84580438Y-18405438D01*
X84563168Y-18421090D01*
X84544448Y-18434974D01*
X84524457Y-18446956D01*
X84503387Y-18456921D01*
X84481443Y-18464773D01*
X84458834Y-18470437D01*
X84435779Y-18473856D01*
X84412500Y-18475000D01*
X83837500Y-18475000D01*
X83814221Y-18473856D01*
X83791166Y-18470437D01*
X83768557Y-18464773D01*
X83746613Y-18456921D01*
X83725543Y-18446956D01*
X83705552Y-18434974D01*
X83686832Y-18421090D01*
X83669562Y-18405438D01*
X83653910Y-18388168D01*
X83640026Y-18369448D01*
X83628044Y-18349457D01*
X83618079Y-18328387D01*
X83610227Y-18306443D01*
X83604563Y-18283834D01*
X83601144Y-18260779D01*
X83600000Y-18237500D01*
X83600000Y-17762500D01*
X83601144Y-17739221D01*
X83604563Y-17716166D01*
X83610227Y-17693557D01*
X83618079Y-17671613D01*
X83628044Y-17650543D01*
X83640026Y-17630552D01*
X83653910Y-17611832D01*
X83669562Y-17594562D01*
X83686832Y-17578910D01*
X83705552Y-17565026D01*
X83725543Y-17553044D01*
X83746613Y-17543079D01*
X83768557Y-17535227D01*
X83791166Y-17529563D01*
X83814221Y-17526144D01*
X83837500Y-17525000D01*
X84412500Y-17525000D01*
X84435779Y-17526144D01*
X84435779Y-17526144D01*
G37*
D15*
X84125000Y-18000000D03*
D13*
G36*
X84435779Y-33526144D02*
G01*
X84458834Y-33529563D01*
X84481443Y-33535227D01*
X84503387Y-33543079D01*
X84524457Y-33553044D01*
X84544448Y-33565026D01*
X84563168Y-33578910D01*
X84580438Y-33594562D01*
X84596090Y-33611832D01*
X84609974Y-33630552D01*
X84621956Y-33650543D01*
X84631921Y-33671613D01*
X84639773Y-33693557D01*
X84645437Y-33716166D01*
X84648856Y-33739221D01*
X84650000Y-33762500D01*
X84650000Y-34237500D01*
X84648856Y-34260779D01*
X84645437Y-34283834D01*
X84639773Y-34306443D01*
X84631921Y-34328387D01*
X84621956Y-34349457D01*
X84609974Y-34369448D01*
X84596090Y-34388168D01*
X84580438Y-34405438D01*
X84563168Y-34421090D01*
X84544448Y-34434974D01*
X84524457Y-34446956D01*
X84503387Y-34456921D01*
X84481443Y-34464773D01*
X84458834Y-34470437D01*
X84435779Y-34473856D01*
X84412500Y-34475000D01*
X83837500Y-34475000D01*
X83814221Y-34473856D01*
X83791166Y-34470437D01*
X83768557Y-34464773D01*
X83746613Y-34456921D01*
X83725543Y-34446956D01*
X83705552Y-34434974D01*
X83686832Y-34421090D01*
X83669562Y-34405438D01*
X83653910Y-34388168D01*
X83640026Y-34369448D01*
X83628044Y-34349457D01*
X83618079Y-34328387D01*
X83610227Y-34306443D01*
X83604563Y-34283834D01*
X83601144Y-34260779D01*
X83600000Y-34237500D01*
X83600000Y-33762500D01*
X83601144Y-33739221D01*
X83604563Y-33716166D01*
X83610227Y-33693557D01*
X83618079Y-33671613D01*
X83628044Y-33650543D01*
X83640026Y-33630552D01*
X83653910Y-33611832D01*
X83669562Y-33594562D01*
X83686832Y-33578910D01*
X83705552Y-33565026D01*
X83725543Y-33553044D01*
X83746613Y-33543079D01*
X83768557Y-33535227D01*
X83791166Y-33529563D01*
X83814221Y-33526144D01*
X83837500Y-33525000D01*
X84412500Y-33525000D01*
X84435779Y-33526144D01*
X84435779Y-33526144D01*
G37*
D15*
X84125000Y-34000000D03*
D13*
G36*
X86185779Y-33526144D02*
G01*
X86208834Y-33529563D01*
X86231443Y-33535227D01*
X86253387Y-33543079D01*
X86274457Y-33553044D01*
X86294448Y-33565026D01*
X86313168Y-33578910D01*
X86330438Y-33594562D01*
X86346090Y-33611832D01*
X86359974Y-33630552D01*
X86371956Y-33650543D01*
X86381921Y-33671613D01*
X86389773Y-33693557D01*
X86395437Y-33716166D01*
X86398856Y-33739221D01*
X86400000Y-33762500D01*
X86400000Y-34237500D01*
X86398856Y-34260779D01*
X86395437Y-34283834D01*
X86389773Y-34306443D01*
X86381921Y-34328387D01*
X86371956Y-34349457D01*
X86359974Y-34369448D01*
X86346090Y-34388168D01*
X86330438Y-34405438D01*
X86313168Y-34421090D01*
X86294448Y-34434974D01*
X86274457Y-34446956D01*
X86253387Y-34456921D01*
X86231443Y-34464773D01*
X86208834Y-34470437D01*
X86185779Y-34473856D01*
X86162500Y-34475000D01*
X85587500Y-34475000D01*
X85564221Y-34473856D01*
X85541166Y-34470437D01*
X85518557Y-34464773D01*
X85496613Y-34456921D01*
X85475543Y-34446956D01*
X85455552Y-34434974D01*
X85436832Y-34421090D01*
X85419562Y-34405438D01*
X85403910Y-34388168D01*
X85390026Y-34369448D01*
X85378044Y-34349457D01*
X85368079Y-34328387D01*
X85360227Y-34306443D01*
X85354563Y-34283834D01*
X85351144Y-34260779D01*
X85350000Y-34237500D01*
X85350000Y-33762500D01*
X85351144Y-33739221D01*
X85354563Y-33716166D01*
X85360227Y-33693557D01*
X85368079Y-33671613D01*
X85378044Y-33650543D01*
X85390026Y-33630552D01*
X85403910Y-33611832D01*
X85419562Y-33594562D01*
X85436832Y-33578910D01*
X85455552Y-33565026D01*
X85475543Y-33553044D01*
X85496613Y-33543079D01*
X85518557Y-33535227D01*
X85541166Y-33529563D01*
X85564221Y-33526144D01*
X85587500Y-33525000D01*
X86162500Y-33525000D01*
X86185779Y-33526144D01*
X86185779Y-33526144D01*
G37*
D15*
X85875000Y-34000000D03*
D13*
G36*
X86185779Y-49526144D02*
G01*
X86208834Y-49529563D01*
X86231443Y-49535227D01*
X86253387Y-49543079D01*
X86274457Y-49553044D01*
X86294448Y-49565026D01*
X86313168Y-49578910D01*
X86330438Y-49594562D01*
X86346090Y-49611832D01*
X86359974Y-49630552D01*
X86371956Y-49650543D01*
X86381921Y-49671613D01*
X86389773Y-49693557D01*
X86395437Y-49716166D01*
X86398856Y-49739221D01*
X86400000Y-49762500D01*
X86400000Y-50237500D01*
X86398856Y-50260779D01*
X86395437Y-50283834D01*
X86389773Y-50306443D01*
X86381921Y-50328387D01*
X86371956Y-50349457D01*
X86359974Y-50369448D01*
X86346090Y-50388168D01*
X86330438Y-50405438D01*
X86313168Y-50421090D01*
X86294448Y-50434974D01*
X86274457Y-50446956D01*
X86253387Y-50456921D01*
X86231443Y-50464773D01*
X86208834Y-50470437D01*
X86185779Y-50473856D01*
X86162500Y-50475000D01*
X85587500Y-50475000D01*
X85564221Y-50473856D01*
X85541166Y-50470437D01*
X85518557Y-50464773D01*
X85496613Y-50456921D01*
X85475543Y-50446956D01*
X85455552Y-50434974D01*
X85436832Y-50421090D01*
X85419562Y-50405438D01*
X85403910Y-50388168D01*
X85390026Y-50369448D01*
X85378044Y-50349457D01*
X85368079Y-50328387D01*
X85360227Y-50306443D01*
X85354563Y-50283834D01*
X85351144Y-50260779D01*
X85350000Y-50237500D01*
X85350000Y-49762500D01*
X85351144Y-49739221D01*
X85354563Y-49716166D01*
X85360227Y-49693557D01*
X85368079Y-49671613D01*
X85378044Y-49650543D01*
X85390026Y-49630552D01*
X85403910Y-49611832D01*
X85419562Y-49594562D01*
X85436832Y-49578910D01*
X85455552Y-49565026D01*
X85475543Y-49553044D01*
X85496613Y-49543079D01*
X85518557Y-49535227D01*
X85541166Y-49529563D01*
X85564221Y-49526144D01*
X85587500Y-49525000D01*
X86162500Y-49525000D01*
X86185779Y-49526144D01*
X86185779Y-49526144D01*
G37*
D15*
X85875000Y-50000000D03*
D13*
G36*
X84435779Y-49526144D02*
G01*
X84458834Y-49529563D01*
X84481443Y-49535227D01*
X84503387Y-49543079D01*
X84524457Y-49553044D01*
X84544448Y-49565026D01*
X84563168Y-49578910D01*
X84580438Y-49594562D01*
X84596090Y-49611832D01*
X84609974Y-49630552D01*
X84621956Y-49650543D01*
X84631921Y-49671613D01*
X84639773Y-49693557D01*
X84645437Y-49716166D01*
X84648856Y-49739221D01*
X84650000Y-49762500D01*
X84650000Y-50237500D01*
X84648856Y-50260779D01*
X84645437Y-50283834D01*
X84639773Y-50306443D01*
X84631921Y-50328387D01*
X84621956Y-50349457D01*
X84609974Y-50369448D01*
X84596090Y-50388168D01*
X84580438Y-50405438D01*
X84563168Y-50421090D01*
X84544448Y-50434974D01*
X84524457Y-50446956D01*
X84503387Y-50456921D01*
X84481443Y-50464773D01*
X84458834Y-50470437D01*
X84435779Y-50473856D01*
X84412500Y-50475000D01*
X83837500Y-50475000D01*
X83814221Y-50473856D01*
X83791166Y-50470437D01*
X83768557Y-50464773D01*
X83746613Y-50456921D01*
X83725543Y-50446956D01*
X83705552Y-50434974D01*
X83686832Y-50421090D01*
X83669562Y-50405438D01*
X83653910Y-50388168D01*
X83640026Y-50369448D01*
X83628044Y-50349457D01*
X83618079Y-50328387D01*
X83610227Y-50306443D01*
X83604563Y-50283834D01*
X83601144Y-50260779D01*
X83600000Y-50237500D01*
X83600000Y-49762500D01*
X83601144Y-49739221D01*
X83604563Y-49716166D01*
X83610227Y-49693557D01*
X83618079Y-49671613D01*
X83628044Y-49650543D01*
X83640026Y-49630552D01*
X83653910Y-49611832D01*
X83669562Y-49594562D01*
X83686832Y-49578910D01*
X83705552Y-49565026D01*
X83725543Y-49553044D01*
X83746613Y-49543079D01*
X83768557Y-49535227D01*
X83791166Y-49529563D01*
X83814221Y-49526144D01*
X83837500Y-49525000D01*
X84412500Y-49525000D01*
X84435779Y-49526144D01*
X84435779Y-49526144D01*
G37*
D15*
X84125000Y-50000000D03*
D13*
G36*
X86185779Y-65526144D02*
G01*
X86208834Y-65529563D01*
X86231443Y-65535227D01*
X86253387Y-65543079D01*
X86274457Y-65553044D01*
X86294448Y-65565026D01*
X86313168Y-65578910D01*
X86330438Y-65594562D01*
X86346090Y-65611832D01*
X86359974Y-65630552D01*
X86371956Y-65650543D01*
X86381921Y-65671613D01*
X86389773Y-65693557D01*
X86395437Y-65716166D01*
X86398856Y-65739221D01*
X86400000Y-65762500D01*
X86400000Y-66237500D01*
X86398856Y-66260779D01*
X86395437Y-66283834D01*
X86389773Y-66306443D01*
X86381921Y-66328387D01*
X86371956Y-66349457D01*
X86359974Y-66369448D01*
X86346090Y-66388168D01*
X86330438Y-66405438D01*
X86313168Y-66421090D01*
X86294448Y-66434974D01*
X86274457Y-66446956D01*
X86253387Y-66456921D01*
X86231443Y-66464773D01*
X86208834Y-66470437D01*
X86185779Y-66473856D01*
X86162500Y-66475000D01*
X85587500Y-66475000D01*
X85564221Y-66473856D01*
X85541166Y-66470437D01*
X85518557Y-66464773D01*
X85496613Y-66456921D01*
X85475543Y-66446956D01*
X85455552Y-66434974D01*
X85436832Y-66421090D01*
X85419562Y-66405438D01*
X85403910Y-66388168D01*
X85390026Y-66369448D01*
X85378044Y-66349457D01*
X85368079Y-66328387D01*
X85360227Y-66306443D01*
X85354563Y-66283834D01*
X85351144Y-66260779D01*
X85350000Y-66237500D01*
X85350000Y-65762500D01*
X85351144Y-65739221D01*
X85354563Y-65716166D01*
X85360227Y-65693557D01*
X85368079Y-65671613D01*
X85378044Y-65650543D01*
X85390026Y-65630552D01*
X85403910Y-65611832D01*
X85419562Y-65594562D01*
X85436832Y-65578910D01*
X85455552Y-65565026D01*
X85475543Y-65553044D01*
X85496613Y-65543079D01*
X85518557Y-65535227D01*
X85541166Y-65529563D01*
X85564221Y-65526144D01*
X85587500Y-65525000D01*
X86162500Y-65525000D01*
X86185779Y-65526144D01*
X86185779Y-65526144D01*
G37*
D15*
X85875000Y-66000000D03*
D13*
G36*
X84435779Y-65526144D02*
G01*
X84458834Y-65529563D01*
X84481443Y-65535227D01*
X84503387Y-65543079D01*
X84524457Y-65553044D01*
X84544448Y-65565026D01*
X84563168Y-65578910D01*
X84580438Y-65594562D01*
X84596090Y-65611832D01*
X84609974Y-65630552D01*
X84621956Y-65650543D01*
X84631921Y-65671613D01*
X84639773Y-65693557D01*
X84645437Y-65716166D01*
X84648856Y-65739221D01*
X84650000Y-65762500D01*
X84650000Y-66237500D01*
X84648856Y-66260779D01*
X84645437Y-66283834D01*
X84639773Y-66306443D01*
X84631921Y-66328387D01*
X84621956Y-66349457D01*
X84609974Y-66369448D01*
X84596090Y-66388168D01*
X84580438Y-66405438D01*
X84563168Y-66421090D01*
X84544448Y-66434974D01*
X84524457Y-66446956D01*
X84503387Y-66456921D01*
X84481443Y-66464773D01*
X84458834Y-66470437D01*
X84435779Y-66473856D01*
X84412500Y-66475000D01*
X83837500Y-66475000D01*
X83814221Y-66473856D01*
X83791166Y-66470437D01*
X83768557Y-66464773D01*
X83746613Y-66456921D01*
X83725543Y-66446956D01*
X83705552Y-66434974D01*
X83686832Y-66421090D01*
X83669562Y-66405438D01*
X83653910Y-66388168D01*
X83640026Y-66369448D01*
X83628044Y-66349457D01*
X83618079Y-66328387D01*
X83610227Y-66306443D01*
X83604563Y-66283834D01*
X83601144Y-66260779D01*
X83600000Y-66237500D01*
X83600000Y-65762500D01*
X83601144Y-65739221D01*
X83604563Y-65716166D01*
X83610227Y-65693557D01*
X83618079Y-65671613D01*
X83628044Y-65650543D01*
X83640026Y-65630552D01*
X83653910Y-65611832D01*
X83669562Y-65594562D01*
X83686832Y-65578910D01*
X83705552Y-65565026D01*
X83725543Y-65553044D01*
X83746613Y-65543079D01*
X83768557Y-65535227D01*
X83791166Y-65529563D01*
X83814221Y-65526144D01*
X83837500Y-65525000D01*
X84412500Y-65525000D01*
X84435779Y-65526144D01*
X84435779Y-65526144D01*
G37*
D15*
X84125000Y-66000000D03*
D13*
G36*
X84435779Y-81526144D02*
G01*
X84458834Y-81529563D01*
X84481443Y-81535227D01*
X84503387Y-81543079D01*
X84524457Y-81553044D01*
X84544448Y-81565026D01*
X84563168Y-81578910D01*
X84580438Y-81594562D01*
X84596090Y-81611832D01*
X84609974Y-81630552D01*
X84621956Y-81650543D01*
X84631921Y-81671613D01*
X84639773Y-81693557D01*
X84645437Y-81716166D01*
X84648856Y-81739221D01*
X84650000Y-81762500D01*
X84650000Y-82237500D01*
X84648856Y-82260779D01*
X84645437Y-82283834D01*
X84639773Y-82306443D01*
X84631921Y-82328387D01*
X84621956Y-82349457D01*
X84609974Y-82369448D01*
X84596090Y-82388168D01*
X84580438Y-82405438D01*
X84563168Y-82421090D01*
X84544448Y-82434974D01*
X84524457Y-82446956D01*
X84503387Y-82456921D01*
X84481443Y-82464773D01*
X84458834Y-82470437D01*
X84435779Y-82473856D01*
X84412500Y-82475000D01*
X83837500Y-82475000D01*
X83814221Y-82473856D01*
X83791166Y-82470437D01*
X83768557Y-82464773D01*
X83746613Y-82456921D01*
X83725543Y-82446956D01*
X83705552Y-82434974D01*
X83686832Y-82421090D01*
X83669562Y-82405438D01*
X83653910Y-82388168D01*
X83640026Y-82369448D01*
X83628044Y-82349457D01*
X83618079Y-82328387D01*
X83610227Y-82306443D01*
X83604563Y-82283834D01*
X83601144Y-82260779D01*
X83600000Y-82237500D01*
X83600000Y-81762500D01*
X83601144Y-81739221D01*
X83604563Y-81716166D01*
X83610227Y-81693557D01*
X83618079Y-81671613D01*
X83628044Y-81650543D01*
X83640026Y-81630552D01*
X83653910Y-81611832D01*
X83669562Y-81594562D01*
X83686832Y-81578910D01*
X83705552Y-81565026D01*
X83725543Y-81553044D01*
X83746613Y-81543079D01*
X83768557Y-81535227D01*
X83791166Y-81529563D01*
X83814221Y-81526144D01*
X83837500Y-81525000D01*
X84412500Y-81525000D01*
X84435779Y-81526144D01*
X84435779Y-81526144D01*
G37*
D15*
X84125000Y-82000000D03*
D13*
G36*
X86185779Y-81526144D02*
G01*
X86208834Y-81529563D01*
X86231443Y-81535227D01*
X86253387Y-81543079D01*
X86274457Y-81553044D01*
X86294448Y-81565026D01*
X86313168Y-81578910D01*
X86330438Y-81594562D01*
X86346090Y-81611832D01*
X86359974Y-81630552D01*
X86371956Y-81650543D01*
X86381921Y-81671613D01*
X86389773Y-81693557D01*
X86395437Y-81716166D01*
X86398856Y-81739221D01*
X86400000Y-81762500D01*
X86400000Y-82237500D01*
X86398856Y-82260779D01*
X86395437Y-82283834D01*
X86389773Y-82306443D01*
X86381921Y-82328387D01*
X86371956Y-82349457D01*
X86359974Y-82369448D01*
X86346090Y-82388168D01*
X86330438Y-82405438D01*
X86313168Y-82421090D01*
X86294448Y-82434974D01*
X86274457Y-82446956D01*
X86253387Y-82456921D01*
X86231443Y-82464773D01*
X86208834Y-82470437D01*
X86185779Y-82473856D01*
X86162500Y-82475000D01*
X85587500Y-82475000D01*
X85564221Y-82473856D01*
X85541166Y-82470437D01*
X85518557Y-82464773D01*
X85496613Y-82456921D01*
X85475543Y-82446956D01*
X85455552Y-82434974D01*
X85436832Y-82421090D01*
X85419562Y-82405438D01*
X85403910Y-82388168D01*
X85390026Y-82369448D01*
X85378044Y-82349457D01*
X85368079Y-82328387D01*
X85360227Y-82306443D01*
X85354563Y-82283834D01*
X85351144Y-82260779D01*
X85350000Y-82237500D01*
X85350000Y-81762500D01*
X85351144Y-81739221D01*
X85354563Y-81716166D01*
X85360227Y-81693557D01*
X85368079Y-81671613D01*
X85378044Y-81650543D01*
X85390026Y-81630552D01*
X85403910Y-81611832D01*
X85419562Y-81594562D01*
X85436832Y-81578910D01*
X85455552Y-81565026D01*
X85475543Y-81553044D01*
X85496613Y-81543079D01*
X85518557Y-81535227D01*
X85541166Y-81529563D01*
X85564221Y-81526144D01*
X85587500Y-81525000D01*
X86162500Y-81525000D01*
X86185779Y-81526144D01*
X86185779Y-81526144D01*
G37*
D15*
X85875000Y-82000000D03*
D16*
X83000000Y-88000000D03*
X83000000Y-84700000D03*
X83000000Y-95300000D03*
X83000000Y-92000000D03*
D13*
G36*
X93392642Y-81901174D02*
G01*
X93416303Y-81904684D01*
X93439507Y-81910496D01*
X93462029Y-81918554D01*
X93483653Y-81928782D01*
X93504170Y-81941079D01*
X93523383Y-81955329D01*
X93541107Y-81971393D01*
X93557171Y-81989117D01*
X93571421Y-82008330D01*
X93583718Y-82028847D01*
X93593946Y-82050471D01*
X93602004Y-82072993D01*
X93607816Y-82096197D01*
X93611326Y-82119858D01*
X93612500Y-82143750D01*
X93612500Y-83056250D01*
X93611326Y-83080142D01*
X93607816Y-83103803D01*
X93602004Y-83127007D01*
X93593946Y-83149529D01*
X93583718Y-83171153D01*
X93571421Y-83191670D01*
X93557171Y-83210883D01*
X93541107Y-83228607D01*
X93523383Y-83244671D01*
X93504170Y-83258921D01*
X93483653Y-83271218D01*
X93462029Y-83281446D01*
X93439507Y-83289504D01*
X93416303Y-83295316D01*
X93392642Y-83298826D01*
X93368750Y-83300000D01*
X92881250Y-83300000D01*
X92857358Y-83298826D01*
X92833697Y-83295316D01*
X92810493Y-83289504D01*
X92787971Y-83281446D01*
X92766347Y-83271218D01*
X92745830Y-83258921D01*
X92726617Y-83244671D01*
X92708893Y-83228607D01*
X92692829Y-83210883D01*
X92678579Y-83191670D01*
X92666282Y-83171153D01*
X92656054Y-83149529D01*
X92647996Y-83127007D01*
X92642184Y-83103803D01*
X92638674Y-83080142D01*
X92637500Y-83056250D01*
X92637500Y-82143750D01*
X92638674Y-82119858D01*
X92642184Y-82096197D01*
X92647996Y-82072993D01*
X92656054Y-82050471D01*
X92666282Y-82028847D01*
X92678579Y-82008330D01*
X92692829Y-81989117D01*
X92708893Y-81971393D01*
X92726617Y-81955329D01*
X92745830Y-81941079D01*
X92766347Y-81928782D01*
X92787971Y-81918554D01*
X92810493Y-81910496D01*
X92833697Y-81904684D01*
X92857358Y-81901174D01*
X92881250Y-81900000D01*
X93368750Y-81900000D01*
X93392642Y-81901174D01*
X93392642Y-81901174D01*
G37*
D17*
X93125000Y-82600000D03*
D13*
G36*
X95267642Y-81901174D02*
G01*
X95291303Y-81904684D01*
X95314507Y-81910496D01*
X95337029Y-81918554D01*
X95358653Y-81928782D01*
X95379170Y-81941079D01*
X95398383Y-81955329D01*
X95416107Y-81971393D01*
X95432171Y-81989117D01*
X95446421Y-82008330D01*
X95458718Y-82028847D01*
X95468946Y-82050471D01*
X95477004Y-82072993D01*
X95482816Y-82096197D01*
X95486326Y-82119858D01*
X95487500Y-82143750D01*
X95487500Y-83056250D01*
X95486326Y-83080142D01*
X95482816Y-83103803D01*
X95477004Y-83127007D01*
X95468946Y-83149529D01*
X95458718Y-83171153D01*
X95446421Y-83191670D01*
X95432171Y-83210883D01*
X95416107Y-83228607D01*
X95398383Y-83244671D01*
X95379170Y-83258921D01*
X95358653Y-83271218D01*
X95337029Y-83281446D01*
X95314507Y-83289504D01*
X95291303Y-83295316D01*
X95267642Y-83298826D01*
X95243750Y-83300000D01*
X94756250Y-83300000D01*
X94732358Y-83298826D01*
X94708697Y-83295316D01*
X94685493Y-83289504D01*
X94662971Y-83281446D01*
X94641347Y-83271218D01*
X94620830Y-83258921D01*
X94601617Y-83244671D01*
X94583893Y-83228607D01*
X94567829Y-83210883D01*
X94553579Y-83191670D01*
X94541282Y-83171153D01*
X94531054Y-83149529D01*
X94522996Y-83127007D01*
X94517184Y-83103803D01*
X94513674Y-83080142D01*
X94512500Y-83056250D01*
X94512500Y-82143750D01*
X94513674Y-82119858D01*
X94517184Y-82096197D01*
X94522996Y-82072993D01*
X94531054Y-82050471D01*
X94541282Y-82028847D01*
X94553579Y-82008330D01*
X94567829Y-81989117D01*
X94583893Y-81971393D01*
X94601617Y-81955329D01*
X94620830Y-81941079D01*
X94641347Y-81928782D01*
X94662971Y-81918554D01*
X94685493Y-81910496D01*
X94708697Y-81904684D01*
X94732358Y-81901174D01*
X94756250Y-81900000D01*
X95243750Y-81900000D01*
X95267642Y-81901174D01*
X95267642Y-81901174D01*
G37*
D17*
X95000000Y-82600000D03*
D13*
G36*
X81060779Y-89526144D02*
G01*
X81083834Y-89529563D01*
X81106443Y-89535227D01*
X81128387Y-89543079D01*
X81149457Y-89553044D01*
X81169448Y-89565026D01*
X81188168Y-89578910D01*
X81205438Y-89594562D01*
X81221090Y-89611832D01*
X81234974Y-89630552D01*
X81246956Y-89650543D01*
X81256921Y-89671613D01*
X81264773Y-89693557D01*
X81270437Y-89716166D01*
X81273856Y-89739221D01*
X81275000Y-89762500D01*
X81275000Y-90237500D01*
X81273856Y-90260779D01*
X81270437Y-90283834D01*
X81264773Y-90306443D01*
X81256921Y-90328387D01*
X81246956Y-90349457D01*
X81234974Y-90369448D01*
X81221090Y-90388168D01*
X81205438Y-90405438D01*
X81188168Y-90421090D01*
X81169448Y-90434974D01*
X81149457Y-90446956D01*
X81128387Y-90456921D01*
X81106443Y-90464773D01*
X81083834Y-90470437D01*
X81060779Y-90473856D01*
X81037500Y-90475000D01*
X80462500Y-90475000D01*
X80439221Y-90473856D01*
X80416166Y-90470437D01*
X80393557Y-90464773D01*
X80371613Y-90456921D01*
X80350543Y-90446956D01*
X80330552Y-90434974D01*
X80311832Y-90421090D01*
X80294562Y-90405438D01*
X80278910Y-90388168D01*
X80265026Y-90369448D01*
X80253044Y-90349457D01*
X80243079Y-90328387D01*
X80235227Y-90306443D01*
X80229563Y-90283834D01*
X80226144Y-90260779D01*
X80225000Y-90237500D01*
X80225000Y-89762500D01*
X80226144Y-89739221D01*
X80229563Y-89716166D01*
X80235227Y-89693557D01*
X80243079Y-89671613D01*
X80253044Y-89650543D01*
X80265026Y-89630552D01*
X80278910Y-89611832D01*
X80294562Y-89594562D01*
X80311832Y-89578910D01*
X80330552Y-89565026D01*
X80350543Y-89553044D01*
X80371613Y-89543079D01*
X80393557Y-89535227D01*
X80416166Y-89529563D01*
X80439221Y-89526144D01*
X80462500Y-89525000D01*
X81037500Y-89525000D01*
X81060779Y-89526144D01*
X81060779Y-89526144D01*
G37*
D15*
X80750000Y-90000000D03*
D13*
G36*
X79310779Y-89526144D02*
G01*
X79333834Y-89529563D01*
X79356443Y-89535227D01*
X79378387Y-89543079D01*
X79399457Y-89553044D01*
X79419448Y-89565026D01*
X79438168Y-89578910D01*
X79455438Y-89594562D01*
X79471090Y-89611832D01*
X79484974Y-89630552D01*
X79496956Y-89650543D01*
X79506921Y-89671613D01*
X79514773Y-89693557D01*
X79520437Y-89716166D01*
X79523856Y-89739221D01*
X79525000Y-89762500D01*
X79525000Y-90237500D01*
X79523856Y-90260779D01*
X79520437Y-90283834D01*
X79514773Y-90306443D01*
X79506921Y-90328387D01*
X79496956Y-90349457D01*
X79484974Y-90369448D01*
X79471090Y-90388168D01*
X79455438Y-90405438D01*
X79438168Y-90421090D01*
X79419448Y-90434974D01*
X79399457Y-90446956D01*
X79378387Y-90456921D01*
X79356443Y-90464773D01*
X79333834Y-90470437D01*
X79310779Y-90473856D01*
X79287500Y-90475000D01*
X78712500Y-90475000D01*
X78689221Y-90473856D01*
X78666166Y-90470437D01*
X78643557Y-90464773D01*
X78621613Y-90456921D01*
X78600543Y-90446956D01*
X78580552Y-90434974D01*
X78561832Y-90421090D01*
X78544562Y-90405438D01*
X78528910Y-90388168D01*
X78515026Y-90369448D01*
X78503044Y-90349457D01*
X78493079Y-90328387D01*
X78485227Y-90306443D01*
X78479563Y-90283834D01*
X78476144Y-90260779D01*
X78475000Y-90237500D01*
X78475000Y-89762500D01*
X78476144Y-89739221D01*
X78479563Y-89716166D01*
X78485227Y-89693557D01*
X78493079Y-89671613D01*
X78503044Y-89650543D01*
X78515026Y-89630552D01*
X78528910Y-89611832D01*
X78544562Y-89594562D01*
X78561832Y-89578910D01*
X78580552Y-89565026D01*
X78600543Y-89553044D01*
X78621613Y-89543079D01*
X78643557Y-89535227D01*
X78666166Y-89529563D01*
X78689221Y-89526144D01*
X78712500Y-89525000D01*
X79287500Y-89525000D01*
X79310779Y-89526144D01*
X79310779Y-89526144D01*
G37*
D15*
X79000000Y-90000000D03*
D13*
G36*
X77560779Y-91526144D02*
G01*
X77583834Y-91529563D01*
X77606443Y-91535227D01*
X77628387Y-91543079D01*
X77649457Y-91553044D01*
X77669448Y-91565026D01*
X77688168Y-91578910D01*
X77705438Y-91594562D01*
X77721090Y-91611832D01*
X77734974Y-91630552D01*
X77746956Y-91650543D01*
X77756921Y-91671613D01*
X77764773Y-91693557D01*
X77770437Y-91716166D01*
X77773856Y-91739221D01*
X77775000Y-91762500D01*
X77775000Y-92237500D01*
X77773856Y-92260779D01*
X77770437Y-92283834D01*
X77764773Y-92306443D01*
X77756921Y-92328387D01*
X77746956Y-92349457D01*
X77734974Y-92369448D01*
X77721090Y-92388168D01*
X77705438Y-92405438D01*
X77688168Y-92421090D01*
X77669448Y-92434974D01*
X77649457Y-92446956D01*
X77628387Y-92456921D01*
X77606443Y-92464773D01*
X77583834Y-92470437D01*
X77560779Y-92473856D01*
X77537500Y-92475000D01*
X76962500Y-92475000D01*
X76939221Y-92473856D01*
X76916166Y-92470437D01*
X76893557Y-92464773D01*
X76871613Y-92456921D01*
X76850543Y-92446956D01*
X76830552Y-92434974D01*
X76811832Y-92421090D01*
X76794562Y-92405438D01*
X76778910Y-92388168D01*
X76765026Y-92369448D01*
X76753044Y-92349457D01*
X76743079Y-92328387D01*
X76735227Y-92306443D01*
X76729563Y-92283834D01*
X76726144Y-92260779D01*
X76725000Y-92237500D01*
X76725000Y-91762500D01*
X76726144Y-91739221D01*
X76729563Y-91716166D01*
X76735227Y-91693557D01*
X76743079Y-91671613D01*
X76753044Y-91650543D01*
X76765026Y-91630552D01*
X76778910Y-91611832D01*
X76794562Y-91594562D01*
X76811832Y-91578910D01*
X76830552Y-91565026D01*
X76850543Y-91553044D01*
X76871613Y-91543079D01*
X76893557Y-91535227D01*
X76916166Y-91529563D01*
X76939221Y-91526144D01*
X76962500Y-91525000D01*
X77537500Y-91525000D01*
X77560779Y-91526144D01*
X77560779Y-91526144D01*
G37*
D15*
X77250000Y-92000000D03*
D13*
G36*
X79310779Y-91526144D02*
G01*
X79333834Y-91529563D01*
X79356443Y-91535227D01*
X79378387Y-91543079D01*
X79399457Y-91553044D01*
X79419448Y-91565026D01*
X79438168Y-91578910D01*
X79455438Y-91594562D01*
X79471090Y-91611832D01*
X79484974Y-91630552D01*
X79496956Y-91650543D01*
X79506921Y-91671613D01*
X79514773Y-91693557D01*
X79520437Y-91716166D01*
X79523856Y-91739221D01*
X79525000Y-91762500D01*
X79525000Y-92237500D01*
X79523856Y-92260779D01*
X79520437Y-92283834D01*
X79514773Y-92306443D01*
X79506921Y-92328387D01*
X79496956Y-92349457D01*
X79484974Y-92369448D01*
X79471090Y-92388168D01*
X79455438Y-92405438D01*
X79438168Y-92421090D01*
X79419448Y-92434974D01*
X79399457Y-92446956D01*
X79378387Y-92456921D01*
X79356443Y-92464773D01*
X79333834Y-92470437D01*
X79310779Y-92473856D01*
X79287500Y-92475000D01*
X78712500Y-92475000D01*
X78689221Y-92473856D01*
X78666166Y-92470437D01*
X78643557Y-92464773D01*
X78621613Y-92456921D01*
X78600543Y-92446956D01*
X78580552Y-92434974D01*
X78561832Y-92421090D01*
X78544562Y-92405438D01*
X78528910Y-92388168D01*
X78515026Y-92369448D01*
X78503044Y-92349457D01*
X78493079Y-92328387D01*
X78485227Y-92306443D01*
X78479563Y-92283834D01*
X78476144Y-92260779D01*
X78475000Y-92237500D01*
X78475000Y-91762500D01*
X78476144Y-91739221D01*
X78479563Y-91716166D01*
X78485227Y-91693557D01*
X78493079Y-91671613D01*
X78503044Y-91650543D01*
X78515026Y-91630552D01*
X78528910Y-91611832D01*
X78544562Y-91594562D01*
X78561832Y-91578910D01*
X78580552Y-91565026D01*
X78600543Y-91553044D01*
X78621613Y-91543079D01*
X78643557Y-91535227D01*
X78666166Y-91529563D01*
X78689221Y-91526144D01*
X78712500Y-91525000D01*
X79287500Y-91525000D01*
X79310779Y-91526144D01*
X79310779Y-91526144D01*
G37*
D15*
X79000000Y-92000000D03*
D13*
G36*
X79310779Y-87526144D02*
G01*
X79333834Y-87529563D01*
X79356443Y-87535227D01*
X79378387Y-87543079D01*
X79399457Y-87553044D01*
X79419448Y-87565026D01*
X79438168Y-87578910D01*
X79455438Y-87594562D01*
X79471090Y-87611832D01*
X79484974Y-87630552D01*
X79496956Y-87650543D01*
X79506921Y-87671613D01*
X79514773Y-87693557D01*
X79520437Y-87716166D01*
X79523856Y-87739221D01*
X79525000Y-87762500D01*
X79525000Y-88237500D01*
X79523856Y-88260779D01*
X79520437Y-88283834D01*
X79514773Y-88306443D01*
X79506921Y-88328387D01*
X79496956Y-88349457D01*
X79484974Y-88369448D01*
X79471090Y-88388168D01*
X79455438Y-88405438D01*
X79438168Y-88421090D01*
X79419448Y-88434974D01*
X79399457Y-88446956D01*
X79378387Y-88456921D01*
X79356443Y-88464773D01*
X79333834Y-88470437D01*
X79310779Y-88473856D01*
X79287500Y-88475000D01*
X78712500Y-88475000D01*
X78689221Y-88473856D01*
X78666166Y-88470437D01*
X78643557Y-88464773D01*
X78621613Y-88456921D01*
X78600543Y-88446956D01*
X78580552Y-88434974D01*
X78561832Y-88421090D01*
X78544562Y-88405438D01*
X78528910Y-88388168D01*
X78515026Y-88369448D01*
X78503044Y-88349457D01*
X78493079Y-88328387D01*
X78485227Y-88306443D01*
X78479563Y-88283834D01*
X78476144Y-88260779D01*
X78475000Y-88237500D01*
X78475000Y-87762500D01*
X78476144Y-87739221D01*
X78479563Y-87716166D01*
X78485227Y-87693557D01*
X78493079Y-87671613D01*
X78503044Y-87650543D01*
X78515026Y-87630552D01*
X78528910Y-87611832D01*
X78544562Y-87594562D01*
X78561832Y-87578910D01*
X78580552Y-87565026D01*
X78600543Y-87553044D01*
X78621613Y-87543079D01*
X78643557Y-87535227D01*
X78666166Y-87529563D01*
X78689221Y-87526144D01*
X78712500Y-87525000D01*
X79287500Y-87525000D01*
X79310779Y-87526144D01*
X79310779Y-87526144D01*
G37*
D15*
X79000000Y-88000000D03*
D13*
G36*
X77560779Y-87526144D02*
G01*
X77583834Y-87529563D01*
X77606443Y-87535227D01*
X77628387Y-87543079D01*
X77649457Y-87553044D01*
X77669448Y-87565026D01*
X77688168Y-87578910D01*
X77705438Y-87594562D01*
X77721090Y-87611832D01*
X77734974Y-87630552D01*
X77746956Y-87650543D01*
X77756921Y-87671613D01*
X77764773Y-87693557D01*
X77770437Y-87716166D01*
X77773856Y-87739221D01*
X77775000Y-87762500D01*
X77775000Y-88237500D01*
X77773856Y-88260779D01*
X77770437Y-88283834D01*
X77764773Y-88306443D01*
X77756921Y-88328387D01*
X77746956Y-88349457D01*
X77734974Y-88369448D01*
X77721090Y-88388168D01*
X77705438Y-88405438D01*
X77688168Y-88421090D01*
X77669448Y-88434974D01*
X77649457Y-88446956D01*
X77628387Y-88456921D01*
X77606443Y-88464773D01*
X77583834Y-88470437D01*
X77560779Y-88473856D01*
X77537500Y-88475000D01*
X76962500Y-88475000D01*
X76939221Y-88473856D01*
X76916166Y-88470437D01*
X76893557Y-88464773D01*
X76871613Y-88456921D01*
X76850543Y-88446956D01*
X76830552Y-88434974D01*
X76811832Y-88421090D01*
X76794562Y-88405438D01*
X76778910Y-88388168D01*
X76765026Y-88369448D01*
X76753044Y-88349457D01*
X76743079Y-88328387D01*
X76735227Y-88306443D01*
X76729563Y-88283834D01*
X76726144Y-88260779D01*
X76725000Y-88237500D01*
X76725000Y-87762500D01*
X76726144Y-87739221D01*
X76729563Y-87716166D01*
X76735227Y-87693557D01*
X76743079Y-87671613D01*
X76753044Y-87650543D01*
X76765026Y-87630552D01*
X76778910Y-87611832D01*
X76794562Y-87594562D01*
X76811832Y-87578910D01*
X76830552Y-87565026D01*
X76850543Y-87553044D01*
X76871613Y-87543079D01*
X76893557Y-87535227D01*
X76916166Y-87529563D01*
X76939221Y-87526144D01*
X76962500Y-87525000D01*
X77537500Y-87525000D01*
X77560779Y-87526144D01*
X77560779Y-87526144D01*
G37*
D15*
X77250000Y-88000000D03*
D13*
G36*
X67310779Y-77526144D02*
G01*
X67333834Y-77529563D01*
X67356443Y-77535227D01*
X67378387Y-77543079D01*
X67399457Y-77553044D01*
X67419448Y-77565026D01*
X67438168Y-77578910D01*
X67455438Y-77594562D01*
X67471090Y-77611832D01*
X67484974Y-77630552D01*
X67496956Y-77650543D01*
X67506921Y-77671613D01*
X67514773Y-77693557D01*
X67520437Y-77716166D01*
X67523856Y-77739221D01*
X67525000Y-77762500D01*
X67525000Y-78237500D01*
X67523856Y-78260779D01*
X67520437Y-78283834D01*
X67514773Y-78306443D01*
X67506921Y-78328387D01*
X67496956Y-78349457D01*
X67484974Y-78369448D01*
X67471090Y-78388168D01*
X67455438Y-78405438D01*
X67438168Y-78421090D01*
X67419448Y-78434974D01*
X67399457Y-78446956D01*
X67378387Y-78456921D01*
X67356443Y-78464773D01*
X67333834Y-78470437D01*
X67310779Y-78473856D01*
X67287500Y-78475000D01*
X66712500Y-78475000D01*
X66689221Y-78473856D01*
X66666166Y-78470437D01*
X66643557Y-78464773D01*
X66621613Y-78456921D01*
X66600543Y-78446956D01*
X66580552Y-78434974D01*
X66561832Y-78421090D01*
X66544562Y-78405438D01*
X66528910Y-78388168D01*
X66515026Y-78369448D01*
X66503044Y-78349457D01*
X66493079Y-78328387D01*
X66485227Y-78306443D01*
X66479563Y-78283834D01*
X66476144Y-78260779D01*
X66475000Y-78237500D01*
X66475000Y-77762500D01*
X66476144Y-77739221D01*
X66479563Y-77716166D01*
X66485227Y-77693557D01*
X66493079Y-77671613D01*
X66503044Y-77650543D01*
X66515026Y-77630552D01*
X66528910Y-77611832D01*
X66544562Y-77594562D01*
X66561832Y-77578910D01*
X66580552Y-77565026D01*
X66600543Y-77553044D01*
X66621613Y-77543079D01*
X66643557Y-77535227D01*
X66666166Y-77529563D01*
X66689221Y-77526144D01*
X66712500Y-77525000D01*
X67287500Y-77525000D01*
X67310779Y-77526144D01*
X67310779Y-77526144D01*
G37*
D15*
X67000000Y-78000000D03*
D13*
G36*
X69060779Y-77526144D02*
G01*
X69083834Y-77529563D01*
X69106443Y-77535227D01*
X69128387Y-77543079D01*
X69149457Y-77553044D01*
X69169448Y-77565026D01*
X69188168Y-77578910D01*
X69205438Y-77594562D01*
X69221090Y-77611832D01*
X69234974Y-77630552D01*
X69246956Y-77650543D01*
X69256921Y-77671613D01*
X69264773Y-77693557D01*
X69270437Y-77716166D01*
X69273856Y-77739221D01*
X69275000Y-77762500D01*
X69275000Y-78237500D01*
X69273856Y-78260779D01*
X69270437Y-78283834D01*
X69264773Y-78306443D01*
X69256921Y-78328387D01*
X69246956Y-78349457D01*
X69234974Y-78369448D01*
X69221090Y-78388168D01*
X69205438Y-78405438D01*
X69188168Y-78421090D01*
X69169448Y-78434974D01*
X69149457Y-78446956D01*
X69128387Y-78456921D01*
X69106443Y-78464773D01*
X69083834Y-78470437D01*
X69060779Y-78473856D01*
X69037500Y-78475000D01*
X68462500Y-78475000D01*
X68439221Y-78473856D01*
X68416166Y-78470437D01*
X68393557Y-78464773D01*
X68371613Y-78456921D01*
X68350543Y-78446956D01*
X68330552Y-78434974D01*
X68311832Y-78421090D01*
X68294562Y-78405438D01*
X68278910Y-78388168D01*
X68265026Y-78369448D01*
X68253044Y-78349457D01*
X68243079Y-78328387D01*
X68235227Y-78306443D01*
X68229563Y-78283834D01*
X68226144Y-78260779D01*
X68225000Y-78237500D01*
X68225000Y-77762500D01*
X68226144Y-77739221D01*
X68229563Y-77716166D01*
X68235227Y-77693557D01*
X68243079Y-77671613D01*
X68253044Y-77650543D01*
X68265026Y-77630552D01*
X68278910Y-77611832D01*
X68294562Y-77594562D01*
X68311832Y-77578910D01*
X68330552Y-77565026D01*
X68350543Y-77553044D01*
X68371613Y-77543079D01*
X68393557Y-77535227D01*
X68416166Y-77529563D01*
X68439221Y-77526144D01*
X68462500Y-77525000D01*
X69037500Y-77525000D01*
X69060779Y-77526144D01*
X69060779Y-77526144D01*
G37*
D15*
X68750000Y-78000000D03*
D13*
G36*
X64310779Y-77526144D02*
G01*
X64333834Y-77529563D01*
X64356443Y-77535227D01*
X64378387Y-77543079D01*
X64399457Y-77553044D01*
X64419448Y-77565026D01*
X64438168Y-77578910D01*
X64455438Y-77594562D01*
X64471090Y-77611832D01*
X64484974Y-77630552D01*
X64496956Y-77650543D01*
X64506921Y-77671613D01*
X64514773Y-77693557D01*
X64520437Y-77716166D01*
X64523856Y-77739221D01*
X64525000Y-77762500D01*
X64525000Y-78237500D01*
X64523856Y-78260779D01*
X64520437Y-78283834D01*
X64514773Y-78306443D01*
X64506921Y-78328387D01*
X64496956Y-78349457D01*
X64484974Y-78369448D01*
X64471090Y-78388168D01*
X64455438Y-78405438D01*
X64438168Y-78421090D01*
X64419448Y-78434974D01*
X64399457Y-78446956D01*
X64378387Y-78456921D01*
X64356443Y-78464773D01*
X64333834Y-78470437D01*
X64310779Y-78473856D01*
X64287500Y-78475000D01*
X63712500Y-78475000D01*
X63689221Y-78473856D01*
X63666166Y-78470437D01*
X63643557Y-78464773D01*
X63621613Y-78456921D01*
X63600543Y-78446956D01*
X63580552Y-78434974D01*
X63561832Y-78421090D01*
X63544562Y-78405438D01*
X63528910Y-78388168D01*
X63515026Y-78369448D01*
X63503044Y-78349457D01*
X63493079Y-78328387D01*
X63485227Y-78306443D01*
X63479563Y-78283834D01*
X63476144Y-78260779D01*
X63475000Y-78237500D01*
X63475000Y-77762500D01*
X63476144Y-77739221D01*
X63479563Y-77716166D01*
X63485227Y-77693557D01*
X63493079Y-77671613D01*
X63503044Y-77650543D01*
X63515026Y-77630552D01*
X63528910Y-77611832D01*
X63544562Y-77594562D01*
X63561832Y-77578910D01*
X63580552Y-77565026D01*
X63600543Y-77553044D01*
X63621613Y-77543079D01*
X63643557Y-77535227D01*
X63666166Y-77529563D01*
X63689221Y-77526144D01*
X63712500Y-77525000D01*
X64287500Y-77525000D01*
X64310779Y-77526144D01*
X64310779Y-77526144D01*
G37*
D15*
X64000000Y-78000000D03*
D13*
G36*
X62560779Y-77526144D02*
G01*
X62583834Y-77529563D01*
X62606443Y-77535227D01*
X62628387Y-77543079D01*
X62649457Y-77553044D01*
X62669448Y-77565026D01*
X62688168Y-77578910D01*
X62705438Y-77594562D01*
X62721090Y-77611832D01*
X62734974Y-77630552D01*
X62746956Y-77650543D01*
X62756921Y-77671613D01*
X62764773Y-77693557D01*
X62770437Y-77716166D01*
X62773856Y-77739221D01*
X62775000Y-77762500D01*
X62775000Y-78237500D01*
X62773856Y-78260779D01*
X62770437Y-78283834D01*
X62764773Y-78306443D01*
X62756921Y-78328387D01*
X62746956Y-78349457D01*
X62734974Y-78369448D01*
X62721090Y-78388168D01*
X62705438Y-78405438D01*
X62688168Y-78421090D01*
X62669448Y-78434974D01*
X62649457Y-78446956D01*
X62628387Y-78456921D01*
X62606443Y-78464773D01*
X62583834Y-78470437D01*
X62560779Y-78473856D01*
X62537500Y-78475000D01*
X61962500Y-78475000D01*
X61939221Y-78473856D01*
X61916166Y-78470437D01*
X61893557Y-78464773D01*
X61871613Y-78456921D01*
X61850543Y-78446956D01*
X61830552Y-78434974D01*
X61811832Y-78421090D01*
X61794562Y-78405438D01*
X61778910Y-78388168D01*
X61765026Y-78369448D01*
X61753044Y-78349457D01*
X61743079Y-78328387D01*
X61735227Y-78306443D01*
X61729563Y-78283834D01*
X61726144Y-78260779D01*
X61725000Y-78237500D01*
X61725000Y-77762500D01*
X61726144Y-77739221D01*
X61729563Y-77716166D01*
X61735227Y-77693557D01*
X61743079Y-77671613D01*
X61753044Y-77650543D01*
X61765026Y-77630552D01*
X61778910Y-77611832D01*
X61794562Y-77594562D01*
X61811832Y-77578910D01*
X61830552Y-77565026D01*
X61850543Y-77553044D01*
X61871613Y-77543079D01*
X61893557Y-77535227D01*
X61916166Y-77529563D01*
X61939221Y-77526144D01*
X61962500Y-77525000D01*
X62537500Y-77525000D01*
X62560779Y-77526144D01*
X62560779Y-77526144D01*
G37*
D15*
X62250000Y-78000000D03*
D13*
G36*
X93310779Y-41526144D02*
G01*
X93333834Y-41529563D01*
X93356443Y-41535227D01*
X93378387Y-41543079D01*
X93399457Y-41553044D01*
X93419448Y-41565026D01*
X93438168Y-41578910D01*
X93455438Y-41594562D01*
X93471090Y-41611832D01*
X93484974Y-41630552D01*
X93496956Y-41650543D01*
X93506921Y-41671613D01*
X93514773Y-41693557D01*
X93520437Y-41716166D01*
X93523856Y-41739221D01*
X93525000Y-41762500D01*
X93525000Y-42237500D01*
X93523856Y-42260779D01*
X93520437Y-42283834D01*
X93514773Y-42306443D01*
X93506921Y-42328387D01*
X93496956Y-42349457D01*
X93484974Y-42369448D01*
X93471090Y-42388168D01*
X93455438Y-42405438D01*
X93438168Y-42421090D01*
X93419448Y-42434974D01*
X93399457Y-42446956D01*
X93378387Y-42456921D01*
X93356443Y-42464773D01*
X93333834Y-42470437D01*
X93310779Y-42473856D01*
X93287500Y-42475000D01*
X92712500Y-42475000D01*
X92689221Y-42473856D01*
X92666166Y-42470437D01*
X92643557Y-42464773D01*
X92621613Y-42456921D01*
X92600543Y-42446956D01*
X92580552Y-42434974D01*
X92561832Y-42421090D01*
X92544562Y-42405438D01*
X92528910Y-42388168D01*
X92515026Y-42369448D01*
X92503044Y-42349457D01*
X92493079Y-42328387D01*
X92485227Y-42306443D01*
X92479563Y-42283834D01*
X92476144Y-42260779D01*
X92475000Y-42237500D01*
X92475000Y-41762500D01*
X92476144Y-41739221D01*
X92479563Y-41716166D01*
X92485227Y-41693557D01*
X92493079Y-41671613D01*
X92503044Y-41650543D01*
X92515026Y-41630552D01*
X92528910Y-41611832D01*
X92544562Y-41594562D01*
X92561832Y-41578910D01*
X92580552Y-41565026D01*
X92600543Y-41553044D01*
X92621613Y-41543079D01*
X92643557Y-41535227D01*
X92666166Y-41529563D01*
X92689221Y-41526144D01*
X92712500Y-41525000D01*
X93287500Y-41525000D01*
X93310779Y-41526144D01*
X93310779Y-41526144D01*
G37*
D15*
X93000000Y-42000000D03*
D13*
G36*
X95060779Y-41526144D02*
G01*
X95083834Y-41529563D01*
X95106443Y-41535227D01*
X95128387Y-41543079D01*
X95149457Y-41553044D01*
X95169448Y-41565026D01*
X95188168Y-41578910D01*
X95205438Y-41594562D01*
X95221090Y-41611832D01*
X95234974Y-41630552D01*
X95246956Y-41650543D01*
X95256921Y-41671613D01*
X95264773Y-41693557D01*
X95270437Y-41716166D01*
X95273856Y-41739221D01*
X95275000Y-41762500D01*
X95275000Y-42237500D01*
X95273856Y-42260779D01*
X95270437Y-42283834D01*
X95264773Y-42306443D01*
X95256921Y-42328387D01*
X95246956Y-42349457D01*
X95234974Y-42369448D01*
X95221090Y-42388168D01*
X95205438Y-42405438D01*
X95188168Y-42421090D01*
X95169448Y-42434974D01*
X95149457Y-42446956D01*
X95128387Y-42456921D01*
X95106443Y-42464773D01*
X95083834Y-42470437D01*
X95060779Y-42473856D01*
X95037500Y-42475000D01*
X94462500Y-42475000D01*
X94439221Y-42473856D01*
X94416166Y-42470437D01*
X94393557Y-42464773D01*
X94371613Y-42456921D01*
X94350543Y-42446956D01*
X94330552Y-42434974D01*
X94311832Y-42421090D01*
X94294562Y-42405438D01*
X94278910Y-42388168D01*
X94265026Y-42369448D01*
X94253044Y-42349457D01*
X94243079Y-42328387D01*
X94235227Y-42306443D01*
X94229563Y-42283834D01*
X94226144Y-42260779D01*
X94225000Y-42237500D01*
X94225000Y-41762500D01*
X94226144Y-41739221D01*
X94229563Y-41716166D01*
X94235227Y-41693557D01*
X94243079Y-41671613D01*
X94253044Y-41650543D01*
X94265026Y-41630552D01*
X94278910Y-41611832D01*
X94294562Y-41594562D01*
X94311832Y-41578910D01*
X94330552Y-41565026D01*
X94350543Y-41553044D01*
X94371613Y-41543079D01*
X94393557Y-41535227D01*
X94416166Y-41529563D01*
X94439221Y-41526144D01*
X94462500Y-41525000D01*
X95037500Y-41525000D01*
X95060779Y-41526144D01*
X95060779Y-41526144D01*
G37*
D15*
X94750000Y-42000000D03*
D13*
G36*
X90260779Y-80726144D02*
G01*
X90283834Y-80729563D01*
X90306443Y-80735227D01*
X90328387Y-80743079D01*
X90349457Y-80753044D01*
X90369448Y-80765026D01*
X90388168Y-80778910D01*
X90405438Y-80794562D01*
X90421090Y-80811832D01*
X90434974Y-80830552D01*
X90446956Y-80850543D01*
X90456921Y-80871613D01*
X90464773Y-80893557D01*
X90470437Y-80916166D01*
X90473856Y-80939221D01*
X90475000Y-80962500D01*
X90475000Y-81537500D01*
X90473856Y-81560779D01*
X90470437Y-81583834D01*
X90464773Y-81606443D01*
X90456921Y-81628387D01*
X90446956Y-81649457D01*
X90434974Y-81669448D01*
X90421090Y-81688168D01*
X90405438Y-81705438D01*
X90388168Y-81721090D01*
X90369448Y-81734974D01*
X90349457Y-81746956D01*
X90328387Y-81756921D01*
X90306443Y-81764773D01*
X90283834Y-81770437D01*
X90260779Y-81773856D01*
X90237500Y-81775000D01*
X89762500Y-81775000D01*
X89739221Y-81773856D01*
X89716166Y-81770437D01*
X89693557Y-81764773D01*
X89671613Y-81756921D01*
X89650543Y-81746956D01*
X89630552Y-81734974D01*
X89611832Y-81721090D01*
X89594562Y-81705438D01*
X89578910Y-81688168D01*
X89565026Y-81669448D01*
X89553044Y-81649457D01*
X89543079Y-81628387D01*
X89535227Y-81606443D01*
X89529563Y-81583834D01*
X89526144Y-81560779D01*
X89525000Y-81537500D01*
X89525000Y-80962500D01*
X89526144Y-80939221D01*
X89529563Y-80916166D01*
X89535227Y-80893557D01*
X89543079Y-80871613D01*
X89553044Y-80850543D01*
X89565026Y-80830552D01*
X89578910Y-80811832D01*
X89594562Y-80794562D01*
X89611832Y-80778910D01*
X89630552Y-80765026D01*
X89650543Y-80753044D01*
X89671613Y-80743079D01*
X89693557Y-80735227D01*
X89716166Y-80729563D01*
X89739221Y-80726144D01*
X89762500Y-80725000D01*
X90237500Y-80725000D01*
X90260779Y-80726144D01*
X90260779Y-80726144D01*
G37*
D15*
X90000000Y-81250000D03*
D13*
G36*
X90260779Y-82476144D02*
G01*
X90283834Y-82479563D01*
X90306443Y-82485227D01*
X90328387Y-82493079D01*
X90349457Y-82503044D01*
X90369448Y-82515026D01*
X90388168Y-82528910D01*
X90405438Y-82544562D01*
X90421090Y-82561832D01*
X90434974Y-82580552D01*
X90446956Y-82600543D01*
X90456921Y-82621613D01*
X90464773Y-82643557D01*
X90470437Y-82666166D01*
X90473856Y-82689221D01*
X90475000Y-82712500D01*
X90475000Y-83287500D01*
X90473856Y-83310779D01*
X90470437Y-83333834D01*
X90464773Y-83356443D01*
X90456921Y-83378387D01*
X90446956Y-83399457D01*
X90434974Y-83419448D01*
X90421090Y-83438168D01*
X90405438Y-83455438D01*
X90388168Y-83471090D01*
X90369448Y-83484974D01*
X90349457Y-83496956D01*
X90328387Y-83506921D01*
X90306443Y-83514773D01*
X90283834Y-83520437D01*
X90260779Y-83523856D01*
X90237500Y-83525000D01*
X89762500Y-83525000D01*
X89739221Y-83523856D01*
X89716166Y-83520437D01*
X89693557Y-83514773D01*
X89671613Y-83506921D01*
X89650543Y-83496956D01*
X89630552Y-83484974D01*
X89611832Y-83471090D01*
X89594562Y-83455438D01*
X89578910Y-83438168D01*
X89565026Y-83419448D01*
X89553044Y-83399457D01*
X89543079Y-83378387D01*
X89535227Y-83356443D01*
X89529563Y-83333834D01*
X89526144Y-83310779D01*
X89525000Y-83287500D01*
X89525000Y-82712500D01*
X89526144Y-82689221D01*
X89529563Y-82666166D01*
X89535227Y-82643557D01*
X89543079Y-82621613D01*
X89553044Y-82600543D01*
X89565026Y-82580552D01*
X89578910Y-82561832D01*
X89594562Y-82544562D01*
X89611832Y-82528910D01*
X89630552Y-82515026D01*
X89650543Y-82503044D01*
X89671613Y-82493079D01*
X89693557Y-82485227D01*
X89716166Y-82479563D01*
X89739221Y-82476144D01*
X89762500Y-82475000D01*
X90237500Y-82475000D01*
X90260779Y-82476144D01*
X90260779Y-82476144D01*
G37*
D15*
X90000000Y-83000000D03*
D13*
G36*
X87260779Y-93226144D02*
G01*
X87283834Y-93229563D01*
X87306443Y-93235227D01*
X87328387Y-93243079D01*
X87349457Y-93253044D01*
X87369448Y-93265026D01*
X87388168Y-93278910D01*
X87405438Y-93294562D01*
X87421090Y-93311832D01*
X87434974Y-93330552D01*
X87446956Y-93350543D01*
X87456921Y-93371613D01*
X87464773Y-93393557D01*
X87470437Y-93416166D01*
X87473856Y-93439221D01*
X87475000Y-93462500D01*
X87475000Y-94037500D01*
X87473856Y-94060779D01*
X87470437Y-94083834D01*
X87464773Y-94106443D01*
X87456921Y-94128387D01*
X87446956Y-94149457D01*
X87434974Y-94169448D01*
X87421090Y-94188168D01*
X87405438Y-94205438D01*
X87388168Y-94221090D01*
X87369448Y-94234974D01*
X87349457Y-94246956D01*
X87328387Y-94256921D01*
X87306443Y-94264773D01*
X87283834Y-94270437D01*
X87260779Y-94273856D01*
X87237500Y-94275000D01*
X86762500Y-94275000D01*
X86739221Y-94273856D01*
X86716166Y-94270437D01*
X86693557Y-94264773D01*
X86671613Y-94256921D01*
X86650543Y-94246956D01*
X86630552Y-94234974D01*
X86611832Y-94221090D01*
X86594562Y-94205438D01*
X86578910Y-94188168D01*
X86565026Y-94169448D01*
X86553044Y-94149457D01*
X86543079Y-94128387D01*
X86535227Y-94106443D01*
X86529563Y-94083834D01*
X86526144Y-94060779D01*
X86525000Y-94037500D01*
X86525000Y-93462500D01*
X86526144Y-93439221D01*
X86529563Y-93416166D01*
X86535227Y-93393557D01*
X86543079Y-93371613D01*
X86553044Y-93350543D01*
X86565026Y-93330552D01*
X86578910Y-93311832D01*
X86594562Y-93294562D01*
X86611832Y-93278910D01*
X86630552Y-93265026D01*
X86650543Y-93253044D01*
X86671613Y-93243079D01*
X86693557Y-93235227D01*
X86716166Y-93229563D01*
X86739221Y-93226144D01*
X86762500Y-93225000D01*
X87237500Y-93225000D01*
X87260779Y-93226144D01*
X87260779Y-93226144D01*
G37*
D15*
X87000000Y-93750000D03*
D13*
G36*
X87260779Y-91476144D02*
G01*
X87283834Y-91479563D01*
X87306443Y-91485227D01*
X87328387Y-91493079D01*
X87349457Y-91503044D01*
X87369448Y-91515026D01*
X87388168Y-91528910D01*
X87405438Y-91544562D01*
X87421090Y-91561832D01*
X87434974Y-91580552D01*
X87446956Y-91600543D01*
X87456921Y-91621613D01*
X87464773Y-91643557D01*
X87470437Y-91666166D01*
X87473856Y-91689221D01*
X87475000Y-91712500D01*
X87475000Y-92287500D01*
X87473856Y-92310779D01*
X87470437Y-92333834D01*
X87464773Y-92356443D01*
X87456921Y-92378387D01*
X87446956Y-92399457D01*
X87434974Y-92419448D01*
X87421090Y-92438168D01*
X87405438Y-92455438D01*
X87388168Y-92471090D01*
X87369448Y-92484974D01*
X87349457Y-92496956D01*
X87328387Y-92506921D01*
X87306443Y-92514773D01*
X87283834Y-92520437D01*
X87260779Y-92523856D01*
X87237500Y-92525000D01*
X86762500Y-92525000D01*
X86739221Y-92523856D01*
X86716166Y-92520437D01*
X86693557Y-92514773D01*
X86671613Y-92506921D01*
X86650543Y-92496956D01*
X86630552Y-92484974D01*
X86611832Y-92471090D01*
X86594562Y-92455438D01*
X86578910Y-92438168D01*
X86565026Y-92419448D01*
X86553044Y-92399457D01*
X86543079Y-92378387D01*
X86535227Y-92356443D01*
X86529563Y-92333834D01*
X86526144Y-92310779D01*
X86525000Y-92287500D01*
X86525000Y-91712500D01*
X86526144Y-91689221D01*
X86529563Y-91666166D01*
X86535227Y-91643557D01*
X86543079Y-91621613D01*
X86553044Y-91600543D01*
X86565026Y-91580552D01*
X86578910Y-91561832D01*
X86594562Y-91544562D01*
X86611832Y-91528910D01*
X86630552Y-91515026D01*
X86650543Y-91503044D01*
X86671613Y-91493079D01*
X86693557Y-91485227D01*
X86716166Y-91479563D01*
X86739221Y-91476144D01*
X86762500Y-91475000D01*
X87237500Y-91475000D01*
X87260779Y-91476144D01*
X87260779Y-91476144D01*
G37*
D15*
X87000000Y-92000000D03*
D13*
G36*
X87260779Y-87476144D02*
G01*
X87283834Y-87479563D01*
X87306443Y-87485227D01*
X87328387Y-87493079D01*
X87349457Y-87503044D01*
X87369448Y-87515026D01*
X87388168Y-87528910D01*
X87405438Y-87544562D01*
X87421090Y-87561832D01*
X87434974Y-87580552D01*
X87446956Y-87600543D01*
X87456921Y-87621613D01*
X87464773Y-87643557D01*
X87470437Y-87666166D01*
X87473856Y-87689221D01*
X87475000Y-87712500D01*
X87475000Y-88287500D01*
X87473856Y-88310779D01*
X87470437Y-88333834D01*
X87464773Y-88356443D01*
X87456921Y-88378387D01*
X87446956Y-88399457D01*
X87434974Y-88419448D01*
X87421090Y-88438168D01*
X87405438Y-88455438D01*
X87388168Y-88471090D01*
X87369448Y-88484974D01*
X87349457Y-88496956D01*
X87328387Y-88506921D01*
X87306443Y-88514773D01*
X87283834Y-88520437D01*
X87260779Y-88523856D01*
X87237500Y-88525000D01*
X86762500Y-88525000D01*
X86739221Y-88523856D01*
X86716166Y-88520437D01*
X86693557Y-88514773D01*
X86671613Y-88506921D01*
X86650543Y-88496956D01*
X86630552Y-88484974D01*
X86611832Y-88471090D01*
X86594562Y-88455438D01*
X86578910Y-88438168D01*
X86565026Y-88419448D01*
X86553044Y-88399457D01*
X86543079Y-88378387D01*
X86535227Y-88356443D01*
X86529563Y-88333834D01*
X86526144Y-88310779D01*
X86525000Y-88287500D01*
X86525000Y-87712500D01*
X86526144Y-87689221D01*
X86529563Y-87666166D01*
X86535227Y-87643557D01*
X86543079Y-87621613D01*
X86553044Y-87600543D01*
X86565026Y-87580552D01*
X86578910Y-87561832D01*
X86594562Y-87544562D01*
X86611832Y-87528910D01*
X86630552Y-87515026D01*
X86650543Y-87503044D01*
X86671613Y-87493079D01*
X86693557Y-87485227D01*
X86716166Y-87479563D01*
X86739221Y-87476144D01*
X86762500Y-87475000D01*
X87237500Y-87475000D01*
X87260779Y-87476144D01*
X87260779Y-87476144D01*
G37*
D15*
X87000000Y-88000000D03*
D13*
G36*
X87260779Y-85726144D02*
G01*
X87283834Y-85729563D01*
X87306443Y-85735227D01*
X87328387Y-85743079D01*
X87349457Y-85753044D01*
X87369448Y-85765026D01*
X87388168Y-85778910D01*
X87405438Y-85794562D01*
X87421090Y-85811832D01*
X87434974Y-85830552D01*
X87446956Y-85850543D01*
X87456921Y-85871613D01*
X87464773Y-85893557D01*
X87470437Y-85916166D01*
X87473856Y-85939221D01*
X87475000Y-85962500D01*
X87475000Y-86537500D01*
X87473856Y-86560779D01*
X87470437Y-86583834D01*
X87464773Y-86606443D01*
X87456921Y-86628387D01*
X87446956Y-86649457D01*
X87434974Y-86669448D01*
X87421090Y-86688168D01*
X87405438Y-86705438D01*
X87388168Y-86721090D01*
X87369448Y-86734974D01*
X87349457Y-86746956D01*
X87328387Y-86756921D01*
X87306443Y-86764773D01*
X87283834Y-86770437D01*
X87260779Y-86773856D01*
X87237500Y-86775000D01*
X86762500Y-86775000D01*
X86739221Y-86773856D01*
X86716166Y-86770437D01*
X86693557Y-86764773D01*
X86671613Y-86756921D01*
X86650543Y-86746956D01*
X86630552Y-86734974D01*
X86611832Y-86721090D01*
X86594562Y-86705438D01*
X86578910Y-86688168D01*
X86565026Y-86669448D01*
X86553044Y-86649457D01*
X86543079Y-86628387D01*
X86535227Y-86606443D01*
X86529563Y-86583834D01*
X86526144Y-86560779D01*
X86525000Y-86537500D01*
X86525000Y-85962500D01*
X86526144Y-85939221D01*
X86529563Y-85916166D01*
X86535227Y-85893557D01*
X86543079Y-85871613D01*
X86553044Y-85850543D01*
X86565026Y-85830552D01*
X86578910Y-85811832D01*
X86594562Y-85794562D01*
X86611832Y-85778910D01*
X86630552Y-85765026D01*
X86650543Y-85753044D01*
X86671613Y-85743079D01*
X86693557Y-85735227D01*
X86716166Y-85729563D01*
X86739221Y-85726144D01*
X86762500Y-85725000D01*
X87237500Y-85725000D01*
X87260779Y-85726144D01*
X87260779Y-85726144D01*
G37*
D15*
X87000000Y-86250000D03*
D18*
X93000000Y-45800000D03*
X97500000Y-45800000D03*
X93000000Y-54200000D03*
X95250000Y-54200000D03*
X97500000Y-54200000D03*
D13*
G36*
X75974703Y-74025722D02*
G01*
X75989264Y-74027882D01*
X76003543Y-74031459D01*
X76017403Y-74036418D01*
X76030710Y-74042712D01*
X76043336Y-74050280D01*
X76055159Y-74059048D01*
X76066066Y-74068934D01*
X76075952Y-74079841D01*
X76084720Y-74091664D01*
X76092288Y-74104290D01*
X76098582Y-74117597D01*
X76103541Y-74131457D01*
X76107118Y-74145736D01*
X76109278Y-74160297D01*
X76110000Y-74175000D01*
X76110000Y-75825000D01*
X76109278Y-75839703D01*
X76107118Y-75854264D01*
X76103541Y-75868543D01*
X76098582Y-75882403D01*
X76092288Y-75895710D01*
X76084720Y-75908336D01*
X76075952Y-75920159D01*
X76066066Y-75931066D01*
X76055159Y-75940952D01*
X76043336Y-75949720D01*
X76030710Y-75957288D01*
X76017403Y-75963582D01*
X76003543Y-75968541D01*
X75989264Y-75972118D01*
X75974703Y-75974278D01*
X75960000Y-75975000D01*
X75660000Y-75975000D01*
X75645297Y-75974278D01*
X75630736Y-75972118D01*
X75616457Y-75968541D01*
X75602597Y-75963582D01*
X75589290Y-75957288D01*
X75576664Y-75949720D01*
X75564841Y-75940952D01*
X75553934Y-75931066D01*
X75544048Y-75920159D01*
X75535280Y-75908336D01*
X75527712Y-75895710D01*
X75521418Y-75882403D01*
X75516459Y-75868543D01*
X75512882Y-75854264D01*
X75510722Y-75839703D01*
X75510000Y-75825000D01*
X75510000Y-74175000D01*
X75510722Y-74160297D01*
X75512882Y-74145736D01*
X75516459Y-74131457D01*
X75521418Y-74117597D01*
X75527712Y-74104290D01*
X75535280Y-74091664D01*
X75544048Y-74079841D01*
X75553934Y-74068934D01*
X75564841Y-74059048D01*
X75576664Y-74050280D01*
X75589290Y-74042712D01*
X75602597Y-74036418D01*
X75616457Y-74031459D01*
X75630736Y-74027882D01*
X75645297Y-74025722D01*
X75660000Y-74025000D01*
X75960000Y-74025000D01*
X75974703Y-74025722D01*
X75974703Y-74025722D01*
G37*
D19*
X75810000Y-75000000D03*
D13*
G36*
X74704703Y-74025722D02*
G01*
X74719264Y-74027882D01*
X74733543Y-74031459D01*
X74747403Y-74036418D01*
X74760710Y-74042712D01*
X74773336Y-74050280D01*
X74785159Y-74059048D01*
X74796066Y-74068934D01*
X74805952Y-74079841D01*
X74814720Y-74091664D01*
X74822288Y-74104290D01*
X74828582Y-74117597D01*
X74833541Y-74131457D01*
X74837118Y-74145736D01*
X74839278Y-74160297D01*
X74840000Y-74175000D01*
X74840000Y-75825000D01*
X74839278Y-75839703D01*
X74837118Y-75854264D01*
X74833541Y-75868543D01*
X74828582Y-75882403D01*
X74822288Y-75895710D01*
X74814720Y-75908336D01*
X74805952Y-75920159D01*
X74796066Y-75931066D01*
X74785159Y-75940952D01*
X74773336Y-75949720D01*
X74760710Y-75957288D01*
X74747403Y-75963582D01*
X74733543Y-75968541D01*
X74719264Y-75972118D01*
X74704703Y-75974278D01*
X74690000Y-75975000D01*
X74390000Y-75975000D01*
X74375297Y-75974278D01*
X74360736Y-75972118D01*
X74346457Y-75968541D01*
X74332597Y-75963582D01*
X74319290Y-75957288D01*
X74306664Y-75949720D01*
X74294841Y-75940952D01*
X74283934Y-75931066D01*
X74274048Y-75920159D01*
X74265280Y-75908336D01*
X74257712Y-75895710D01*
X74251418Y-75882403D01*
X74246459Y-75868543D01*
X74242882Y-75854264D01*
X74240722Y-75839703D01*
X74240000Y-75825000D01*
X74240000Y-74175000D01*
X74240722Y-74160297D01*
X74242882Y-74145736D01*
X74246459Y-74131457D01*
X74251418Y-74117597D01*
X74257712Y-74104290D01*
X74265280Y-74091664D01*
X74274048Y-74079841D01*
X74283934Y-74068934D01*
X74294841Y-74059048D01*
X74306664Y-74050280D01*
X74319290Y-74042712D01*
X74332597Y-74036418D01*
X74346457Y-74031459D01*
X74360736Y-74027882D01*
X74375297Y-74025722D01*
X74390000Y-74025000D01*
X74690000Y-74025000D01*
X74704703Y-74025722D01*
X74704703Y-74025722D01*
G37*
D19*
X74540000Y-75000000D03*
D13*
G36*
X73434703Y-74025722D02*
G01*
X73449264Y-74027882D01*
X73463543Y-74031459D01*
X73477403Y-74036418D01*
X73490710Y-74042712D01*
X73503336Y-74050280D01*
X73515159Y-74059048D01*
X73526066Y-74068934D01*
X73535952Y-74079841D01*
X73544720Y-74091664D01*
X73552288Y-74104290D01*
X73558582Y-74117597D01*
X73563541Y-74131457D01*
X73567118Y-74145736D01*
X73569278Y-74160297D01*
X73570000Y-74175000D01*
X73570000Y-75825000D01*
X73569278Y-75839703D01*
X73567118Y-75854264D01*
X73563541Y-75868543D01*
X73558582Y-75882403D01*
X73552288Y-75895710D01*
X73544720Y-75908336D01*
X73535952Y-75920159D01*
X73526066Y-75931066D01*
X73515159Y-75940952D01*
X73503336Y-75949720D01*
X73490710Y-75957288D01*
X73477403Y-75963582D01*
X73463543Y-75968541D01*
X73449264Y-75972118D01*
X73434703Y-75974278D01*
X73420000Y-75975000D01*
X73120000Y-75975000D01*
X73105297Y-75974278D01*
X73090736Y-75972118D01*
X73076457Y-75968541D01*
X73062597Y-75963582D01*
X73049290Y-75957288D01*
X73036664Y-75949720D01*
X73024841Y-75940952D01*
X73013934Y-75931066D01*
X73004048Y-75920159D01*
X72995280Y-75908336D01*
X72987712Y-75895710D01*
X72981418Y-75882403D01*
X72976459Y-75868543D01*
X72972882Y-75854264D01*
X72970722Y-75839703D01*
X72970000Y-75825000D01*
X72970000Y-74175000D01*
X72970722Y-74160297D01*
X72972882Y-74145736D01*
X72976459Y-74131457D01*
X72981418Y-74117597D01*
X72987712Y-74104290D01*
X72995280Y-74091664D01*
X73004048Y-74079841D01*
X73013934Y-74068934D01*
X73024841Y-74059048D01*
X73036664Y-74050280D01*
X73049290Y-74042712D01*
X73062597Y-74036418D01*
X73076457Y-74031459D01*
X73090736Y-74027882D01*
X73105297Y-74025722D01*
X73120000Y-74025000D01*
X73420000Y-74025000D01*
X73434703Y-74025722D01*
X73434703Y-74025722D01*
G37*
D19*
X73270000Y-75000000D03*
D13*
G36*
X72164703Y-74025722D02*
G01*
X72179264Y-74027882D01*
X72193543Y-74031459D01*
X72207403Y-74036418D01*
X72220710Y-74042712D01*
X72233336Y-74050280D01*
X72245159Y-74059048D01*
X72256066Y-74068934D01*
X72265952Y-74079841D01*
X72274720Y-74091664D01*
X72282288Y-74104290D01*
X72288582Y-74117597D01*
X72293541Y-74131457D01*
X72297118Y-74145736D01*
X72299278Y-74160297D01*
X72300000Y-74175000D01*
X72300000Y-75825000D01*
X72299278Y-75839703D01*
X72297118Y-75854264D01*
X72293541Y-75868543D01*
X72288582Y-75882403D01*
X72282288Y-75895710D01*
X72274720Y-75908336D01*
X72265952Y-75920159D01*
X72256066Y-75931066D01*
X72245159Y-75940952D01*
X72233336Y-75949720D01*
X72220710Y-75957288D01*
X72207403Y-75963582D01*
X72193543Y-75968541D01*
X72179264Y-75972118D01*
X72164703Y-75974278D01*
X72150000Y-75975000D01*
X71850000Y-75975000D01*
X71835297Y-75974278D01*
X71820736Y-75972118D01*
X71806457Y-75968541D01*
X71792597Y-75963582D01*
X71779290Y-75957288D01*
X71766664Y-75949720D01*
X71754841Y-75940952D01*
X71743934Y-75931066D01*
X71734048Y-75920159D01*
X71725280Y-75908336D01*
X71717712Y-75895710D01*
X71711418Y-75882403D01*
X71706459Y-75868543D01*
X71702882Y-75854264D01*
X71700722Y-75839703D01*
X71700000Y-75825000D01*
X71700000Y-74175000D01*
X71700722Y-74160297D01*
X71702882Y-74145736D01*
X71706459Y-74131457D01*
X71711418Y-74117597D01*
X71717712Y-74104290D01*
X71725280Y-74091664D01*
X71734048Y-74079841D01*
X71743934Y-74068934D01*
X71754841Y-74059048D01*
X71766664Y-74050280D01*
X71779290Y-74042712D01*
X71792597Y-74036418D01*
X71806457Y-74031459D01*
X71820736Y-74027882D01*
X71835297Y-74025722D01*
X71850000Y-74025000D01*
X72150000Y-74025000D01*
X72164703Y-74025722D01*
X72164703Y-74025722D01*
G37*
D19*
X72000000Y-75000000D03*
D13*
G36*
X70894703Y-74025722D02*
G01*
X70909264Y-74027882D01*
X70923543Y-74031459D01*
X70937403Y-74036418D01*
X70950710Y-74042712D01*
X70963336Y-74050280D01*
X70975159Y-74059048D01*
X70986066Y-74068934D01*
X70995952Y-74079841D01*
X71004720Y-74091664D01*
X71012288Y-74104290D01*
X71018582Y-74117597D01*
X71023541Y-74131457D01*
X71027118Y-74145736D01*
X71029278Y-74160297D01*
X71030000Y-74175000D01*
X71030000Y-75825000D01*
X71029278Y-75839703D01*
X71027118Y-75854264D01*
X71023541Y-75868543D01*
X71018582Y-75882403D01*
X71012288Y-75895710D01*
X71004720Y-75908336D01*
X70995952Y-75920159D01*
X70986066Y-75931066D01*
X70975159Y-75940952D01*
X70963336Y-75949720D01*
X70950710Y-75957288D01*
X70937403Y-75963582D01*
X70923543Y-75968541D01*
X70909264Y-75972118D01*
X70894703Y-75974278D01*
X70880000Y-75975000D01*
X70580000Y-75975000D01*
X70565297Y-75974278D01*
X70550736Y-75972118D01*
X70536457Y-75968541D01*
X70522597Y-75963582D01*
X70509290Y-75957288D01*
X70496664Y-75949720D01*
X70484841Y-75940952D01*
X70473934Y-75931066D01*
X70464048Y-75920159D01*
X70455280Y-75908336D01*
X70447712Y-75895710D01*
X70441418Y-75882403D01*
X70436459Y-75868543D01*
X70432882Y-75854264D01*
X70430722Y-75839703D01*
X70430000Y-75825000D01*
X70430000Y-74175000D01*
X70430722Y-74160297D01*
X70432882Y-74145736D01*
X70436459Y-74131457D01*
X70441418Y-74117597D01*
X70447712Y-74104290D01*
X70455280Y-74091664D01*
X70464048Y-74079841D01*
X70473934Y-74068934D01*
X70484841Y-74059048D01*
X70496664Y-74050280D01*
X70509290Y-74042712D01*
X70522597Y-74036418D01*
X70536457Y-74031459D01*
X70550736Y-74027882D01*
X70565297Y-74025722D01*
X70580000Y-74025000D01*
X70880000Y-74025000D01*
X70894703Y-74025722D01*
X70894703Y-74025722D01*
G37*
D19*
X70730000Y-75000000D03*
D13*
G36*
X69624703Y-74025722D02*
G01*
X69639264Y-74027882D01*
X69653543Y-74031459D01*
X69667403Y-74036418D01*
X69680710Y-74042712D01*
X69693336Y-74050280D01*
X69705159Y-74059048D01*
X69716066Y-74068934D01*
X69725952Y-74079841D01*
X69734720Y-74091664D01*
X69742288Y-74104290D01*
X69748582Y-74117597D01*
X69753541Y-74131457D01*
X69757118Y-74145736D01*
X69759278Y-74160297D01*
X69760000Y-74175000D01*
X69760000Y-75825000D01*
X69759278Y-75839703D01*
X69757118Y-75854264D01*
X69753541Y-75868543D01*
X69748582Y-75882403D01*
X69742288Y-75895710D01*
X69734720Y-75908336D01*
X69725952Y-75920159D01*
X69716066Y-75931066D01*
X69705159Y-75940952D01*
X69693336Y-75949720D01*
X69680710Y-75957288D01*
X69667403Y-75963582D01*
X69653543Y-75968541D01*
X69639264Y-75972118D01*
X69624703Y-75974278D01*
X69610000Y-75975000D01*
X69310000Y-75975000D01*
X69295297Y-75974278D01*
X69280736Y-75972118D01*
X69266457Y-75968541D01*
X69252597Y-75963582D01*
X69239290Y-75957288D01*
X69226664Y-75949720D01*
X69214841Y-75940952D01*
X69203934Y-75931066D01*
X69194048Y-75920159D01*
X69185280Y-75908336D01*
X69177712Y-75895710D01*
X69171418Y-75882403D01*
X69166459Y-75868543D01*
X69162882Y-75854264D01*
X69160722Y-75839703D01*
X69160000Y-75825000D01*
X69160000Y-74175000D01*
X69160722Y-74160297D01*
X69162882Y-74145736D01*
X69166459Y-74131457D01*
X69171418Y-74117597D01*
X69177712Y-74104290D01*
X69185280Y-74091664D01*
X69194048Y-74079841D01*
X69203934Y-74068934D01*
X69214841Y-74059048D01*
X69226664Y-74050280D01*
X69239290Y-74042712D01*
X69252597Y-74036418D01*
X69266457Y-74031459D01*
X69280736Y-74027882D01*
X69295297Y-74025722D01*
X69310000Y-74025000D01*
X69610000Y-74025000D01*
X69624703Y-74025722D01*
X69624703Y-74025722D01*
G37*
D19*
X69460000Y-75000000D03*
D13*
G36*
X68354703Y-74025722D02*
G01*
X68369264Y-74027882D01*
X68383543Y-74031459D01*
X68397403Y-74036418D01*
X68410710Y-74042712D01*
X68423336Y-74050280D01*
X68435159Y-74059048D01*
X68446066Y-74068934D01*
X68455952Y-74079841D01*
X68464720Y-74091664D01*
X68472288Y-74104290D01*
X68478582Y-74117597D01*
X68483541Y-74131457D01*
X68487118Y-74145736D01*
X68489278Y-74160297D01*
X68490000Y-74175000D01*
X68490000Y-75825000D01*
X68489278Y-75839703D01*
X68487118Y-75854264D01*
X68483541Y-75868543D01*
X68478582Y-75882403D01*
X68472288Y-75895710D01*
X68464720Y-75908336D01*
X68455952Y-75920159D01*
X68446066Y-75931066D01*
X68435159Y-75940952D01*
X68423336Y-75949720D01*
X68410710Y-75957288D01*
X68397403Y-75963582D01*
X68383543Y-75968541D01*
X68369264Y-75972118D01*
X68354703Y-75974278D01*
X68340000Y-75975000D01*
X68040000Y-75975000D01*
X68025297Y-75974278D01*
X68010736Y-75972118D01*
X67996457Y-75968541D01*
X67982597Y-75963582D01*
X67969290Y-75957288D01*
X67956664Y-75949720D01*
X67944841Y-75940952D01*
X67933934Y-75931066D01*
X67924048Y-75920159D01*
X67915280Y-75908336D01*
X67907712Y-75895710D01*
X67901418Y-75882403D01*
X67896459Y-75868543D01*
X67892882Y-75854264D01*
X67890722Y-75839703D01*
X67890000Y-75825000D01*
X67890000Y-74175000D01*
X67890722Y-74160297D01*
X67892882Y-74145736D01*
X67896459Y-74131457D01*
X67901418Y-74117597D01*
X67907712Y-74104290D01*
X67915280Y-74091664D01*
X67924048Y-74079841D01*
X67933934Y-74068934D01*
X67944841Y-74059048D01*
X67956664Y-74050280D01*
X67969290Y-74042712D01*
X67982597Y-74036418D01*
X67996457Y-74031459D01*
X68010736Y-74027882D01*
X68025297Y-74025722D01*
X68040000Y-74025000D01*
X68340000Y-74025000D01*
X68354703Y-74025722D01*
X68354703Y-74025722D01*
G37*
D19*
X68190000Y-75000000D03*
D13*
G36*
X68354703Y-69075722D02*
G01*
X68369264Y-69077882D01*
X68383543Y-69081459D01*
X68397403Y-69086418D01*
X68410710Y-69092712D01*
X68423336Y-69100280D01*
X68435159Y-69109048D01*
X68446066Y-69118934D01*
X68455952Y-69129841D01*
X68464720Y-69141664D01*
X68472288Y-69154290D01*
X68478582Y-69167597D01*
X68483541Y-69181457D01*
X68487118Y-69195736D01*
X68489278Y-69210297D01*
X68490000Y-69225000D01*
X68490000Y-70875000D01*
X68489278Y-70889703D01*
X68487118Y-70904264D01*
X68483541Y-70918543D01*
X68478582Y-70932403D01*
X68472288Y-70945710D01*
X68464720Y-70958336D01*
X68455952Y-70970159D01*
X68446066Y-70981066D01*
X68435159Y-70990952D01*
X68423336Y-70999720D01*
X68410710Y-71007288D01*
X68397403Y-71013582D01*
X68383543Y-71018541D01*
X68369264Y-71022118D01*
X68354703Y-71024278D01*
X68340000Y-71025000D01*
X68040000Y-71025000D01*
X68025297Y-71024278D01*
X68010736Y-71022118D01*
X67996457Y-71018541D01*
X67982597Y-71013582D01*
X67969290Y-71007288D01*
X67956664Y-70999720D01*
X67944841Y-70990952D01*
X67933934Y-70981066D01*
X67924048Y-70970159D01*
X67915280Y-70958336D01*
X67907712Y-70945710D01*
X67901418Y-70932403D01*
X67896459Y-70918543D01*
X67892882Y-70904264D01*
X67890722Y-70889703D01*
X67890000Y-70875000D01*
X67890000Y-69225000D01*
X67890722Y-69210297D01*
X67892882Y-69195736D01*
X67896459Y-69181457D01*
X67901418Y-69167597D01*
X67907712Y-69154290D01*
X67915280Y-69141664D01*
X67924048Y-69129841D01*
X67933934Y-69118934D01*
X67944841Y-69109048D01*
X67956664Y-69100280D01*
X67969290Y-69092712D01*
X67982597Y-69086418D01*
X67996457Y-69081459D01*
X68010736Y-69077882D01*
X68025297Y-69075722D01*
X68040000Y-69075000D01*
X68340000Y-69075000D01*
X68354703Y-69075722D01*
X68354703Y-69075722D01*
G37*
D19*
X68190000Y-70050000D03*
D13*
G36*
X69624703Y-69075722D02*
G01*
X69639264Y-69077882D01*
X69653543Y-69081459D01*
X69667403Y-69086418D01*
X69680710Y-69092712D01*
X69693336Y-69100280D01*
X69705159Y-69109048D01*
X69716066Y-69118934D01*
X69725952Y-69129841D01*
X69734720Y-69141664D01*
X69742288Y-69154290D01*
X69748582Y-69167597D01*
X69753541Y-69181457D01*
X69757118Y-69195736D01*
X69759278Y-69210297D01*
X69760000Y-69225000D01*
X69760000Y-70875000D01*
X69759278Y-70889703D01*
X69757118Y-70904264D01*
X69753541Y-70918543D01*
X69748582Y-70932403D01*
X69742288Y-70945710D01*
X69734720Y-70958336D01*
X69725952Y-70970159D01*
X69716066Y-70981066D01*
X69705159Y-70990952D01*
X69693336Y-70999720D01*
X69680710Y-71007288D01*
X69667403Y-71013582D01*
X69653543Y-71018541D01*
X69639264Y-71022118D01*
X69624703Y-71024278D01*
X69610000Y-71025000D01*
X69310000Y-71025000D01*
X69295297Y-71024278D01*
X69280736Y-71022118D01*
X69266457Y-71018541D01*
X69252597Y-71013582D01*
X69239290Y-71007288D01*
X69226664Y-70999720D01*
X69214841Y-70990952D01*
X69203934Y-70981066D01*
X69194048Y-70970159D01*
X69185280Y-70958336D01*
X69177712Y-70945710D01*
X69171418Y-70932403D01*
X69166459Y-70918543D01*
X69162882Y-70904264D01*
X69160722Y-70889703D01*
X69160000Y-70875000D01*
X69160000Y-69225000D01*
X69160722Y-69210297D01*
X69162882Y-69195736D01*
X69166459Y-69181457D01*
X69171418Y-69167597D01*
X69177712Y-69154290D01*
X69185280Y-69141664D01*
X69194048Y-69129841D01*
X69203934Y-69118934D01*
X69214841Y-69109048D01*
X69226664Y-69100280D01*
X69239290Y-69092712D01*
X69252597Y-69086418D01*
X69266457Y-69081459D01*
X69280736Y-69077882D01*
X69295297Y-69075722D01*
X69310000Y-69075000D01*
X69610000Y-69075000D01*
X69624703Y-69075722D01*
X69624703Y-69075722D01*
G37*
D19*
X69460000Y-70050000D03*
D13*
G36*
X70894703Y-69075722D02*
G01*
X70909264Y-69077882D01*
X70923543Y-69081459D01*
X70937403Y-69086418D01*
X70950710Y-69092712D01*
X70963336Y-69100280D01*
X70975159Y-69109048D01*
X70986066Y-69118934D01*
X70995952Y-69129841D01*
X71004720Y-69141664D01*
X71012288Y-69154290D01*
X71018582Y-69167597D01*
X71023541Y-69181457D01*
X71027118Y-69195736D01*
X71029278Y-69210297D01*
X71030000Y-69225000D01*
X71030000Y-70875000D01*
X71029278Y-70889703D01*
X71027118Y-70904264D01*
X71023541Y-70918543D01*
X71018582Y-70932403D01*
X71012288Y-70945710D01*
X71004720Y-70958336D01*
X70995952Y-70970159D01*
X70986066Y-70981066D01*
X70975159Y-70990952D01*
X70963336Y-70999720D01*
X70950710Y-71007288D01*
X70937403Y-71013582D01*
X70923543Y-71018541D01*
X70909264Y-71022118D01*
X70894703Y-71024278D01*
X70880000Y-71025000D01*
X70580000Y-71025000D01*
X70565297Y-71024278D01*
X70550736Y-71022118D01*
X70536457Y-71018541D01*
X70522597Y-71013582D01*
X70509290Y-71007288D01*
X70496664Y-70999720D01*
X70484841Y-70990952D01*
X70473934Y-70981066D01*
X70464048Y-70970159D01*
X70455280Y-70958336D01*
X70447712Y-70945710D01*
X70441418Y-70932403D01*
X70436459Y-70918543D01*
X70432882Y-70904264D01*
X70430722Y-70889703D01*
X70430000Y-70875000D01*
X70430000Y-69225000D01*
X70430722Y-69210297D01*
X70432882Y-69195736D01*
X70436459Y-69181457D01*
X70441418Y-69167597D01*
X70447712Y-69154290D01*
X70455280Y-69141664D01*
X70464048Y-69129841D01*
X70473934Y-69118934D01*
X70484841Y-69109048D01*
X70496664Y-69100280D01*
X70509290Y-69092712D01*
X70522597Y-69086418D01*
X70536457Y-69081459D01*
X70550736Y-69077882D01*
X70565297Y-69075722D01*
X70580000Y-69075000D01*
X70880000Y-69075000D01*
X70894703Y-69075722D01*
X70894703Y-69075722D01*
G37*
D19*
X70730000Y-70050000D03*
D13*
G36*
X72164703Y-69075722D02*
G01*
X72179264Y-69077882D01*
X72193543Y-69081459D01*
X72207403Y-69086418D01*
X72220710Y-69092712D01*
X72233336Y-69100280D01*
X72245159Y-69109048D01*
X72256066Y-69118934D01*
X72265952Y-69129841D01*
X72274720Y-69141664D01*
X72282288Y-69154290D01*
X72288582Y-69167597D01*
X72293541Y-69181457D01*
X72297118Y-69195736D01*
X72299278Y-69210297D01*
X72300000Y-69225000D01*
X72300000Y-70875000D01*
X72299278Y-70889703D01*
X72297118Y-70904264D01*
X72293541Y-70918543D01*
X72288582Y-70932403D01*
X72282288Y-70945710D01*
X72274720Y-70958336D01*
X72265952Y-70970159D01*
X72256066Y-70981066D01*
X72245159Y-70990952D01*
X72233336Y-70999720D01*
X72220710Y-71007288D01*
X72207403Y-71013582D01*
X72193543Y-71018541D01*
X72179264Y-71022118D01*
X72164703Y-71024278D01*
X72150000Y-71025000D01*
X71850000Y-71025000D01*
X71835297Y-71024278D01*
X71820736Y-71022118D01*
X71806457Y-71018541D01*
X71792597Y-71013582D01*
X71779290Y-71007288D01*
X71766664Y-70999720D01*
X71754841Y-70990952D01*
X71743934Y-70981066D01*
X71734048Y-70970159D01*
X71725280Y-70958336D01*
X71717712Y-70945710D01*
X71711418Y-70932403D01*
X71706459Y-70918543D01*
X71702882Y-70904264D01*
X71700722Y-70889703D01*
X71700000Y-70875000D01*
X71700000Y-69225000D01*
X71700722Y-69210297D01*
X71702882Y-69195736D01*
X71706459Y-69181457D01*
X71711418Y-69167597D01*
X71717712Y-69154290D01*
X71725280Y-69141664D01*
X71734048Y-69129841D01*
X71743934Y-69118934D01*
X71754841Y-69109048D01*
X71766664Y-69100280D01*
X71779290Y-69092712D01*
X71792597Y-69086418D01*
X71806457Y-69081459D01*
X71820736Y-69077882D01*
X71835297Y-69075722D01*
X71850000Y-69075000D01*
X72150000Y-69075000D01*
X72164703Y-69075722D01*
X72164703Y-69075722D01*
G37*
D19*
X72000000Y-70050000D03*
D13*
G36*
X73434703Y-69075722D02*
G01*
X73449264Y-69077882D01*
X73463543Y-69081459D01*
X73477403Y-69086418D01*
X73490710Y-69092712D01*
X73503336Y-69100280D01*
X73515159Y-69109048D01*
X73526066Y-69118934D01*
X73535952Y-69129841D01*
X73544720Y-69141664D01*
X73552288Y-69154290D01*
X73558582Y-69167597D01*
X73563541Y-69181457D01*
X73567118Y-69195736D01*
X73569278Y-69210297D01*
X73570000Y-69225000D01*
X73570000Y-70875000D01*
X73569278Y-70889703D01*
X73567118Y-70904264D01*
X73563541Y-70918543D01*
X73558582Y-70932403D01*
X73552288Y-70945710D01*
X73544720Y-70958336D01*
X73535952Y-70970159D01*
X73526066Y-70981066D01*
X73515159Y-70990952D01*
X73503336Y-70999720D01*
X73490710Y-71007288D01*
X73477403Y-71013582D01*
X73463543Y-71018541D01*
X73449264Y-71022118D01*
X73434703Y-71024278D01*
X73420000Y-71025000D01*
X73120000Y-71025000D01*
X73105297Y-71024278D01*
X73090736Y-71022118D01*
X73076457Y-71018541D01*
X73062597Y-71013582D01*
X73049290Y-71007288D01*
X73036664Y-70999720D01*
X73024841Y-70990952D01*
X73013934Y-70981066D01*
X73004048Y-70970159D01*
X72995280Y-70958336D01*
X72987712Y-70945710D01*
X72981418Y-70932403D01*
X72976459Y-70918543D01*
X72972882Y-70904264D01*
X72970722Y-70889703D01*
X72970000Y-70875000D01*
X72970000Y-69225000D01*
X72970722Y-69210297D01*
X72972882Y-69195736D01*
X72976459Y-69181457D01*
X72981418Y-69167597D01*
X72987712Y-69154290D01*
X72995280Y-69141664D01*
X73004048Y-69129841D01*
X73013934Y-69118934D01*
X73024841Y-69109048D01*
X73036664Y-69100280D01*
X73049290Y-69092712D01*
X73062597Y-69086418D01*
X73076457Y-69081459D01*
X73090736Y-69077882D01*
X73105297Y-69075722D01*
X73120000Y-69075000D01*
X73420000Y-69075000D01*
X73434703Y-69075722D01*
X73434703Y-69075722D01*
G37*
D19*
X73270000Y-70050000D03*
D13*
G36*
X74704703Y-69075722D02*
G01*
X74719264Y-69077882D01*
X74733543Y-69081459D01*
X74747403Y-69086418D01*
X74760710Y-69092712D01*
X74773336Y-69100280D01*
X74785159Y-69109048D01*
X74796066Y-69118934D01*
X74805952Y-69129841D01*
X74814720Y-69141664D01*
X74822288Y-69154290D01*
X74828582Y-69167597D01*
X74833541Y-69181457D01*
X74837118Y-69195736D01*
X74839278Y-69210297D01*
X74840000Y-69225000D01*
X74840000Y-70875000D01*
X74839278Y-70889703D01*
X74837118Y-70904264D01*
X74833541Y-70918543D01*
X74828582Y-70932403D01*
X74822288Y-70945710D01*
X74814720Y-70958336D01*
X74805952Y-70970159D01*
X74796066Y-70981066D01*
X74785159Y-70990952D01*
X74773336Y-70999720D01*
X74760710Y-71007288D01*
X74747403Y-71013582D01*
X74733543Y-71018541D01*
X74719264Y-71022118D01*
X74704703Y-71024278D01*
X74690000Y-71025000D01*
X74390000Y-71025000D01*
X74375297Y-71024278D01*
X74360736Y-71022118D01*
X74346457Y-71018541D01*
X74332597Y-71013582D01*
X74319290Y-71007288D01*
X74306664Y-70999720D01*
X74294841Y-70990952D01*
X74283934Y-70981066D01*
X74274048Y-70970159D01*
X74265280Y-70958336D01*
X74257712Y-70945710D01*
X74251418Y-70932403D01*
X74246459Y-70918543D01*
X74242882Y-70904264D01*
X74240722Y-70889703D01*
X74240000Y-70875000D01*
X74240000Y-69225000D01*
X74240722Y-69210297D01*
X74242882Y-69195736D01*
X74246459Y-69181457D01*
X74251418Y-69167597D01*
X74257712Y-69154290D01*
X74265280Y-69141664D01*
X74274048Y-69129841D01*
X74283934Y-69118934D01*
X74294841Y-69109048D01*
X74306664Y-69100280D01*
X74319290Y-69092712D01*
X74332597Y-69086418D01*
X74346457Y-69081459D01*
X74360736Y-69077882D01*
X74375297Y-69075722D01*
X74390000Y-69075000D01*
X74690000Y-69075000D01*
X74704703Y-69075722D01*
X74704703Y-69075722D01*
G37*
D19*
X74540000Y-70050000D03*
D13*
G36*
X75974703Y-69075722D02*
G01*
X75989264Y-69077882D01*
X76003543Y-69081459D01*
X76017403Y-69086418D01*
X76030710Y-69092712D01*
X76043336Y-69100280D01*
X76055159Y-69109048D01*
X76066066Y-69118934D01*
X76075952Y-69129841D01*
X76084720Y-69141664D01*
X76092288Y-69154290D01*
X76098582Y-69167597D01*
X76103541Y-69181457D01*
X76107118Y-69195736D01*
X76109278Y-69210297D01*
X76110000Y-69225000D01*
X76110000Y-70875000D01*
X76109278Y-70889703D01*
X76107118Y-70904264D01*
X76103541Y-70918543D01*
X76098582Y-70932403D01*
X76092288Y-70945710D01*
X76084720Y-70958336D01*
X76075952Y-70970159D01*
X76066066Y-70981066D01*
X76055159Y-70990952D01*
X76043336Y-70999720D01*
X76030710Y-71007288D01*
X76017403Y-71013582D01*
X76003543Y-71018541D01*
X75989264Y-71022118D01*
X75974703Y-71024278D01*
X75960000Y-71025000D01*
X75660000Y-71025000D01*
X75645297Y-71024278D01*
X75630736Y-71022118D01*
X75616457Y-71018541D01*
X75602597Y-71013582D01*
X75589290Y-71007288D01*
X75576664Y-70999720D01*
X75564841Y-70990952D01*
X75553934Y-70981066D01*
X75544048Y-70970159D01*
X75535280Y-70958336D01*
X75527712Y-70945710D01*
X75521418Y-70932403D01*
X75516459Y-70918543D01*
X75512882Y-70904264D01*
X75510722Y-70889703D01*
X75510000Y-70875000D01*
X75510000Y-69225000D01*
X75510722Y-69210297D01*
X75512882Y-69195736D01*
X75516459Y-69181457D01*
X75521418Y-69167597D01*
X75527712Y-69154290D01*
X75535280Y-69141664D01*
X75544048Y-69129841D01*
X75553934Y-69118934D01*
X75564841Y-69109048D01*
X75576664Y-69100280D01*
X75589290Y-69092712D01*
X75602597Y-69086418D01*
X75616457Y-69081459D01*
X75630736Y-69077882D01*
X75645297Y-69075722D01*
X75660000Y-69075000D01*
X75960000Y-69075000D01*
X75974703Y-69075722D01*
X75974703Y-69075722D01*
G37*
D19*
X75810000Y-70050000D03*
D13*
G36*
X70669703Y-80550722D02*
G01*
X70684264Y-80552882D01*
X70698543Y-80556459D01*
X70712403Y-80561418D01*
X70725710Y-80567712D01*
X70738336Y-80575280D01*
X70750159Y-80584048D01*
X70761066Y-80593934D01*
X70770952Y-80604841D01*
X70779720Y-80616664D01*
X70787288Y-80629290D01*
X70793582Y-80642597D01*
X70798541Y-80656457D01*
X70802118Y-80670736D01*
X70804278Y-80685297D01*
X70805000Y-80700000D01*
X70805000Y-82350000D01*
X70804278Y-82364703D01*
X70802118Y-82379264D01*
X70798541Y-82393543D01*
X70793582Y-82407403D01*
X70787288Y-82420710D01*
X70779720Y-82433336D01*
X70770952Y-82445159D01*
X70761066Y-82456066D01*
X70750159Y-82465952D01*
X70738336Y-82474720D01*
X70725710Y-82482288D01*
X70712403Y-82488582D01*
X70698543Y-82493541D01*
X70684264Y-82497118D01*
X70669703Y-82499278D01*
X70655000Y-82500000D01*
X70355000Y-82500000D01*
X70340297Y-82499278D01*
X70325736Y-82497118D01*
X70311457Y-82493541D01*
X70297597Y-82488582D01*
X70284290Y-82482288D01*
X70271664Y-82474720D01*
X70259841Y-82465952D01*
X70248934Y-82456066D01*
X70239048Y-82445159D01*
X70230280Y-82433336D01*
X70222712Y-82420710D01*
X70216418Y-82407403D01*
X70211459Y-82393543D01*
X70207882Y-82379264D01*
X70205722Y-82364703D01*
X70205000Y-82350000D01*
X70205000Y-80700000D01*
X70205722Y-80685297D01*
X70207882Y-80670736D01*
X70211459Y-80656457D01*
X70216418Y-80642597D01*
X70222712Y-80629290D01*
X70230280Y-80616664D01*
X70239048Y-80604841D01*
X70248934Y-80593934D01*
X70259841Y-80584048D01*
X70271664Y-80575280D01*
X70284290Y-80567712D01*
X70297597Y-80561418D01*
X70311457Y-80556459D01*
X70325736Y-80552882D01*
X70340297Y-80550722D01*
X70355000Y-80550000D01*
X70655000Y-80550000D01*
X70669703Y-80550722D01*
X70669703Y-80550722D01*
G37*
D19*
X70505000Y-81525000D03*
D13*
G36*
X69399703Y-80550722D02*
G01*
X69414264Y-80552882D01*
X69428543Y-80556459D01*
X69442403Y-80561418D01*
X69455710Y-80567712D01*
X69468336Y-80575280D01*
X69480159Y-80584048D01*
X69491066Y-80593934D01*
X69500952Y-80604841D01*
X69509720Y-80616664D01*
X69517288Y-80629290D01*
X69523582Y-80642597D01*
X69528541Y-80656457D01*
X69532118Y-80670736D01*
X69534278Y-80685297D01*
X69535000Y-80700000D01*
X69535000Y-82350000D01*
X69534278Y-82364703D01*
X69532118Y-82379264D01*
X69528541Y-82393543D01*
X69523582Y-82407403D01*
X69517288Y-82420710D01*
X69509720Y-82433336D01*
X69500952Y-82445159D01*
X69491066Y-82456066D01*
X69480159Y-82465952D01*
X69468336Y-82474720D01*
X69455710Y-82482288D01*
X69442403Y-82488582D01*
X69428543Y-82493541D01*
X69414264Y-82497118D01*
X69399703Y-82499278D01*
X69385000Y-82500000D01*
X69085000Y-82500000D01*
X69070297Y-82499278D01*
X69055736Y-82497118D01*
X69041457Y-82493541D01*
X69027597Y-82488582D01*
X69014290Y-82482288D01*
X69001664Y-82474720D01*
X68989841Y-82465952D01*
X68978934Y-82456066D01*
X68969048Y-82445159D01*
X68960280Y-82433336D01*
X68952712Y-82420710D01*
X68946418Y-82407403D01*
X68941459Y-82393543D01*
X68937882Y-82379264D01*
X68935722Y-82364703D01*
X68935000Y-82350000D01*
X68935000Y-80700000D01*
X68935722Y-80685297D01*
X68937882Y-80670736D01*
X68941459Y-80656457D01*
X68946418Y-80642597D01*
X68952712Y-80629290D01*
X68960280Y-80616664D01*
X68969048Y-80604841D01*
X68978934Y-80593934D01*
X68989841Y-80584048D01*
X69001664Y-80575280D01*
X69014290Y-80567712D01*
X69027597Y-80561418D01*
X69041457Y-80556459D01*
X69055736Y-80552882D01*
X69070297Y-80550722D01*
X69085000Y-80550000D01*
X69385000Y-80550000D01*
X69399703Y-80550722D01*
X69399703Y-80550722D01*
G37*
D19*
X69235000Y-81525000D03*
D13*
G36*
X68129703Y-80550722D02*
G01*
X68144264Y-80552882D01*
X68158543Y-80556459D01*
X68172403Y-80561418D01*
X68185710Y-80567712D01*
X68198336Y-80575280D01*
X68210159Y-80584048D01*
X68221066Y-80593934D01*
X68230952Y-80604841D01*
X68239720Y-80616664D01*
X68247288Y-80629290D01*
X68253582Y-80642597D01*
X68258541Y-80656457D01*
X68262118Y-80670736D01*
X68264278Y-80685297D01*
X68265000Y-80700000D01*
X68265000Y-82350000D01*
X68264278Y-82364703D01*
X68262118Y-82379264D01*
X68258541Y-82393543D01*
X68253582Y-82407403D01*
X68247288Y-82420710D01*
X68239720Y-82433336D01*
X68230952Y-82445159D01*
X68221066Y-82456066D01*
X68210159Y-82465952D01*
X68198336Y-82474720D01*
X68185710Y-82482288D01*
X68172403Y-82488582D01*
X68158543Y-82493541D01*
X68144264Y-82497118D01*
X68129703Y-82499278D01*
X68115000Y-82500000D01*
X67815000Y-82500000D01*
X67800297Y-82499278D01*
X67785736Y-82497118D01*
X67771457Y-82493541D01*
X67757597Y-82488582D01*
X67744290Y-82482288D01*
X67731664Y-82474720D01*
X67719841Y-82465952D01*
X67708934Y-82456066D01*
X67699048Y-82445159D01*
X67690280Y-82433336D01*
X67682712Y-82420710D01*
X67676418Y-82407403D01*
X67671459Y-82393543D01*
X67667882Y-82379264D01*
X67665722Y-82364703D01*
X67665000Y-82350000D01*
X67665000Y-80700000D01*
X67665722Y-80685297D01*
X67667882Y-80670736D01*
X67671459Y-80656457D01*
X67676418Y-80642597D01*
X67682712Y-80629290D01*
X67690280Y-80616664D01*
X67699048Y-80604841D01*
X67708934Y-80593934D01*
X67719841Y-80584048D01*
X67731664Y-80575280D01*
X67744290Y-80567712D01*
X67757597Y-80561418D01*
X67771457Y-80556459D01*
X67785736Y-80552882D01*
X67800297Y-80550722D01*
X67815000Y-80550000D01*
X68115000Y-80550000D01*
X68129703Y-80550722D01*
X68129703Y-80550722D01*
G37*
D19*
X67965000Y-81525000D03*
D13*
G36*
X66859703Y-80550722D02*
G01*
X66874264Y-80552882D01*
X66888543Y-80556459D01*
X66902403Y-80561418D01*
X66915710Y-80567712D01*
X66928336Y-80575280D01*
X66940159Y-80584048D01*
X66951066Y-80593934D01*
X66960952Y-80604841D01*
X66969720Y-80616664D01*
X66977288Y-80629290D01*
X66983582Y-80642597D01*
X66988541Y-80656457D01*
X66992118Y-80670736D01*
X66994278Y-80685297D01*
X66995000Y-80700000D01*
X66995000Y-82350000D01*
X66994278Y-82364703D01*
X66992118Y-82379264D01*
X66988541Y-82393543D01*
X66983582Y-82407403D01*
X66977288Y-82420710D01*
X66969720Y-82433336D01*
X66960952Y-82445159D01*
X66951066Y-82456066D01*
X66940159Y-82465952D01*
X66928336Y-82474720D01*
X66915710Y-82482288D01*
X66902403Y-82488582D01*
X66888543Y-82493541D01*
X66874264Y-82497118D01*
X66859703Y-82499278D01*
X66845000Y-82500000D01*
X66545000Y-82500000D01*
X66530297Y-82499278D01*
X66515736Y-82497118D01*
X66501457Y-82493541D01*
X66487597Y-82488582D01*
X66474290Y-82482288D01*
X66461664Y-82474720D01*
X66449841Y-82465952D01*
X66438934Y-82456066D01*
X66429048Y-82445159D01*
X66420280Y-82433336D01*
X66412712Y-82420710D01*
X66406418Y-82407403D01*
X66401459Y-82393543D01*
X66397882Y-82379264D01*
X66395722Y-82364703D01*
X66395000Y-82350000D01*
X66395000Y-80700000D01*
X66395722Y-80685297D01*
X66397882Y-80670736D01*
X66401459Y-80656457D01*
X66406418Y-80642597D01*
X66412712Y-80629290D01*
X66420280Y-80616664D01*
X66429048Y-80604841D01*
X66438934Y-80593934D01*
X66449841Y-80584048D01*
X66461664Y-80575280D01*
X66474290Y-80567712D01*
X66487597Y-80561418D01*
X66501457Y-80556459D01*
X66515736Y-80552882D01*
X66530297Y-80550722D01*
X66545000Y-80550000D01*
X66845000Y-80550000D01*
X66859703Y-80550722D01*
X66859703Y-80550722D01*
G37*
D19*
X66695000Y-81525000D03*
D13*
G36*
X66859703Y-85500722D02*
G01*
X66874264Y-85502882D01*
X66888543Y-85506459D01*
X66902403Y-85511418D01*
X66915710Y-85517712D01*
X66928336Y-85525280D01*
X66940159Y-85534048D01*
X66951066Y-85543934D01*
X66960952Y-85554841D01*
X66969720Y-85566664D01*
X66977288Y-85579290D01*
X66983582Y-85592597D01*
X66988541Y-85606457D01*
X66992118Y-85620736D01*
X66994278Y-85635297D01*
X66995000Y-85650000D01*
X66995000Y-87300000D01*
X66994278Y-87314703D01*
X66992118Y-87329264D01*
X66988541Y-87343543D01*
X66983582Y-87357403D01*
X66977288Y-87370710D01*
X66969720Y-87383336D01*
X66960952Y-87395159D01*
X66951066Y-87406066D01*
X66940159Y-87415952D01*
X66928336Y-87424720D01*
X66915710Y-87432288D01*
X66902403Y-87438582D01*
X66888543Y-87443541D01*
X66874264Y-87447118D01*
X66859703Y-87449278D01*
X66845000Y-87450000D01*
X66545000Y-87450000D01*
X66530297Y-87449278D01*
X66515736Y-87447118D01*
X66501457Y-87443541D01*
X66487597Y-87438582D01*
X66474290Y-87432288D01*
X66461664Y-87424720D01*
X66449841Y-87415952D01*
X66438934Y-87406066D01*
X66429048Y-87395159D01*
X66420280Y-87383336D01*
X66412712Y-87370710D01*
X66406418Y-87357403D01*
X66401459Y-87343543D01*
X66397882Y-87329264D01*
X66395722Y-87314703D01*
X66395000Y-87300000D01*
X66395000Y-85650000D01*
X66395722Y-85635297D01*
X66397882Y-85620736D01*
X66401459Y-85606457D01*
X66406418Y-85592597D01*
X66412712Y-85579290D01*
X66420280Y-85566664D01*
X66429048Y-85554841D01*
X66438934Y-85543934D01*
X66449841Y-85534048D01*
X66461664Y-85525280D01*
X66474290Y-85517712D01*
X66487597Y-85511418D01*
X66501457Y-85506459D01*
X66515736Y-85502882D01*
X66530297Y-85500722D01*
X66545000Y-85500000D01*
X66845000Y-85500000D01*
X66859703Y-85500722D01*
X66859703Y-85500722D01*
G37*
D19*
X66695000Y-86475000D03*
D13*
G36*
X68129703Y-85500722D02*
G01*
X68144264Y-85502882D01*
X68158543Y-85506459D01*
X68172403Y-85511418D01*
X68185710Y-85517712D01*
X68198336Y-85525280D01*
X68210159Y-85534048D01*
X68221066Y-85543934D01*
X68230952Y-85554841D01*
X68239720Y-85566664D01*
X68247288Y-85579290D01*
X68253582Y-85592597D01*
X68258541Y-85606457D01*
X68262118Y-85620736D01*
X68264278Y-85635297D01*
X68265000Y-85650000D01*
X68265000Y-87300000D01*
X68264278Y-87314703D01*
X68262118Y-87329264D01*
X68258541Y-87343543D01*
X68253582Y-87357403D01*
X68247288Y-87370710D01*
X68239720Y-87383336D01*
X68230952Y-87395159D01*
X68221066Y-87406066D01*
X68210159Y-87415952D01*
X68198336Y-87424720D01*
X68185710Y-87432288D01*
X68172403Y-87438582D01*
X68158543Y-87443541D01*
X68144264Y-87447118D01*
X68129703Y-87449278D01*
X68115000Y-87450000D01*
X67815000Y-87450000D01*
X67800297Y-87449278D01*
X67785736Y-87447118D01*
X67771457Y-87443541D01*
X67757597Y-87438582D01*
X67744290Y-87432288D01*
X67731664Y-87424720D01*
X67719841Y-87415952D01*
X67708934Y-87406066D01*
X67699048Y-87395159D01*
X67690280Y-87383336D01*
X67682712Y-87370710D01*
X67676418Y-87357403D01*
X67671459Y-87343543D01*
X67667882Y-87329264D01*
X67665722Y-87314703D01*
X67665000Y-87300000D01*
X67665000Y-85650000D01*
X67665722Y-85635297D01*
X67667882Y-85620736D01*
X67671459Y-85606457D01*
X67676418Y-85592597D01*
X67682712Y-85579290D01*
X67690280Y-85566664D01*
X67699048Y-85554841D01*
X67708934Y-85543934D01*
X67719841Y-85534048D01*
X67731664Y-85525280D01*
X67744290Y-85517712D01*
X67757597Y-85511418D01*
X67771457Y-85506459D01*
X67785736Y-85502882D01*
X67800297Y-85500722D01*
X67815000Y-85500000D01*
X68115000Y-85500000D01*
X68129703Y-85500722D01*
X68129703Y-85500722D01*
G37*
D19*
X67965000Y-86475000D03*
D13*
G36*
X69399703Y-85500722D02*
G01*
X69414264Y-85502882D01*
X69428543Y-85506459D01*
X69442403Y-85511418D01*
X69455710Y-85517712D01*
X69468336Y-85525280D01*
X69480159Y-85534048D01*
X69491066Y-85543934D01*
X69500952Y-85554841D01*
X69509720Y-85566664D01*
X69517288Y-85579290D01*
X69523582Y-85592597D01*
X69528541Y-85606457D01*
X69532118Y-85620736D01*
X69534278Y-85635297D01*
X69535000Y-85650000D01*
X69535000Y-87300000D01*
X69534278Y-87314703D01*
X69532118Y-87329264D01*
X69528541Y-87343543D01*
X69523582Y-87357403D01*
X69517288Y-87370710D01*
X69509720Y-87383336D01*
X69500952Y-87395159D01*
X69491066Y-87406066D01*
X69480159Y-87415952D01*
X69468336Y-87424720D01*
X69455710Y-87432288D01*
X69442403Y-87438582D01*
X69428543Y-87443541D01*
X69414264Y-87447118D01*
X69399703Y-87449278D01*
X69385000Y-87450000D01*
X69085000Y-87450000D01*
X69070297Y-87449278D01*
X69055736Y-87447118D01*
X69041457Y-87443541D01*
X69027597Y-87438582D01*
X69014290Y-87432288D01*
X69001664Y-87424720D01*
X68989841Y-87415952D01*
X68978934Y-87406066D01*
X68969048Y-87395159D01*
X68960280Y-87383336D01*
X68952712Y-87370710D01*
X68946418Y-87357403D01*
X68941459Y-87343543D01*
X68937882Y-87329264D01*
X68935722Y-87314703D01*
X68935000Y-87300000D01*
X68935000Y-85650000D01*
X68935722Y-85635297D01*
X68937882Y-85620736D01*
X68941459Y-85606457D01*
X68946418Y-85592597D01*
X68952712Y-85579290D01*
X68960280Y-85566664D01*
X68969048Y-85554841D01*
X68978934Y-85543934D01*
X68989841Y-85534048D01*
X69001664Y-85525280D01*
X69014290Y-85517712D01*
X69027597Y-85511418D01*
X69041457Y-85506459D01*
X69055736Y-85502882D01*
X69070297Y-85500722D01*
X69085000Y-85500000D01*
X69385000Y-85500000D01*
X69399703Y-85500722D01*
X69399703Y-85500722D01*
G37*
D19*
X69235000Y-86475000D03*
D13*
G36*
X70669703Y-85500722D02*
G01*
X70684264Y-85502882D01*
X70698543Y-85506459D01*
X70712403Y-85511418D01*
X70725710Y-85517712D01*
X70738336Y-85525280D01*
X70750159Y-85534048D01*
X70761066Y-85543934D01*
X70770952Y-85554841D01*
X70779720Y-85566664D01*
X70787288Y-85579290D01*
X70793582Y-85592597D01*
X70798541Y-85606457D01*
X70802118Y-85620736D01*
X70804278Y-85635297D01*
X70805000Y-85650000D01*
X70805000Y-87300000D01*
X70804278Y-87314703D01*
X70802118Y-87329264D01*
X70798541Y-87343543D01*
X70793582Y-87357403D01*
X70787288Y-87370710D01*
X70779720Y-87383336D01*
X70770952Y-87395159D01*
X70761066Y-87406066D01*
X70750159Y-87415952D01*
X70738336Y-87424720D01*
X70725710Y-87432288D01*
X70712403Y-87438582D01*
X70698543Y-87443541D01*
X70684264Y-87447118D01*
X70669703Y-87449278D01*
X70655000Y-87450000D01*
X70355000Y-87450000D01*
X70340297Y-87449278D01*
X70325736Y-87447118D01*
X70311457Y-87443541D01*
X70297597Y-87438582D01*
X70284290Y-87432288D01*
X70271664Y-87424720D01*
X70259841Y-87415952D01*
X70248934Y-87406066D01*
X70239048Y-87395159D01*
X70230280Y-87383336D01*
X70222712Y-87370710D01*
X70216418Y-87357403D01*
X70211459Y-87343543D01*
X70207882Y-87329264D01*
X70205722Y-87314703D01*
X70205000Y-87300000D01*
X70205000Y-85650000D01*
X70205722Y-85635297D01*
X70207882Y-85620736D01*
X70211459Y-85606457D01*
X70216418Y-85592597D01*
X70222712Y-85579290D01*
X70230280Y-85566664D01*
X70239048Y-85554841D01*
X70248934Y-85543934D01*
X70259841Y-85534048D01*
X70271664Y-85525280D01*
X70284290Y-85517712D01*
X70297597Y-85511418D01*
X70311457Y-85506459D01*
X70325736Y-85502882D01*
X70340297Y-85500722D01*
X70355000Y-85500000D01*
X70655000Y-85500000D01*
X70669703Y-85500722D01*
X70669703Y-85500722D01*
G37*
D19*
X70505000Y-86475000D03*
D13*
G36*
X89424504Y-75601204D02*
G01*
X89448773Y-75604804D01*
X89472571Y-75610765D01*
X89495671Y-75619030D01*
X89517849Y-75629520D01*
X89538893Y-75642133D01*
X89558598Y-75656747D01*
X89576777Y-75673223D01*
X89593253Y-75691402D01*
X89607867Y-75711107D01*
X89620480Y-75732151D01*
X89630970Y-75754329D01*
X89639235Y-75777429D01*
X89645196Y-75801227D01*
X89648796Y-75825496D01*
X89650000Y-75850000D01*
X89650000Y-76950000D01*
X89648796Y-76974504D01*
X89645196Y-76998773D01*
X89639235Y-77022571D01*
X89630970Y-77045671D01*
X89620480Y-77067849D01*
X89607867Y-77088893D01*
X89593253Y-77108598D01*
X89576777Y-77126777D01*
X89558598Y-77143253D01*
X89538893Y-77157867D01*
X89517849Y-77170480D01*
X89495671Y-77180970D01*
X89472571Y-77189235D01*
X89448773Y-77195196D01*
X89424504Y-77198796D01*
X89400000Y-77200000D01*
X86400000Y-77200000D01*
X86375496Y-77198796D01*
X86351227Y-77195196D01*
X86327429Y-77189235D01*
X86304329Y-77180970D01*
X86282151Y-77170480D01*
X86261107Y-77157867D01*
X86241402Y-77143253D01*
X86223223Y-77126777D01*
X86206747Y-77108598D01*
X86192133Y-77088893D01*
X86179520Y-77067849D01*
X86169030Y-77045671D01*
X86160765Y-77022571D01*
X86154804Y-76998773D01*
X86151204Y-76974504D01*
X86150000Y-76950000D01*
X86150000Y-75850000D01*
X86151204Y-75825496D01*
X86154804Y-75801227D01*
X86160765Y-75777429D01*
X86169030Y-75754329D01*
X86179520Y-75732151D01*
X86192133Y-75711107D01*
X86206747Y-75691402D01*
X86223223Y-75673223D01*
X86241402Y-75656747D01*
X86261107Y-75642133D01*
X86282151Y-75629520D01*
X86304329Y-75619030D01*
X86327429Y-75610765D01*
X86351227Y-75604804D01*
X86375496Y-75601204D01*
X86400000Y-75600000D01*
X89400000Y-75600000D01*
X89424504Y-75601204D01*
X89424504Y-75601204D01*
G37*
D20*
X87900000Y-76400000D03*
D13*
G36*
X84024504Y-75601204D02*
G01*
X84048773Y-75604804D01*
X84072571Y-75610765D01*
X84095671Y-75619030D01*
X84117849Y-75629520D01*
X84138893Y-75642133D01*
X84158598Y-75656747D01*
X84176777Y-75673223D01*
X84193253Y-75691402D01*
X84207867Y-75711107D01*
X84220480Y-75732151D01*
X84230970Y-75754329D01*
X84239235Y-75777429D01*
X84245196Y-75801227D01*
X84248796Y-75825496D01*
X84250000Y-75850000D01*
X84250000Y-76950000D01*
X84248796Y-76974504D01*
X84245196Y-76998773D01*
X84239235Y-77022571D01*
X84230970Y-77045671D01*
X84220480Y-77067849D01*
X84207867Y-77088893D01*
X84193253Y-77108598D01*
X84176777Y-77126777D01*
X84158598Y-77143253D01*
X84138893Y-77157867D01*
X84117849Y-77170480D01*
X84095671Y-77180970D01*
X84072571Y-77189235D01*
X84048773Y-77195196D01*
X84024504Y-77198796D01*
X84000000Y-77200000D01*
X81000000Y-77200000D01*
X80975496Y-77198796D01*
X80951227Y-77195196D01*
X80927429Y-77189235D01*
X80904329Y-77180970D01*
X80882151Y-77170480D01*
X80861107Y-77157867D01*
X80841402Y-77143253D01*
X80823223Y-77126777D01*
X80806747Y-77108598D01*
X80792133Y-77088893D01*
X80779520Y-77067849D01*
X80769030Y-77045671D01*
X80760765Y-77022571D01*
X80754804Y-76998773D01*
X80751204Y-76974504D01*
X80750000Y-76950000D01*
X80750000Y-75850000D01*
X80751204Y-75825496D01*
X80754804Y-75801227D01*
X80760765Y-75777429D01*
X80769030Y-75754329D01*
X80779520Y-75732151D01*
X80792133Y-75711107D01*
X80806747Y-75691402D01*
X80823223Y-75673223D01*
X80841402Y-75656747D01*
X80861107Y-75642133D01*
X80882151Y-75629520D01*
X80904329Y-75619030D01*
X80927429Y-75610765D01*
X80951227Y-75604804D01*
X80975496Y-75601204D01*
X81000000Y-75600000D01*
X84000000Y-75600000D01*
X84024504Y-75601204D01*
X84024504Y-75601204D01*
G37*
D20*
X82500000Y-76400000D03*
M02*
