M48
; DRILL file {KiCad 5.1.3-ffb9f22~84~ubuntu18.10.1} date Sat Feb  1 18:17:07 2020
; FORMAT={-:-/ absolute / metric / decimal}
; #@! TF.CreationDate,2020-02-01T18:17:07-05:00
; #@! TF.GenerationSoftware,Kicad,Pcbnew,5.1.3-ffb9f22~84~ubuntu18.10.1
; #@! TF.FileFunction,Plated,1,2,PTH
FMAT,2
METRIC
T1C0.400
T2C0.500
T3C0.600
T4C1.000
T5C1.300
T6C3.200
%
G90
G05
T1
X12.55Y-94.55
X12.6Y-10.0
X12.6Y-26.0
X12.6Y-42.0
X12.6Y-58.0
X12.6Y-74.0
X12.6Y-90.0
X17.4Y-10.0
X17.4Y-26.0
X17.4Y-42.0
X17.4Y-58.0
X17.4Y-74.0
X17.4Y-90.0
X35.0Y-29.0
X35.0Y-71.0
X47.55Y-69.55
X47.6Y-34.0
X47.6Y-50.0
X47.6Y-66.0
X52.4Y-34.0
X52.4Y-50.0
X52.4Y-66.0
X52.45Y-30.45
X58.0Y-78.0
X59.5Y-79.5
X61.0Y-78.0
X65.0Y-29.0
X65.0Y-71.0
X70.505Y-78.505
X73.3Y-87.0
X73.3Y-89.4
X74.5Y-87.0
X74.5Y-90.6
X75.81Y-76.79
X81.0Y-83.6
X82.6Y-18.0
X82.6Y-34.0
X82.6Y-50.0
X82.6Y-66.0
X82.6Y-82.0
X83.0Y-90.0
X87.0Y-89.5
X87.0Y-90.5
X87.4Y-18.0
X87.4Y-34.0
X87.4Y-50.0
X87.4Y-66.0
X87.4Y-82.0
X87.45Y-13.45
X89.1Y-89.2
X90.2Y-89.2
X90.55Y-79.05
X91.3Y-88.1
X91.3Y-91.8
X96.0Y-42.0
T2
X2.6Y-66.0
X3.303Y-64.303
X3.303Y-67.697
X5.0Y-63.6
X5.0Y-68.4
X6.697Y-64.303
X6.697Y-67.697
X7.4Y-66.0
X68.9Y-89.4
X70.8Y-89.4
X92.6Y-66.0
X93.303Y-64.303
X93.303Y-67.697
X95.0Y-63.6
X95.0Y-68.4
X96.697Y-64.303
X96.697Y-67.697
X97.4Y-66.0
T4
X94.46Y-74.0
X94.46Y-76.54
X94.46Y-79.08
X97.0Y-74.0
X97.0Y-76.54
X97.0Y-79.08
T5
X40.0Y-85.0
X60.0Y-85.0
T6
X5.0Y-66.0
X95.0Y-66.0
T3
G00X93.77Y-85.68
M15
G01X92.67Y-85.68
M16
G05
G00X93.77Y-94.32
M15
G01X92.67Y-94.32
M16
G05
G00X97.7Y-85.68
M15
G01X97.1Y-85.68
M16
G05
G00X97.7Y-94.32
M15
G01X97.1Y-94.32
M16
G05
T0
M30
