G04 #@! TF.GenerationSoftware,KiCad,Pcbnew,5.1.3-ffb9f22~84~ubuntu18.10.1*
G04 #@! TF.CreationDate,2020-02-01T18:16:24-05:00*
G04 #@! TF.ProjectId,FIFO_Clock,4649464f-5f43-46c6-9f63-6b2e6b696361,rev?*
G04 #@! TF.SameCoordinates,PX2faf080PY2faf080*
G04 #@! TF.FileFunction,Legend,Top*
G04 #@! TF.FilePolarity,Positive*
%FSLAX46Y46*%
G04 Gerber Fmt 4.6, Leading zero omitted, Abs format (unit mm)*
G04 Created by KiCad (PCBNEW 5.1.3-ffb9f22~84~ubuntu18.10.1) date 2020-02-01 18:16:24*
%MOMM*%
%LPD*%
G04 APERTURE LIST*
%ADD10C,0.100000*%
G04 APERTURE END LIST*
D10*
G36*
X83500000Y-81000000D02*
G01*
X83500000Y-82250000D01*
X84750000Y-81000000D01*
X83500000Y-81000000D01*
G37*
X83500000Y-81000000D02*
X83500000Y-82250000D01*
X84750000Y-81000000D01*
X83500000Y-81000000D01*
G36*
X48500000Y-49000000D02*
G01*
X48500000Y-50250000D01*
X49750000Y-49000000D01*
X48500000Y-49000000D01*
G37*
X48500000Y-49000000D02*
X48500000Y-50250000D01*
X49750000Y-49000000D01*
X48500000Y-49000000D01*
G36*
X13500000Y-9000000D02*
G01*
X13500000Y-10250000D01*
X14750000Y-9000000D01*
X13500000Y-9000000D01*
G37*
X13500000Y-9000000D02*
X13500000Y-10250000D01*
X14750000Y-9000000D01*
X13500000Y-9000000D01*
G36*
X13500000Y-25000000D02*
G01*
X13500000Y-26250000D01*
X14750000Y-25000000D01*
X13500000Y-25000000D01*
G37*
X13500000Y-25000000D02*
X13500000Y-26250000D01*
X14750000Y-25000000D01*
X13500000Y-25000000D01*
G36*
X13500000Y-41000000D02*
G01*
X13500000Y-42250000D01*
X14750000Y-41000000D01*
X13500000Y-41000000D01*
G37*
X13500000Y-41000000D02*
X13500000Y-42250000D01*
X14750000Y-41000000D01*
X13500000Y-41000000D01*
G36*
X13500000Y-57000000D02*
G01*
X13500000Y-58250000D01*
X14750000Y-57000000D01*
X13500000Y-57000000D01*
G37*
X13500000Y-57000000D02*
X13500000Y-58250000D01*
X14750000Y-57000000D01*
X13500000Y-57000000D01*
G36*
X13500000Y-73000000D02*
G01*
X13500000Y-74250000D01*
X14750000Y-73000000D01*
X13500000Y-73000000D01*
G37*
X13500000Y-73000000D02*
X13500000Y-74250000D01*
X14750000Y-73000000D01*
X13500000Y-73000000D01*
G36*
X13500000Y-89000000D02*
G01*
X13500000Y-90250000D01*
X14750000Y-89000000D01*
X13500000Y-89000000D01*
G37*
X13500000Y-89000000D02*
X13500000Y-90250000D01*
X14750000Y-89000000D01*
X13500000Y-89000000D01*
G36*
X48500000Y-33000000D02*
G01*
X48500000Y-34250000D01*
X49750000Y-33000000D01*
X48500000Y-33000000D01*
G37*
X48500000Y-33000000D02*
X48500000Y-34250000D01*
X49750000Y-33000000D01*
X48500000Y-33000000D01*
G36*
X48500000Y-65000000D02*
G01*
X48500000Y-66250000D01*
X49750000Y-65000000D01*
X48500000Y-65000000D01*
G37*
X48500000Y-65000000D02*
X48500000Y-66250000D01*
X49750000Y-65000000D01*
X48500000Y-65000000D01*
G36*
X83500000Y-17000000D02*
G01*
X83500000Y-18250000D01*
X84750000Y-17000000D01*
X83500000Y-17000000D01*
G37*
X83500000Y-17000000D02*
X83500000Y-18250000D01*
X84750000Y-17000000D01*
X83500000Y-17000000D01*
G36*
X83500000Y-33000000D02*
G01*
X83500000Y-34250000D01*
X84750000Y-33000000D01*
X83500000Y-33000000D01*
G37*
X83500000Y-33000000D02*
X83500000Y-34250000D01*
X84750000Y-33000000D01*
X83500000Y-33000000D01*
G36*
X83500000Y-49000000D02*
G01*
X83500000Y-50250000D01*
X84750000Y-49000000D01*
X83500000Y-49000000D01*
G37*
X83500000Y-49000000D02*
X83500000Y-50250000D01*
X84750000Y-49000000D01*
X83500000Y-49000000D01*
G36*
X83500000Y-65000000D02*
G01*
X83500000Y-66250000D01*
X84750000Y-65000000D01*
X83500000Y-65000000D01*
G37*
X83500000Y-65000000D02*
X83500000Y-66250000D01*
X84750000Y-65000000D01*
X83500000Y-65000000D01*
M02*
