G04 #@! TF.GenerationSoftware,KiCad,Pcbnew,5.1.2*
G04 #@! TF.CreationDate,2019-05-02T23:37:59-04:00*
G04 #@! TF.ProjectId,LED_Bar_Clock_2_Side_SMD,4c45445f-4261-4725-9f43-6c6f636b5f32,rev?*
G04 #@! TF.SameCoordinates,PX2faf080PY2faf080*
G04 #@! TF.FileFunction,Paste,Top*
G04 #@! TF.FilePolarity,Positive*
%FSLAX46Y46*%
G04 Gerber Fmt 4.6, Leading zero omitted, Abs format (unit mm)*
G04 Created by KiCad (PCBNEW 5.1.2) date 2019-05-02 23:37:59*
%MOMM*%
%LPD*%
G04 APERTURE LIST*
%ADD10R,1.500000X1.000000*%
G04 APERTURE END LIST*
D10*
X87450000Y-83600000D03*
X87450000Y-80400000D03*
X82550000Y-83600000D03*
X82550000Y-80400000D03*
X52450000Y-51600000D03*
X52450000Y-48400000D03*
X47550000Y-51600000D03*
X47550000Y-48400000D03*
X17450000Y-11600000D03*
X17450000Y-8400000D03*
X12550000Y-11600000D03*
X12550000Y-8400000D03*
X17450000Y-27600000D03*
X17450000Y-24400000D03*
X12550000Y-27600000D03*
X12550000Y-24400000D03*
X17450000Y-43600000D03*
X17450000Y-40400000D03*
X12550000Y-43600000D03*
X12550000Y-40400000D03*
X17450000Y-59600000D03*
X17450000Y-56400000D03*
X12550000Y-59600000D03*
X12550000Y-56400000D03*
X17450000Y-75600000D03*
X17450000Y-72400000D03*
X12550000Y-75600000D03*
X12550000Y-72400000D03*
X17450000Y-91600000D03*
X17450000Y-88400000D03*
X12550000Y-91600000D03*
X12550000Y-88400000D03*
X52450000Y-35600000D03*
X52450000Y-32400000D03*
X47550000Y-35600000D03*
X47550000Y-32400000D03*
X52450000Y-67600000D03*
X52450000Y-64400000D03*
X47550000Y-67600000D03*
X47550000Y-64400000D03*
X87450000Y-19600000D03*
X87450000Y-16400000D03*
X82550000Y-19600000D03*
X82550000Y-16400000D03*
X87450000Y-35600000D03*
X87450000Y-32400000D03*
X82550000Y-35600000D03*
X82550000Y-32400000D03*
X87450000Y-51600000D03*
X87450000Y-48400000D03*
X82550000Y-51600000D03*
X82550000Y-48400000D03*
X87450000Y-67600000D03*
X87450000Y-64400000D03*
X82550000Y-67600000D03*
X82550000Y-64400000D03*
M02*
