M48
; DRILL file {KiCad 5.1.2} date Thu 02 May 2019 11:40:08 PM EDT
; FORMAT={-:-/ absolute / inch / decimal}
; #@! TF.CreationDate,2019-05-02T23:40:08-04:00
; #@! TF.GenerationSoftware,Kicad,Pcbnew,5.1.2
; #@! TF.FileFunction,Plated,1,2,PTH
FMAT,2
INCH
T1C0.0157
T2C0.0197
T3C0.0236
T4C0.0394
T5C0.0512
T6C0.1260
%
G90
G05
T1
X0.4941Y-3.7224
X0.4961Y-0.3937
X0.4961Y-1.0236
X0.4961Y-1.6535
X0.4961Y-2.2835
X0.4961Y-2.9134
X0.4961Y-3.5433
X0.685Y-0.3937
X0.685Y-1.0236
X0.685Y-1.6535
X0.685Y-2.2835
X0.685Y-2.9134
X0.685Y-3.5433
X1.378Y-1.1417
X1.378Y-2.7953
X1.872Y-2.7382
X1.874Y-1.3386
X1.874Y-1.9685
X1.874Y-2.5984
X2.063Y-1.3386
X2.063Y-1.9685
X2.063Y-2.5984
X2.065Y-1.1988
X2.2835Y-3.0709
X2.3425Y-3.1299
X2.4016Y-3.0709
X2.5591Y-1.1417
X2.5591Y-2.7953
X2.7758Y-3.0907
X2.8858Y-3.4252
X2.8858Y-3.5197
X2.9331Y-3.4252
X2.9331Y-3.5669
X2.9846Y-3.0232
X2.9921Y-3.7795
X3.189Y-3.2913
X3.252Y-0.7087
X3.252Y-1.3386
X3.252Y-1.9685
X3.252Y-2.5984
X3.252Y-3.2283
X3.4252Y-3.5236
X3.4252Y-3.563
X3.4409Y-0.7087
X3.4409Y-1.3386
X3.4409Y-1.9685
X3.4409Y-2.5984
X3.4409Y-3.2283
X3.4429Y-0.5295
X3.5039Y-3.7795
X3.5079Y-3.5118
X3.5512Y-3.5118
X3.5827Y-3.8189
X3.5945Y-3.4685
X3.5945Y-3.6142
X3.7795Y-1.6535
T2
X2.7126Y-3.5197
X2.7874Y-3.5197
X3.6457Y-2.5984
X3.6733Y-2.5316
X3.6733Y-2.6652
X3.7402Y-2.5039
X3.7402Y-2.6929
X3.807Y-2.5316
X3.807Y-2.6652
X3.8346Y-2.5984
X0.1024Y-2.5984
X0.13Y-2.5316
X0.13Y-2.6652
X0.1969Y-2.5039
X0.1969Y-2.6929
X0.2637Y-2.5316
X0.2637Y-2.6652
X0.2913Y-2.5984
T4
X3.7189Y-2.9134
X3.7189Y-3.0134
X3.7189Y-3.1134
X3.8189Y-2.9134
X3.8189Y-3.0134
X3.8189Y-3.1134
T5
X1.5748Y-3.3465
X2.3622Y-3.3465
T6
X3.7402Y-2.5984
X0.1969Y-2.5984
T3
G00X3.6917Y-3.3732
M15
G01X3.6484Y-3.3732
M16
G05
G00X3.6917Y-3.7134
M15
G01X3.6484Y-3.7134
M16
G05
G00X3.8465Y-3.3732
M15
G01X3.8228Y-3.3732
M16
G05
G00X3.8465Y-3.7134
M15
G01X3.8228Y-3.7134
M16
G05
T0
M30
